<?xml version="1.0" encoding="UTF-8"?>
<svg width="22px" height="21px" viewBox="0 0 22 21" version="1.1" xmlns="http://www.w3.org/2000/svg" xmlns:xlink="http://www.w3.org/1999/xlink">
    <title>编组 7@2x</title>
    <defs>
        <linearGradient x1="50%" y1="0%" x2="50%" y2="100%" id="linearGradient-1">
            <stop stop-color="#BA973A" offset="0%"></stop>
            <stop stop-color="#845E1B" offset="100%"></stop>
        </linearGradient>
        <rect id="path-2" x="0" y="0" width="19" height="20"></rect>
        <linearGradient x1="50%" y1="0%" x2="50%" y2="100%" id="linearGradient-4">
            <stop stop-color="#BA973A" offset="0%"></stop>
            <stop stop-color="#845E1B" offset="100%"></stop>
        </linearGradient>
    </defs>
    <g id="界面设计-资金展示相关-提现" stroke="none" stroke-width="1" fill="none" fill-rule="evenodd">
        <g id="代理提现详情/待审核" transform="translate(-29.000000, -339.000000)">
            <g id="编组-7" transform="translate(29.000000, 339.000000)">
                <rect id="矩形" fill="#FFE9C5" x="0" y="0" width="22" height="21"></rect>
                <g id="编组-5" transform="translate(2.000000, 1.000000)">
                    <rect id="矩形" fill="url(#linearGradient-1)" x="0" y="1" width="18" height="18" rx="3"></rect>
                    <g id="编组-4">
                        <g id="qiandai-tianchong-2">
                            <mask id="mask-3" fill="white">
                                <use xlink:href="#path-2"></use>
                            </mask>
                            <use id="蒙版" fill-opacity="0" fill="#D8D8D8" xlink:href="#path-2"></use>
                            <path d="M8.96367191,1 C9.96943455,1 10.87077,1.4099172 11.5211113,2.0595107 C12.624704,2.02466213 12.9093868,2.13341345 13.2019953,2.30339062 C13.8663024,2.66818442 14.293145,3.3744609 14.3389751,4.30435815 C14.3666832,4.86655848 14.2472943,5.51143864 13.968051,6.14280728 L13.869,6.348 L13.9319565,6.40172532 C14.977763,7.31055062 15.8233828,8.15169867 16.4748193,9.1005763 L16.684781,9.42109943 C17.5203798,10.7602675 18,12.3368167 18,14.0209173 C18,15.7645622 17.4228967,17.3881122 16.4688663,18.7268512 C15.8712151,19.5243721 14.9195011,20 13.9090866,20 L4.09089214,20 C3.0805191,20 2.12880646,19.5243878 1.54543834,18.7464464 C0.57710133,17.3881052 0,15.7645584 1.11022302e-15,14.0209173 C1.11022302e-15,12.3441479 0.475452314,10.7739173 1.30017697,9.43413619 C2.00187797,8.29420938 2.95696426,7.32140857 4.08724591,6.59283287 C3.70482067,5.38333273 3.61229007,4.7974821 3.63739781,4.28804362 C3.68394715,3.34355271 4.11857185,2.62888247 4.76349351,2.26686097 C5.0984431,2.07372905 5.43176304,1.9957832 5.83638775,1.9957832 C7.19287087,1.34577292 8.03776673,1 8.96367191,1 Z" stroke="#FFE9C5" stroke-width="2" fill="url(#linearGradient-4)" mask="url(#mask-3)"></path>
                        </g>
                        <g id="¥" transform="translate(5.444444, 10.052632)" fill="#FFE9C8" fill-rule="nonzero">
                            <polygon id="路径" points="6.39347604 2.32631579 4.76248726 2.32631579 7.11111111 0 5.25830785 0 3.60122324 1.78052632 3.50988787 1.78052632 1.9049949 0 0 0 2.2833843 2.32631579 0.639347604 2.32631579 0.639347604 3.18526316 2.62262997 3.18526316 2.62262997 3.70421053 0.639347604 3.70421053 0.639347604 4.56315789 2.62262997 4.56315789 2.62262997 6.26315789 4.41019368 6.26315789 4.41019368 4.56315789 6.39347604 4.56315789 6.39347604 3.70421053 4.41019368 3.70421053 4.41019368 3.18526316 6.39347604 3.18526316"></polygon>
                        </g>
                    </g>
                </g>
            </g>
        </g>
    </g>
</svg>