<?xml version="1.0" encoding="UTF-8"?>
<svg width="16px" height="16px" viewBox="0 0 16 16" version="1.1" xmlns="http://www.w3.org/2000/svg" xmlns:xlink="http://www.w3.org/1999/xlink">
    <title>未选中/无选项</title>
    <defs>
        <polygon id="path-1" points="0 0 16 0 16 16 0 16"></polygon>
    </defs>
    <g id="界面设计-资金展示相关-提现" stroke="none" stroke-width="1" fill="none" fill-rule="evenodd">
        <g id="转账支持银行" transform="translate(-205.000000, -132.000000)">
            <g id="编组-3" transform="translate(0.000000, 120.000000)">
                <g id="未选中/无选项" transform="translate(205.000000, 12.000000)">
                    <g id="划拨机具-选中">
                        <g id="save"></g>
                        <rect id="矩形" fill="#000000" fill-rule="nonzero" opacity="0" x="0" y="0" width="16" height="16"></rect>
                        <rect id="Rectangle-271" fill="#D84038" x="0" y="0" width="16" height="16" rx="4"></rect>
                    </g>
                    <circle id="椭圆形" fill="#FFFFFF" cx="8" cy="8" r="6"></circle>
                    <g id="cuowu-2">
                        <mask id="mask-2" fill="white">
                            <use xlink:href="#path-1"></use>
                        </mask>
                        <g id="Clip-2"></g>
                        <path d="M7.99927449,0 C3.58076348,0 -0.00133939596,3.58180304 -0.00133939596,7.9999442 C-0.00133939596,12.418197 3.58076348,16 7.99927449,16 C12.4178971,16 16,12.418197 16,7.9999442 C16,3.58180304 12.4178971,0 7.99927449,0 Z M11.8388762,10.9294714 C12.089321,11.1810112 12.089321,11.5876847 11.8388762,11.8392246 C11.5874047,12.0892242 11.1812328,12.0892242 10.9297389,11.8392246 L7.99927449,8.90911704 L5.07048432,11.8392246 C4.81883414,12.0902733 4.41143453,12.0902733 4.15967274,11.8392246 C3.90976378,11.587774 3.90976378,11.1816362 4.15967274,10.9301633 L7.08857453,8.0016183 L4.15967274,5.07139917 C3.90871458,4.81977006 3.90871458,4.41240456 4.15967274,4.16066384 C4.41143453,3.90972669 4.81883414,3.90972669 5.07048432,4.16066384 L7.99927449,7.09088296 L10.9281763,4.16233794 C11.17938,3.91086508 11.5867796,3.91017312 11.8388762,4.16066384 C12.089946,4.41240456 12.089946,4.81977006 11.8388762,5.07139917 L8.90852344,7.9999442 L11.8388762,10.9294714 Z" id="Fill-1" fill="#D84038" mask="url(#mask-2)"></path>
                    </g>
                </g>
            </g>
        </g>
    </g>
</svg>