<?xml version="1.0" encoding="UTF-8"?>
<svg width="75px" height="84px" viewBox="0 0 75 84" version="1.1" xmlns="http://www.w3.org/2000/svg" xmlns:xlink="http://www.w3.org/1999/xlink">
    <title>商户管理背景</title>
    <defs>
        <rect id="path-1" x="0" y="0" width="75" height="84" rx="4"></rect>
        <linearGradient x1="50%" y1="0%" x2="50%" y2="93.1272013%" id="linearGradient-3">
            <stop stop-color="#FACBA9" stop-opacity="0.397944097" offset="0%"></stop>
            <stop stop-color="#FFF0E5" offset="100%"></stop>
        </linearGradient>
        <linearGradient x1="50%" y1="0%" x2="50%" y2="100%" id="linearGradient-4">
            <stop stop-color="#EE9655" offset="0%"></stop>
            <stop stop-color="#F9CEAE" offset="100%"></stop>
        </linearGradient>
    </defs>
    <g id="界面设计-首页/一级页" stroke="none" stroke-width="1" fill="none" fill-rule="evenodd">
        <g id="机构首页" transform="translate(-107.000000, -421.000000)">
            <g id="商户管理背景" transform="translate(107.000000, 421.000000)">
                <g id="shanghu" opacity="0.676661174">
                    <mask id="mask-2" fill="white">
                        <use xlink:href="#path-1"></use>
                    </mask>
                    <use id="蒙版" fill-opacity="0" fill="#D8D8D8" xlink:href="#path-1"></use>
                    <g mask="url(#mask-2)" fill="url(#linearGradient-3)" id="形状结合">
                        <path d="M71.3357271,37.7428487 C70.9588796,37.7028201 70.5958646,37.6358269 70.2349776,37.5636081 C70.1577461,37.5529477 70.0735096,37.5394655 69.9966327,37.5235794 C69.8262089,37.488881 69.6651842,37.434952 69.4992826,37.3871893 C68.7933807,37.2076352 68.1034394,36.9830357 67.4428479,36.6887258 L67.4428479,47.8288176 L15.563625,47.8288176 L15.563625,36.6887258 C14.8986,36.9858576 14.2152203,37.2157872 13.5027568,37.4002535 C13.3368552,37.434952 13.1758305,37.488881 13.0102836,37.5289096 C12.9329633,37.5447957 12.8557318,37.555456 12.7719386,37.5717601 C12.4085689,37.6358269 12.0431599,37.6999982 11.6708345,37.7456706 C11.2465485,37.7856992 10.8128636,37.8178894 10.3750998,37.8178894 C9.48972977,37.8178894 8.62280315,37.7163023 7.78283221,37.5394655 L7.78283221,67.4144349 C7.78283221,69.8651715 9.52617314,71.8554217 11.6757114,71.8554217 L71.3377665,71.8554217 C73.4828712,71.8554217 75.2261235,69.8676798 75.2261235,67.4144349 L75.2261235,37.5366436 C74.3861525,37.7163023 73.5192259,37.8150675 72.6338559,37.8150675 C72.2026537,37.8150675 71.7645352,37.7856992 71.3402492,37.7428487 L71.3357271,37.7428487 Z M75.7162026,0 L7.29488118,0 L0,21.4047789 C0,28.1544685 4.6486136,33.6336922 10.3750998,33.6336922 C16.1015859,33.6336922 20.7498448,28.1544685 20.7498448,21.4047789 C20.7498448,28.1544685 25.3984584,33.6336922 31.1249446,33.6336922 C36.8514307,33.6336922 41.4999557,28.1544685 41.4999557,21.4047789 C41.4999557,28.1544685 46.1482146,33.6336922 51.8747007,33.6336922 C57.6015416,33.6336922 62.2498005,28.1544685 62.2498005,21.4047789 C62.2498005,28.1544685 66.8984141,33.6336922 72.6249002,33.6336922 C78.3513864,33.6336922 83,28.1544685 83,21.4047789 L75.7072469,0 L75.7162026,0 Z"></path>
                    </g>
                </g>
                <g id="我的商户icon" opacity="0.869808" transform="translate(27.000000, 42.000000)">
                    <rect id="矩形" fill-opacity="0" fill="#D8D8D8" x="0" y="0" width="36" height="36"></rect>
                    <g id="编组-11" transform="translate(0.000000, 1.285714)" fill-rule="nonzero">
                        <g id="个体商户">
                            <g id="编组-8">
                                <rect id="矩形" fill-opacity="0.8" fill="url(#linearGradient-4)" x="4.1978022" y="9.54545455" width="28" height="23" rx="3.85714293"></rect>
                                <path d="M3.08489151,0.0470764632 L0,8.4810059 C0,11.0014073 1.99780022,13.4566259 4.47075292,13.4566259 C6.93650635,13.4566259 8.09559044,10.1359246 9.04589541,9.84622333 C10.2373763,9.51306682 10.9861014,13.2248649 13.1494851,13.253835 C15.3164684,13.2828051 16.4683532,12.1638338 17.7390261,9.92589119 C18.5273473,9.08937866 18.8981102,10.5922042 19.2328767,11.2259258 C19.5676432,11.8632687 20.6151385,13.5580214 22.6561344,13.4747323 C25.1074893,13.3733368 25.3990601,12.0262257 26.8245175,9.7846618 C28.3615638,8.88296647 27.8828117,13.757191 31.4932507,13.634068 C33.9626037,13.634068 36,11.0557263 36,8.4810059 L32.8071193,0.0579402624 L3.08489151,0.054318996 L3.08489151,0.0470764632 Z M31.3672633,0 L31.6660334,0.315050177 L31.3672633,0 L31.3672633,0 Z" id="形状" fill="#FED0AA"></path>
                            </g>
                            <path d="M18.5142857,14.4 C22.0659369,14.4 24.9428571,17.2769202 24.9428571,20.8285714 C24.9428571,24.3760832 22.0659369,27.2571429 18.5142857,27.2571429 C14.9626345,27.2571429 12.0857143,24.3802226 12.0857143,20.8285714 C12.0857143,17.2769202 14.9626345,14.4 18.5142857,14.4 Z M18.6311329,16.4919421 C17.4603677,16.4919421 16.5073104,17.3983606 16.5073104,18.5130565 C16.5073104,19.135153 16.8044243,19.7143092 17.3226233,20.1016634 L17.4553486,20.2008533 L17.2987364,20.2603612 C15.9185662,20.7854808 15.0266048,22.0352066 15.0266048,23.444706 L15.0266048,23.9461578 C15.0299391,24.0929334 15.1524751,24.2092905 15.3004205,24.2062278 L21.9623411,24.2062278 C22.1134385,24.2062278 22.2361568,24.0893331 22.2361568,23.9461578 L22.2361568,23.444706 C22.2361568,22.0352066 21.3442263,20.7854808 19.9640561,20.2603612 L19.8080016,20.2008533 L19.9402002,20.1016634 C20.4583682,19.7143092 20.7555131,19.1351838 20.7555131,18.5130565 C20.7555131,17.3983606 19.8030135,16.4919421 18.6311329,16.4919421 Z M19.2648005,20.5518757 L18.8410335,20.957949 L19.2648314,22.9884384 L18.6294599,23.5973792 L17.9940884,22.9884384 L18.4178553,20.957949 L17.9940884,20.5518757 L19.2648005,20.5518757 Z" id="形状结合" fill="#FFFFFF" opacity="0.742439633"></path>
                        </g>
                    </g>
                </g>
            </g>
        </g>
    </g>
</svg>