<?xml version="1.0" encoding="UTF-8"?>
<svg width="63px" height="84px" viewBox="0 0 63 84" version="1.1" xmlns="http://www.w3.org/2000/svg" xmlns:xlink="http://www.w3.org/1999/xlink">
    <title>机构-政策管理背景</title>
    <defs>
        <rect id="path-1" x="0" y="0" width="63" height="84" rx="4"></rect>
        <polygon id="path-3" points="0 0 68 0 68 72 0 72"></polygon>
        <linearGradient x1="50%" y1="0%" x2="50%" y2="100%" id="linearGradient-5">
            <stop stop-color="#C3D0F0" stop-opacity="0.294785293" offset="0%"></stop>
            <stop stop-color="#E7ECF9" offset="100%"></stop>
        </linearGradient>
        <linearGradient x1="50%" y1="31.9417614%" x2="50%" y2="100%" id="linearGradient-6">
            <stop stop-color="#92A6D9" offset="0%"></stop>
            <stop stop-color="#D0DAF4" offset="100%"></stop>
        </linearGradient>
        <linearGradient x1="50%" y1="0%" x2="50%" y2="100%" id="linearGradient-7">
            <stop stop-color="#A9BDF2" offset="0%"></stop>
            <stop stop-color="#D0DAF4" offset="100%"></stop>
        </linearGradient>
    </defs>
    <g id="界面设计-首页/一级页" stroke="none" stroke-width="1" fill="none" fill-rule="evenodd">
        <g id="机构首页" transform="translate(-301.000000, -421.000000)">
            <g id="机构-政策管理背景" transform="translate(301.000000, 421.000000)">
                <g id="zhengce2-2">
                    <mask id="mask-2" fill="white">
                        <use xlink:href="#path-1"></use>
                    </mask>
                    <use id="蒙版" fill-opacity="0" fill="#D8D8D8" xlink:href="#path-1"></use>
                    <g mask="url(#mask-2)" id="编组">
                        <g transform="translate(1.000000, -6.000000)">
                            <mask id="mask-4" fill="white">
                                <use xlink:href="#path-3"></use>
                            </mask>
                            <g id="Clip-2"></g>
                            <path d="M68,0 L46.4025776,0 L7.35950144,0 C3.30753597,0 -0.00584783587,3.26382847 -0.00584783587,7.29877541 L-0.00584783587,64.701128 C-0.00584783587,68.7165652 3.28775079,72 7.35950144,72 L60.6346507,72 C64.6866162,72 68,68.7361715 68,64.701128 L68,20.6306063 C68,9.51403471 68,2.63716593 68,0 Z M46.1631088,59.1627705 L22.2704108,59.1627705 C20.9526985,59.1627705 19.8748448,58.094273 19.8748448,56.7888575 C19.8748448,55.4835386 20.9526985,54.4154275 22.2704108,54.4154275 L46.1631088,54.4154275 C47.4804312,54.4154275 48.5581874,55.4835386 48.5581874,56.7888575 C48.5581874,58.094273 47.5006063,59.1627705 46.1631088,59.1627705 Z M49.3566119,28.4440724 L43.2289571,34.3778406 L44.6661602,42.7251208 C44.8256112,43.6155193 44.4464765,44.5251377 43.7078949,45.0393455 C42.9693132,45.5735459 41.9911652,45.6328479 41.1928381,45.2174445 L33.6279802,41.2813019 L26.0627324,45.2174445 C25.7032854,45.3955435 25.3241507,45.4943479 24.9449185,45.4943479 C24.4458058,45.4943479 23.9470828,45.3362416 23.5278905,45.0393455 C22.7893088,44.5055314 22.4298618,43.6155193 22.5696251,42.7251208 L24.0068282,34.3778406 L17.8787835,28.4636788 C17.2201223,27.8305774 17.0004386,26.8813599 17.2798677,26.030657 C17.5593942,25.180244 18.3181509,24.5471426 19.2162811,24.4087391 L27.679659,23.1825217 L31.4719806,15.5868502 C31.8712903,14.7756498 32.709675,14.2614421 33.6279802,14.2614421 C34.5458955,14.2614421 35.3643976,14.7756498 35.7835899,15.5868502 L39.5759115,23.1825217 L48.0392894,24.4087391 C48.9374196,24.5471426 49.6961763,25.1602513 49.9756054,26.030657 C50.2348594,26.8813599 50.0155656,27.810971 49.3566119,28.4440724 Z" id="Fill-3" fill="url(#linearGradient-5)" mask="url(#mask-4)"></path>
                        </g>
                    </g>
                </g>
                <g id="编组-13" transform="translate(22.000000, 44.000000)">
                    <path d="M4.96052972,24.0802927 C4.96052972,23.4468014 4.40510325,22.9334348 3.72037387,22.9334348 L1.24010901,22.9334348 C0.555192309,22.9334348 0,23.4468014 0,24.0802927 C0,24.7134376 0.555192309,25.2268475 1.24010901,25.2268475 L3.72037387,25.2268475 C4.40510325,25.2268475 4.96052972,24.7134376 4.96052972,24.0802927 Z" id="路径" fill="#92A6D9"></path>
                    <path d="M0.0517492621,14.9069881 C0.0517492621,15.540133 0.606988403,16.0535429 1.29190511,16.0535429 L3.72037387,16.0535429 C4.40510325,16.0535429 4.96052972,15.540133 4.96052972,14.9069881 C4.96052972,14.2734967 4.40510325,13.7601301 3.72037387,13.7601301 L1.29190511,13.7601301 C0.606988403,13.7601301 0.0517492621,14.2734967 0.0517492621,14.9069881 Z" id="路径" fill="#92A6D9"></path>
                    <path d="M29.762429,1.21826592 L27.2823515,1.14685794 C27.2823515,0.513366596 26.7271123,0 26.0421956,0 L3.77198264,0 C3.08725326,0 2.53201412,0.513366596 2.53201412,1.14685794 L2.53201412,3.36873282 L3.77198264,3.36873282 C3.77198264,3.36873282 6.24053952,3.58390942 6.24053952,5.66249201 C6.24053952,5.66249201 6.26667172,7.95993203 3.70885322,7.95993203 L2.53201412,8.02657658 L2.55763118,12.541691 L3.71489454,12.5415178 C3.71489454,12.5415178 6.26742103,12.5413446 6.26742103,14.9780496 C6.26742103,14.9780496 6.02979592,17.2004008 3.70463835,17.2004008 L2.53735296,17.2009205 L2.5161381,21.7153421 L3.75184492,21.7153421 C3.75184492,21.7153421 6.22644311,21.7868799 6.22644311,24.0802927 C6.22644311,24.0802927 6.22185359,26.4450701 3.66422241,26.4450701 L2.54756231,26.3731858 L2.53201412,28.6671182 C2.53201412,28.6671182 3.95289431,32.1070425 6.12308508,32.1070425 L29.8399826,32.1070425 C29.8399826,32.1070425 31.002538,31.8922123 31.002538,31.0320689 L31.002538,2.36495065 C31.002538,2.36495065 30.7700176,1.21826592 29.762429,1.21826592 Z" id="路径" fill="url(#linearGradient-6)"></path>
                    <path d="M27.5481627,1.2575285 L27.2823515,1.14685794 C27.2823515,0.513366596 26.7271123,0 26.0421956,0 L3.77198264,0 C3.08725326,0 2.53201412,0.513366596 2.53201412,1.14685794 L2.53201412,3.36873282 L3.77198264,3.36873282 C3.77198264,3.36873282 6.24053952,3.58390942 6.24053952,5.66249201 C6.24053952,5.66249201 6.26667172,7.95993203 3.70885322,7.95993203 L2.53201412,8.02657658 L2.55763118,12.541691 L3.71489454,12.5415178 C3.71489454,12.5415178 6.26742103,12.5413446 6.26742103,14.9780496 C6.26742103,14.9780496 6.02979592,17.2004008 3.70463835,17.2004008 L2.53735296,17.2009205 L2.5161381,21.7153421 L3.75184492,21.7153421 C3.75184492,21.7153421 6.22644311,21.7868799 6.22644311,24.0802927 C6.22644311,24.0802927 6.22185359,26.4450701 3.66422241,26.4450701 L2.54756231,26.3731858 L2.53201412,28.6671182 C2.53201412,28.6671182 3.95289431,32.1070425 6.12308508,32.1070425 L27.6257163,32.1463051 C27.6257163,32.1463051 28.7882717,31.9314749 28.7882717,31.0713315 L28.7882717,2.40421323 C28.7882717,2.40421323 28.5557513,1.2575285 27.5481627,1.2575285 Z" id="路径" fill="url(#linearGradient-7)"></path>
                    <path d="M27.2823515,29.8136297 L6.2004514,29.8136297 C6.2004514,29.8136297 4.92156557,29.4193486 4.92156557,28.6310895 L26.0420083,28.6192242 C26.7271123,28.6192242 27.2823515,28.1058576 27.2823515,27.4725395 L27.2823515,2.18597602 L28.5611698,2.58030046 L28.5611698,28.7386561 C28.5611698,28.7386561 28.5998268,29.8136297 27.2823515,29.8136297 Z" id="路径" fill="#E4EAF8"></path>
                    <path d="M1.24010901,6.88006507 L3.72037387,6.88006507 C4.40510325,6.88006507 4.96052972,6.36665517 4.96052972,5.73333704 C4.96052972,5.1000189 4.40510325,4.58665231 3.72037387,4.58665231 L1.24010901,4.58665231 C0.555192309,4.58665231 0,5.1000189 0,5.73333704 C0,6.36665517 0.555192309,6.88006507 1.24010901,6.88006507 Z" id="路径" fill="#92A6D9"></path>
                    <path d="M16.1552231,18.5405425 L13.8432397,19.7204978 C13.3513175,19.9715577 12.7490116,19.7763002 12.4979518,19.284378 C12.3990837,19.0906576 12.3660672,18.8699855 12.4039069,18.6558111 L12.8308137,16.2395047 C12.8892985,15.9084787 12.7775535,15.5702161 12.5333885,15.3391705 L10.7468187,13.6485954 C10.3456659,13.2689971 10.3281925,12.6360733 10.7077908,12.2349205 C10.8634194,12.0704549 11.0702564,11.9636741 11.2944636,11.9320471 L13.8164484,11.5762924 C14.1396519,11.5307009 14.4202646,11.3302425 14.5681859,11.0392815 L15.7183911,8.77682955 C15.9686787,8.28451407 16.5706775,8.08831177 17.062993,8.33859944 C17.2517916,8.43458252 17.40524,8.58803097 17.5012231,8.77682955 L18.6514283,11.0392815 C18.7993497,11.3302425 19.0799623,11.5307009 19.4031658,11.5762924 L21.9251506,11.9320471 C22.4720212,12.0091895 22.8528112,12.515052 22.7756689,13.0619226 C22.7440419,13.2861299 22.6372611,13.4929668 22.4727955,13.6485954 L20.6862257,15.3391705 C20.4420607,15.5702161 20.3303158,15.9084787 20.3888006,16.2395047 L20.8157073,18.6558111 C20.9117953,19.1996728 20.5488031,19.7184546 20.0049414,19.8145427 C19.790767,19.8523824 19.570095,19.8193659 19.3763746,19.7204978 L17.0643911,18.5405425 C16.7788539,18.3948144 16.4407603,18.3948144 16.1552231,18.5405425 Z" id="星形" fill="#E3EAF8"></path>
                </g>
            </g>
        </g>
    </g>
</svg>