<svg t="1710560431859" class="icon" viewBox="0 0 1024 1024" version="1.1" xmlns="http://www.w3.org/2000/svg" p-id="2759" width="128" height="128"><path d="M499.201024 977.1008a470.5792 470.5792 0 0 1-334.848-138.5984A470.528 470.528 0 0 1 25.601024 503.5008a470.528 470.528 0 0 1 138.752-334.9504A470.4256 470.4256 0 0 1 499.201024 29.9008a470.528 470.528 0 0 1 334.848 138.6496 470.528 470.528 0 0 1 138.752 334.8992c0 126.464-49.3056 245.5552-138.752 335.0016a470.4768 470.4768 0 0 1-334.848 138.6496z m0-894.5664a418.2016 418.2016 0 0 0-297.728 123.392 418.2016 418.2016 0 0 0-123.2384 297.6256c0 112.4352 43.7248 218.112 123.1872 297.5744a418.4576 418.4576 0 0 0 297.7792 123.392 418.0992 418.0992 0 0 0 297.7792-123.392 418.048 418.048 0 0 0 123.1872-297.6256c0-112.4352-43.7248-218.112-123.1872-297.5744a418.5088 418.5088 0 0 0-297.728-123.392zM262.247424 477.184h474.0096a26.112 26.112 0 0 1 26.112 26.112v0.4096a26.112 26.112 0 0 1-26.112 26.112H262.145024a26.112 26.112 0 0 1-26.112-26.112V503.296a26.112 26.112 0 0 1 26.112-26.112z m236.8-236.8h0.4096a26.112 26.112 0 0 1 26.112 26.112v474.0096a26.112 26.112 0 0 1-26.112 26.112h-0.4096a26.112 26.112 0 0 1-26.112-26.112V266.496a26.112 26.112 0 0 1 26.112-26.112z" fill="#000" p-id="2760"></path></svg>