<?xml version="1.0" encoding="UTF-8"?>
<svg width="7px" height="14px" viewBox="0 0 7 14" version="1.1" xmlns="http://www.w3.org/2000/svg" xmlns:xlink="http://www.w3.org/1999/xlink">
    <title>直线</title>
    <g id="界面设计-机具管理" stroke="none" stroke-width="1" fill="none" fill-rule="evenodd">
        <g id="号段修改活动" transform="translate(-42.000000, -233.000000)" fill="#7A7E8D" fill-rule="nonzero">
            <g id="编组-8" transform="translate(23.000000, 192.000000)">
                <path d="M23,42.1805778 L23,50.6516088 L23,50.6516088 L24.3839258,50.6516088 C24.9362105,50.6516088 25.3839258,51.099324 25.3839258,51.6516088 C25.3839258,51.9359971 25.2628404,52.2069337 25.0509646,52.3966317 L23.1670388,54.0833604 C22.7873233,54.4233297 22.2126767,54.4233297 21.8329612,54.0833604 L19.9490354,52.3966317 C19.5375706,52.0282364 19.5026559,51.3960348 19.8710512,50.98457 C20.0607493,50.7726941 20.3316859,50.6516088 20.6160742,50.6516088 L22,50.6516088 L22,50.6516088 L22,42.1805778 C22,41.9044355 22.2238576,41.6805778 22.5,41.6805778 C22.7761424,41.6805778 23,41.9044355 23,42.1805778 Z" id="直线"></path>
            </g>
        </g>
    </g>
</svg>