<?xml version="1.0" encoding="UTF-8"?>
<svg width="14px" height="14px" viewBox="0 0 14 14" version="1.1" xmlns="http://www.w3.org/2000/svg" xmlns:xlink="http://www.w3.org/1999/xlink">
    <title>批量审核</title>
    <defs>
        <polygon id="path-1" points="0 0 14 0 14 14 0 14"></polygon>
    </defs>
    <g id="界面设计-资金展示相关-提现" stroke="none" stroke-width="1" fill="none" fill-rule="evenodd">
        <g id="机构提现审核列表：提现审核/待审核" transform="translate(-148.000000, -749.000000)">
            <g id="置底按钮-/-主次按钮" transform="translate(0.000000, 733.000000)">
                <g id="主按钮" transform="translate(148.000000, 14.000000)">
                    <g id="批量审核" transform="translate(0.000000, 2.000000)">
                        <mask id="mask-2" fill="white">
                            <use xlink:href="#path-1"></use>
                        </mask>
                        <g id="Clip-2"></g>
                        <path d="M8.61563148,14 C8.02077519,14 7.53856596,13.5178095 7.53856596,12.9230139 L7.53856596,8.61602633 C7.53829299,8.33018127 7.65165836,8.05600858 7.85367535,7.85380131 C8.05569234,7.65159404 8.32976547,7.53803189 8.61563148,7.53803189 L12.9229345,7.53803189 C13.2087321,7.53803189 13.4828565,7.65159404 13.6848906,7.85380131 C13.8869076,8.05600858 14.000273,8.33018127 14,8.61602633 L14,12.9230139 C14,13.5178095 13.5177737,14 12.9229345,14 L8.61563148,14 Z M8.57264732,8.61602633 L8.57264732,12.9230139 C8.57264732,12.9467688 8.59187482,12.9659949 8.61563148,12.9659949 L12.9229345,12.9659949 C12.9465031,12.9654651 12.9653888,12.9465808 12.9659186,12.9230139 L12.9659186,8.61602633 C12.9659186,8.59227142 12.9466911,8.57304532 12.9229345,8.57304532 L8.61563148,8.57304532 C8.59187482,8.57304532 8.57264732,8.59227142 8.57264732,8.61602633 Z M1.07605665,14 C0.481200365,14 -0.00102596052,13.5178095 -0.00102596052,12.9230139 L-0.00102596052,8.61602633 C-0.0012989248,8.33018127 0.112066446,8.05600858 0.314100526,7.85380131 C0.516117515,7.65159404 0.790241921,7.53803189 1.07605665,7.53803189 L5.38435094,7.53803189 C5.67021694,7.53803189 5.94434135,7.65159404 6.14637543,7.85380131 C6.34839242,8.05600858 6.46175779,8.33018127 6.46148482,8.61602633 L6.46148482,12.9230139 C6.46148482,13.5178095 5.9792585,14 5.38435094,14 L1.07605665,14 Z M1.0330554,8.61602633 L1.0330554,12.9230139 C1.0330554,12.9467688 1.05228291,12.9659949 1.07605665,12.9659949 L5.38435094,12.9659949 C5.40791959,12.9654651 5.42687364,12.9465808 5.42740346,12.9230139 L5.42740346,8.61602633 C5.42740346,8.59227142 5.40810759,8.57304532 5.38435094,8.57304532 L1.07605665,8.57304532 C1.05228291,8.57304532 1.0330554,8.59227142 1.0330554,8.61602633 Z M8.61563148,6.46203746 C8.32976547,6.4623104 8.0555727,6.34895333 7.85335062,6.14695114 C7.65112854,5.94493186 7.53755807,5.67082753 7.53755807,5.38498246 L7.53755807,1.07700372 C7.53755807,0.791209928 7.65112854,0.517105599 7.85335062,0.315086316 C8.0555727,0.113084124 8.32976547,-0.000272944285 8.61563148,-1.59872116e-14 L12.9229345,-1.59872116e-14 C13.5177737,-1.59872116e-14 13.9999995,0.482191007 13.9999995,1.07700372 L13.9999995,5.38498246 C13.9999995,5.97984645 13.5177737,6.46203746 12.9229345,6.46203746 L8.61563148,6.46203746 Z M8.57264732,1.07700372 L8.57264732,5.38498246 C8.57264732,5.40873737 8.59187482,5.42803183 8.61563148,5.42803183 L12.9229345,5.42803183 C12.9465031,5.42750204 12.9653888,5.40854939 12.9659186,5.38498246 L12.9659186,1.07700372 C12.9659186,1.05323172 12.9466911,1.03400563 12.9229345,1.03400563 L8.61563148,1.03400563 C8.59187482,1.03400563 8.57264732,1.05323172 8.57264732,1.07700372 Z M2.25313889,5.34198437 L0.214014952,3.30001905 C0.0310203752,3.09432545 0.0408990401,2.78144422 0.23650686,2.58771352 C0.432131772,2.39398282 0.745104284,2.3871127 0.94906966,2.57202503 L2.61818803,4.24602848 L5.74740042,1.11899352 C5.95068215,0.924254519 6.27242241,0.92792884 6.47117499,1.12726501 C6.66997885,1.32660119 6.67271343,1.64830079 6.47744743,1.85098657 L2.98518556,5.34198437 C2.78262165,5.54405492 2.45476278,5.54405492 2.25213051,5.34198437 L2.25313889,5.34198437 Z" id="Fill-1" fill="#323233" mask="url(#mask-2)"></path>
                    </g>
                </g>
            </g>
        </g>
    </g>
</svg>