<svg t="1710560388339" class="icon" viewBox="0 0 1024 1024" version="1.1" xmlns="http://www.w3.org/2000/svg" p-id="2461" width="128" height="128"><path d="M638.789818 113.757091a46.545455 46.545455 0 0 1 38.725818 20.759273l62.045091 93.044363h181.015273a46.545455 46.545455 0 0 1 46.545455 46.545455v589.591273a46.545455 46.545455 0 0 1-46.545455 46.545454H103.424a46.545455 46.545455 0 0 1-46.545455-46.545454V274.106182a46.545455 46.545455 0 0 1 46.545455-46.545455h181.061818l61.998546-93.090909a46.545455 46.545455 0 0 1 38.725818-20.712727h253.579636zM512 341.364364a227.560727 227.560727 0 1 0 0 455.074909 227.560727 227.560727 0 0 0 0-455.121455z m0 113.757091a113.757091 113.757091 0 1 1 0 227.560727 113.757091 113.757091 0 0 1 0-227.607273z" fill="#000" p-id="2462"></path></svg>