<svg t="1710577217841" class="icon" viewBox="0 0 1024 1024" version="1.1" xmlns="http://www.w3.org/2000/svg" p-id="3670" width="128" height="128"><path d="M512 42.666667c259.2 0 469.333333 210.133333 469.333333 469.333333s-210.133333 469.333333-469.333333 469.333333S42.666667 771.2 42.666667 512 252.8 42.666667 512 42.666667z m280.96 297.898666a19.584 19.584 0 0 0-24.021333-0.853333l-310.656 235.221333a22.314667 22.314667 0 0 1-22.656 1.024l-117.589334-73.258666a18.602667 18.602667 0 0 0-23.338666 3.626666l-13.568 16c-5.802667 6.826667-4.736 16.384 1.834666 22.528l145.322667 135.424c10.666667 9.941333 27.733333 10.368 38.101333 0.725334l333.397334-310.741334c6.997333-6.485333 7.466667-16.341333 0.853333-22.570666z" fill="#000" p-id="3671"></path></svg>