<svg t="1710213513207" class="icon" viewBox="0 0 1024 1024" version="1.1" xmlns="http://www.w3.org/2000/svg" p-id="1527" xmlns:xlink="http://www.w3.org/1999/xlink" width="128" height="128"><path d="M512 42.666667c259.242667 0 469.333333 210.090667 469.333333 469.333333s-210.218667 469.333333-469.333333 469.333333S42.666667 771.114667 42.666667 512 252.757333 42.666667 512 42.666667z m0 42.666666C276.352 85.333333 85.333333 276.394667 85.333333 512c0 235.562667 191.104 426.666667 426.666667 426.666667 235.605333 0 426.666667-191.018667 426.666667-426.666667 0-235.690667-190.976-426.666667-426.666667-426.666667z" fill="#CCCCCC" p-id="1528"></path><path d="M512 512m-426.666667 0a426.666667 426.666667 0 1 0 853.333334 0 426.666667 426.666667 0 1 0-853.333334 0Z" fill="#000" p-id="1529"></path></svg>