<?xml version="1.0" encoding="UTF-8"?>
<svg width="14px" height="14px" viewBox="0 0 14 14" version="1.1" xmlns="http://www.w3.org/2000/svg" xmlns:xlink="http://www.w3.org/1999/xlink">
    <title>单选框已选中</title>
    <g id="界面设计-我的政策" stroke="none" stroke-width="1" fill="none" fill-rule="evenodd">
        <g id="制定政策列表" transform="translate(-331.000000, -129.000000)">
            <g id="单选框已选中" transform="translate(331.000000, 129.000000)">
                <rect id="矩形" x="0" y="0" width="14" height="14"></rect>
                <path d="M7,0.583333333 C10.5438271,0.583333333 13.4166667,3.45617286 13.4166667,7 C13.4166667,10.5438271 10.5438271,13.4166667 7,13.4166667 C3.45617286,13.4166667 0.583333333,10.5438271 0.583333333,7 C0.583333333,3.45617286 3.45617286,0.583333333 7,0.583333333 Z M10.8412206,4.65622749 C10.7575496,4.57824998 10.6080169,4.57208928 10.5125564,4.64437318 L6.26545582,7.86033106 C6.18629776,7.92027054 6.04038666,7.927149 5.95560404,7.87433348 L4.34832675,6.8730765 C4.24768727,6.81038291 4.10530127,6.83287753 4.02918397,6.92244016 L3.84348541,7.14094044 C3.76406508,7.23438954 3.77863417,7.36495615 3.86873542,7.44892636 L5.85576378,9.30074521 C6.00175694,9.4368041 6.23460857,9.442587 6.37643202,9.31041408 L10.9348213,5.06220538 C11.0302617,4.97325934 11.0368802,4.8385732 10.9458368,4.75372501 Z" id="checked" fill="#CDCDCD"></path>
            </g>
        </g>
    </g>
</svg>