<svg t="1711176304416" class="icon" viewBox="0 0 1024 1024" version="1.1" xmlns="http://www.w3.org/2000/svg" p-id="3652" width="128" height="128"><path d="M0 0m256 0l512 0q256 0 256 256l0 512q0 256-256 256l-512 0q-256 0-256-256l0-512q0-256 256-256Z" fill="#1E2B4F" p-id="3653"></path><path d="M753.28 336.256l-269.568 373.76a40.704 40.704 0 0 1-66.176 0L257.92 488.832a10.24 10.24 0 0 1 8.32-16.256h60.032c13.056 0 25.472 6.272 33.152 17.024L450.56 616.064l201.216-279.04A40.96 40.96 0 0 1 684.928 320h60.032a10.24 10.24 0 0 1 8.32 16.256z" fill="#FFFFFF" p-id="3654"></path></svg>