<?xml version="1.0" encoding="UTF-8"?>
<svg width="13px" height="13px" viewBox="0 0 13 13" version="1.1" xmlns="http://www.w3.org/2000/svg" xmlns:xlink="http://www.w3.org/1999/xlink">
    <title>弹窗关闭</title>
    <defs>
        <polygon id="path-1" points="0 0 13 0 13 13 0 13"></polygon>
    </defs>
    <g id="特殊需求-购优惠券" stroke="none" stroke-width="1" fill="none" fill-rule="evenodd">
        <g id="赠券已填写状态" transform="translate(-349.000000, -295.000000)">
            <g id="编组-8" transform="translate(0.000000, 282.000000)">
                <g id="弹窗关闭" transform="translate(349.000000, 13.000000)">
                    <mask id="mask-2" fill="white">
                        <use xlink:href="#path-1"></use>
                    </mask>
                    <g id="Clip-2"></g>
                    <path d="M11.4998916,12.7426816 C11.6643954,12.9073876 11.8880307,13 12.1212583,13 C12.3545497,13 12.578185,12.9073876 12.7426251,12.7426816 C13.0851448,12.3988445 13.0851448,11.8442173 12.7426251,11.5003644 L7.74273869,6.50040466 L7.8005636,6.44281548 L12.7426251,1.50044495 C12.9082602,1.33554851 13.000933,1.11158705 13,0.878326267 C13.0010605,0.52387271 12.7871928,0.203823491 12.4584879,0.0679358739 C12.1297831,-0.0679993506 11.7512204,0.00712525284 11.4998916,0.258127757 L6.5,5.25808747 L1.50097922,0.258127757 C1.3367941,0.0929298009 1.11303131,0 0.879612458,0 C0.646209536,0 0.42251049,0.0929298009 0.258245695,0.258127757 C0.0924990269,0.422643338 -0.000428733924,0.646239803 0,0.879246679 C0,1.11418959 0.0913677047,1.33424723 0.257305582,1.50044495 L5.25813209,6.50040466 L0.257305582,11.5003644 C-0.0851504253,11.8442173 -0.0851504253,12.3988445 0.257305582,12.7426816 C0.421825323,12.9073876 0.645460632,13 0.878688279,13 C1.11196373,13 1.33559904,12.9073876 1.50005504,12.7426816 L6.5,7.74272185 L11.4998916,12.7426816 Z" id="Fill-1" fill="#323233" mask="url(#mask-2)"></path>
                </g>
            </g>
        </g>
    </g>
</svg>