<svg t="1710576639188" class="icon" viewBox="0 0 1024 1024" version="1.1" xmlns="http://www.w3.org/2000/svg" p-id="2014" width="128" height="128"><path d="M703.386624 895.2832c0 35.2256-28.672 63.7952-64 63.7952H127.898624a63.8976 63.8976 0 0 1-63.8976-63.7952v-510.976c0-35.328 28.672-63.8976 63.8976-63.8976h63.8976v-63.8976H128.001024A127.7952 127.7952 0 0 0 0.001024 384.3072v510.976a127.6928 127.6928 0 0 0 127.8976 127.7952h511.3856A127.6928 127.6928 0 0 0 766.977024 895.3856V831.488h-63.8976v63.7952h0.2048zM894.977024 0.9216H383.693824a127.7952 127.7952 0 0 0-127.8976 127.7952v510.976c0 70.4512 57.2416 127.5904 127.8976 127.5904h511.488c70.656 0 127.7952-57.1392 127.7952-127.5904v-510.976C1022.977024 58.1632 965.633024 1.024 895.079424 1.024z m64 638.7712a63.7952 63.7952 0 0 1-63.8976 63.8976H383.693824a63.8976 63.8976 0 0 1-63.8976-63.8976v-510.976c0-35.2256 28.672-63.7952 63.8976-63.7952h511.488c35.328 0 63.8976 28.672 63.8976 63.7952v510.976z" fill="#576B95" p-id="2015"></path></svg>