<svg t="1711177166368" class="icon" viewBox="0 0 1024 1024" version="1.1" xmlns="http://www.w3.org/2000/svg" p-id="8223" width="128" height="128"><path d="M0 0h1024v1024H0z" fill="#D8D8D8" fill-opacity="0" p-id="8224"></path><path d="M484.00384 942.08C261.9392 942.08 81.92 762.0608 81.92 540.01664c0-185.15968 125.1328-341.0944 295.44448-387.80928l0.02048 387.80928a106.5984 106.5984 0 0 0 106.5984 106.5984h387.80928C825.07776 816.92672 669.14304 942.08 484.00384 942.08z" fill="#C13C1E" p-id="8225"></path><path d="M438.82496 106.5984c0-24.94464 20.21376-45.1584 45.1584-45.1584A478.57664 478.57664 0 0 1 962.56 540.01664a45.1584 45.1584 0 0 1-45.1584 45.1584H483.98336a45.1584 45.1584 0 0 1-45.1584-45.1584V106.5984z" fill="#C13C1E" p-id="8226"></path><path d="M483.98336 0A540.01664 540.01664 0 0 1 1024 540.01664a106.5984 106.5984 0 0 1-106.5984 106.5984H483.98336a106.5984 106.5984 0 0 1-106.5984-106.5984V106.5984A106.5984 106.5984 0 0 1 483.98336 0z m0 61.44a45.1584 45.1584 0 0 0-45.1584 45.1584v433.41824c0 24.94464 20.21376 45.1584 45.1584 45.1584h433.41824A45.1584 45.1584 0 0 0 962.56 540.01664 478.57664 478.57664 0 0 0 483.98336 61.44z" fill="#F8DAA4" p-id="8227"></path></svg>