<svg t="1711178873622" class="icon" viewBox="0 0 1024 1024" version="1.1" xmlns="http://www.w3.org/2000/svg" p-id="11415" width="128" height="128"><path d="M0 0h1024v1024H0z" fill="#D8D8D8" fill-opacity="0" p-id="11416"></path><path d="M484.00384 942.08C261.9392 942.08 81.92 762.0608 81.92 540.01664c0-185.15968 125.1328-341.0944 295.44448-387.80928l0.02048 387.80928a106.5984 106.5984 0 0 0 106.5984 106.5984h387.80928C825.07776 816.92672 669.14304 942.08 484.00384 942.08z" fill="#323233" p-id="11417"></path><path d="M438.82496 106.5984c0-24.94464 20.21376-45.1584 45.1584-45.1584A478.57664 478.57664 0 0 1 962.56 540.01664a45.1584 45.1584 0 0 1-45.1584 45.1584H483.98336a45.1584 45.1584 0 0 1-45.1584-45.1584V106.5984z" fill="#323233" p-id="11418"></path></svg>