<svg t="1711177534105" class="icon" viewBox="0 0 1024 1024" version="1.1" xmlns="http://www.w3.org/2000/svg" p-id="9830" width="128" height="128"><path d="M0 0h1024v1024H0z" fill="#D8D8D8" fill-opacity="0" p-id="9831"></path><path d="M34.133333 68.266667h921.6v921.6H34.133333z" fill="#D8D8D8" fill-opacity="0" p-id="9832"></path><path d="M493.704533 986.2144C730.043733 986.2144 921.6 942.011733 921.6 887.466667c0-54.545067-191.556267-98.747733-427.895467-98.747734C257.399467 788.718933 65.877333 832.9216 65.877333 887.466667c0 54.545067 191.556267 98.747733 427.861334 98.747733z" fill="#CED4EA" p-id="9833"></path><path d="M819.131733 168.2432c-4.539733 0-9.454933 0.750933-13.994666 2.628267l-312.661334 60.416a36.7616 36.7616 0 0 1-13.994666 2.6624c-4.539733 0-9.454933-0.750933-13.994667-2.628267l-312.661333-60.416a36.7616 36.7616 0 0 0-13.994667-2.6624c-20.0704 0-37.888 16.622933-37.888 38.980267v538.965333c0 15.940267 9.489067 30.3104 23.893333 36.352l340.650667 105.949867c4.539733 1.877333 9.454933 2.628267 13.994667 2.628266 4.9152 0 9.454933-0.750933 13.994666-2.628266l340.650667-105.949867c14.404267-6.0416 23.893333-20.036267 23.893333-36.317867V207.189333c0-22.357333-17.8176-38.980267-37.888-38.980266z m-87.825066 465.885867l-164.625067 76.8a30.344533 30.344533 0 0 1-40.516267-14.370134 30.481067 30.481067 0 0 1 14.779734-40.106666l164.625066-76.834134a26.760533 26.760533 0 0 1 12.868267-3.072 30.72 30.72 0 0 1 27.648 17.442134c6.826667 15.1552 0.375467 32.938667-14.779733 40.1408z m0-123.8016l-164.625067 76.834133a30.344533 30.344533 0 0 1-40.516267-14.370133 30.481067 30.481067 0 0 1 14.779734-40.106667l164.625066-76.868267a26.760533 26.760533 0 0 1 12.868267-3.003733 30.72 30.72 0 0 1 27.648 17.408c6.826667 15.121067 0.375467 32.938667-14.779733 40.106667z m0-123.767467l-164.625067 76.834133a30.344533 30.344533 0 0 1-40.516267-14.370133 30.481067 30.481067 0 0 1 14.779734-40.1408l164.625066-76.8a26.760533 26.760533 0 0 1 12.868267-3.072 30.72 30.72 0 0 1 27.648 17.408c6.826667 15.1552 0.375467 32.938667-14.779733 40.1408z" fill="#627FD2" p-id="9834"></path><path d="M414.6176 452.573867a10.5472 10.5472 0 0 1-2.730667 5.5296l-41.096533 39.901866c-2.389333 1.979733-3.1744 5.12-2.7648 8.2944l9.454933 56.456534c0.8192 5.12-2.3552 9.898667-7.509333 10.683733h-1.570133c-1.570133 0-2.730667-0.4096-4.334934-0.785067l-50.551466-26.862933a9.0112 9.0112 0 0 0-4.334934-1.194667 7.953067 7.953067 0 0 0-4.369066 1.194667l-50.517334 26.862933a7.953067 7.953067 0 0 1-4.369066 1.160534 9.659733 9.659733 0 0 1-8.2944-5.12 10.3424 10.3424 0 0 1-0.785067-5.9392l9.454933-56.081067a9.4208 9.4208 0 0 0-2.730666-8.2944l-40.686934-40.277333a9.284267 9.284267 0 0 1 0-13.038934 9.4208 9.4208 0 0 1 5.12-2.730666l56.490667-8.328534a9.557333 9.557333 0 0 0 7.099733-5.12l25.258667-51.746133a9.352533 9.352533 0 0 1 8.328533-5.5296c1.570133 0 2.730667 0.375467 3.925334 0.785067a10.0352 10.0352 0 0 1 4.369066 4.744533l25.668267 51.336533a8.874667 8.874667 0 0 0 7.099733 5.12l56.490667 8.328534c5.12 0.785067 8.669867 5.5296 7.8848 10.6496z" fill="#F8DAA4" p-id="9835"></path></svg>