<svg t="1711177497531" class="icon" viewBox="0 0 1024 1024" version="1.1" xmlns="http://www.w3.org/2000/svg" p-id="9667" width="128" height="128"><path d="M0 0h1024v1024H0z" fill="#D8D8D8" fill-opacity="0" p-id="9668"></path><path d="M68.266667 68.266667h921.6v921.6H68.266667z" fill="#D8D8D8" fill-opacity="0" p-id="9669"></path><path d="M102.4 894.7712a409.6 95.095467 0 1 0 819.2 0 409.6 95.095467 0 1 0-819.2 0Z" fill="#F7D7C3" p-id="9670"></path><path d="M667.511467 102.4H261.973333C208.145067 102.912 164.932267 147.797333 165.410133 202.717867v591.735466a100.488533 100.488533 0 0 0 27.921067 70.5536c18.090667 18.807467 42.8032 29.525333 68.608 29.764267h243.9168a246.613333 246.613333 0 0 1-43.281067-139.844267 247.534933 247.534933 0 0 1 93.696-194.082133 237.192533 237.192533 0 0 1 207.7696-43.349333V202.752C764.586667 147.797333 721.3056 102.912 667.511467 102.4zM310.3744 756.292267a15.018667 15.018667 0 0 1-4.1984 10.581333 14.4384 14.4384 0 0 1-10.274133 4.471467H256.136533a14.4384 14.4384 0 0 1-10.376533-4.437334 15.018667 15.018667 0 0 1-4.1984-10.581333v-36.693333a15.018667 15.018667 0 0 1 4.1984-10.6496c2.730667-2.798933 6.485333-4.437333 10.376533-4.437334H295.936c3.8912 0.068267 7.611733 1.672533 10.308267 4.471467a15.018667 15.018667 0 0 1 4.1984 10.581333v36.693334h-0.068267z m0-136.635734a15.018667 15.018667 0 0 1-4.1984 10.581334 14.4384 14.4384 0 0 1-10.274133 4.437333H256.136533a14.4384 14.4384 0 0 1-10.376533-4.437333 15.018667 15.018667 0 0 1-4.1984-10.581334v-36.693333a15.018667 15.018667 0 0 1 4.1984-10.615467c2.730667-2.833067 6.485333-4.437333 10.376533-4.437333H295.936c3.8912 0.034133 7.611733 1.6384 10.308267 4.437333a15.018667 15.018667 0 0 1 4.1984 10.615467v36.6592h-0.068267z m125.952 136.635734a15.018667 15.018667 0 0 1-4.232533 10.581333 14.4384 14.4384 0 0 1-10.274134 4.437333H381.098667a14.4384 14.4384 0 0 1-10.308267-4.437333 15.018667 15.018667 0 0 1-4.1984-10.581333v-36.6592a15.018667 15.018667 0 0 1 4.1984-10.581334 14.4384 14.4384 0 0 1 10.308267-4.471466h40.721066c3.857067 0 7.5776 1.6384 10.308267 4.437333a15.018667 15.018667 0 0 1 4.164267 10.581333v36.693334z m0-136.635734a15.018667 15.018667 0 0 1-4.1984 10.581334 14.4384 14.4384 0 0 1-10.308267 4.437333H381.098667a14.4384 14.4384 0 0 1-10.308267-4.437333 15.018667 15.018667 0 0 1-4.1984-10.581334v-36.693333a15.018667 15.018667 0 0 1 4.1984-10.581333 14.4384 14.4384 0 0 1 10.308267-4.437334h40.721066c3.857067 0 7.5776 1.604267 10.308267 4.437334a15.018667 15.018667 0 0 1 4.164267 10.581333v36.6592z m251.630933-207.9744c0.273067 28.910933-22.493867 52.5312-50.7904 52.804267H292.386133a50.7904 50.7904 0 0 1-36.1472-15.6672 52.906667 52.906667 0 0 1-14.677333-37.137067V253.610667c-0.273067-28.8768 22.459733-52.497067 50.7904-52.770134h344.814933c13.585067 0.136533 26.589867 5.768533 36.113067 15.6672 9.5232 9.898667 14.813867 23.210667 14.677333 37.102934v158.1056z" fill="#CA6042" p-id="9671"></path><path d="M543.505067 768c0 105.028267 84.650667 190.1568 189.064533 190.1568C836.949333 958.1568 921.6 873.028267 921.6 768c0-105.028267-84.650667-190.1568-189.0304-190.1568-104.448 0-189.064533 85.128533-189.064533 190.1568z" fill="#F8DAA4" p-id="9672"></path><path d="M761.719467 837.597867a12.288 12.288 0 0 0-0.341334 16.827733c4.334933 4.778667 11.639467 5.256533 16.5888 1.024l0.750934-0.682667 50.926933-51.541333a12.288 12.288 0 0 0 0.341333-16.827733 11.912533 11.912533 0 0 0-16.554666-1.092267l-0.750934 0.7168-50.961066 51.541333z m-126.0544-103.3216a12.288 12.288 0 0 0-0.375467 16.827733c4.334933 4.8128 11.6736 5.290667 16.5888 1.092267l0.785067-0.7168 50.926933-51.541334a12.288 12.288 0 0 0 0.341333-16.827733 11.912533 11.912533 0 0 0-16.554666-1.092267l-0.785067 0.7168-50.926933 51.541334z" fill="#C13C1E" p-id="9673"></path><path d="M829.713067 789.435733c0 5.4272-4.9152 9.898667-11.264 10.308267H640.9216c-6.587733 0.068267-11.9808-4.334933-12.219733-9.898667-0.273067-5.597867 4.778667-10.308267 11.298133-10.717866H817.527467c6.724267 0 12.1856 4.608 12.1856 10.308266z m0-41.335466c0 5.393067-4.9152 9.898667-11.264 10.308266H640.9216c-6.587733 0.034133-11.9808-4.369067-12.219733-9.898666-0.273067-5.597867 4.778667-10.3424 11.298133-10.717867l0.9216-0.034133h176.605867c6.724267 0 12.1856 4.642133 12.1856 10.3424z" fill="#C13C1E" p-id="9674"></path></svg>