<svg t="1711177234827" class="icon" viewBox="0 0 1024 1024" version="1.1" xmlns="http://www.w3.org/2000/svg" p-id="8542" width="128" height="128"><path d="M752.941176 299.158588l172.212706-2.499764a30.117647 30.117647 0 0 1 30.569412 30.117647v438.693647a30.117647 30.117647 0 0 1-29.665882 30.117647l-173.116236 2.529882V299.158588z" fill="#F8DAA4" p-id="8543"></path><path d="M34.123294 924.220235a443.723294 99.779765 0 1 0 887.446588 0 443.723294 99.779765 0 1 0-887.446588 0Z" fill="#F7D7C3" p-id="8544"></path><path d="M750.923294 129.897412a68.276706 68.276706 0 0 1 68.276706 68.276706v695.024941A68.276706 68.276706 0 0 1 750.923294 961.445647H204.8A68.276706 68.276706 0 0 1 136.523294 893.199059V198.174118A68.276706 68.276706 0 0 1 204.8 129.897412H750.923294zM307.2 734.900706H273.046588c-18.853647 0-34.123294 15.299765-34.123294 34.153412v31.503058c0 18.853647 15.269647 34.123294 34.123294 34.123295h34.153412c18.853647 0 34.123294-15.269647 34.123294-34.123295v-31.503058c0-18.853647-15.269647-34.153412-34.123294-34.153412z m187.723294 0h-34.123294c-18.853647 0-34.153412 15.299765-34.153412 34.153412v31.503058c0 18.853647 15.299765 34.123294 34.153412 34.123295H494.923294c18.853647 0 34.123294-15.269647 34.123294-34.123295v-31.503058c0-18.853647-15.269647-34.153412-34.123294-34.153412z m187.723294 0H648.523294c-18.853647 0-34.123294 15.299765-34.123294 34.153412v31.503058c0 18.853647 15.269647 34.123294 34.123294 34.123295h34.123294c18.853647 0 34.153412-15.269647 34.153412-34.123295v-31.503058c0-18.853647-15.299765-34.153412-34.153412-34.153412zM307.2 601.871059H273.046588c-18.853647 0-34.123294 15.269647-34.123294 34.123294v31.503059c0 18.853647 15.269647 34.153412 34.123294 34.153412h34.153412c18.853647 0 34.123294-15.299765 34.123294-34.153412v-31.503059c0-18.853647-15.269647-34.123294-34.123294-34.123294z m187.723294 0h-34.123294c-18.853647 0-34.153412 15.269647-34.153412 34.123294v31.503059c0 18.853647 15.299765 34.153412 34.153412 34.153412H494.923294c18.853647 0 34.123294-15.299765 34.123294-34.153412v-31.503059c0-18.853647-15.269647-34.123294-34.123294-34.123294z m187.723294 0H648.523294c-18.853647 0-34.123294 15.269647-34.123294 34.123294v31.503059c0 18.853647 15.269647 34.153412 34.123294 34.153412h34.123294c18.853647 0 34.153412-15.299765 34.153412-34.153412v-31.503059c0-18.853647-15.299765-34.123294-34.153412-34.123294zM648.523294 269.221647H307.2A68.276706 68.276706 0 0 0 238.923294 337.498353v129.566118a68.276706 68.276706 0 0 0 68.276706 68.276705H648.523294a68.276706 68.276706 0 0 0 68.276706-68.276705V337.498353A68.276706 68.276706 0 0 0 648.523294 269.221647z" fill="#CA6042" p-id="8545"></path></svg>