<svg t="1711177466530" class="icon" viewBox="0 0 1024 1024" version="1.1" xmlns="http://www.w3.org/2000/svg" p-id="9505" width="128" height="128"><path d="M0 0h1024v1024H0z" fill="#D8D8D8" fill-opacity="0" p-id="9506"></path><path d="M68.266667 68.266667h921.6v921.6H68.266667z" fill="#D8D8D8" fill-opacity="0" p-id="9507"></path><path d="M493.704533 986.2144C730.043733 986.2144 921.6 942.011733 921.6 887.466667c0-54.545067-191.556267-98.747733-427.895467-98.747734C257.399467 788.718933 65.877333 832.9216 65.877333 887.466667c0 54.545067 191.556267 98.747733 427.861334 98.747733z" fill="#D0E1D8" p-id="9508"></path><path d="M426.666667 853.333333H174.421333c-10.069333 0-19.694933-4.573867-26.794666-12.731733A46.830933 46.830933 0 0 1 136.533333 809.915733V401.8176c0-23.995733 16.964267-43.4176 37.888-43.4176h286.378667V819.2a34.133333 34.133333 0 0 1-34.133333 34.133333z m415.709866-482.235733c6.997333 8.123733 10.9568 19.1488 10.9568 30.651733v408.234667c0 11.502933-3.959467 22.528-10.9568 30.651733a35.089067 35.089067 0 0 1-26.487466 12.6976H563.2a34.133333 34.133333 0 0 1-34.133333-34.133333V358.4h286.8224c9.898667 0 19.456 4.573867 26.487466 12.6976z" fill="#7FB76C" p-id="9509"></path><path d="M745.2672 112.571733c7.406933 7.304533 11.5712 17.2032 11.537067 27.5456v106.0864h94.8224c21.845333 0 39.492267 17.408 39.492266 38.912v38.912c0 21.504-17.681067 38.912-39.492266 38.912H140.663467c-21.8112 0-39.458133-17.408-39.492267-38.877866v-38.912c0-21.504 17.681067-38.912 39.492267-38.912h92.16V140.0832c0-13.824 7.441067-26.624 19.5584-33.621333a40.004267 40.004267 0 0 1 39.287466-0.341334l191.488 140.049067h23.313067l191.522133-140.014933a39.936 39.936 0 0 1 15.9744-4.846934l3.345067-0.136533c10.478933 0 20.548267 4.096 27.9552 11.3664z" fill="#7FB76C" p-id="9510"></path><path d="M745.2672 112.571733c7.406933 7.304533 11.537067 17.2032 11.537067 27.5456v106.0864H232.8576V140.117333c-0.034133-13.824 7.406933-26.624 19.524267-33.621333a40.004267 40.004267 0 0 1 39.287466-0.341333l191.488 140.049066h23.313067l191.522133-140.014933a39.936 39.936 0 0 1 15.9744-4.846933l3.345067-0.136534c10.478933 0 20.548267 4.096 27.9552 11.3664z" fill="#F8DAA4" p-id="9511"></path></svg>