<?xml version="1.0" encoding="UTF-8"?>
<svg width="30px" height="30px" viewBox="0 0 30 30" version="1.1" xmlns="http://www.w3.org/2000/svg" xmlns:xlink="http://www.w3.org/1999/xlink">
    <title>设备划拨</title>
    <g id="界面设计-机具管理" stroke="none" stroke-width="1" fill="none" fill-rule="evenodd">
        <g id="代理商首页/新增政策管理-三个模块新" transform="translate(-98.000000, -597.000000)">
            <g id="编组-9" transform="translate(88.000000, 597.000000)">
                <g id="设备划拨" transform="translate(10.000000, 0.000000)">
                    <rect id="矩形备份-2" fill-opacity="0" fill="#D8D8D8" x="0" y="0" width="30" height="30"></rect>
                    <g id="设备划拨icon" transform="translate(2.000000, 2.000000)">
                        <rect id="矩形" fill-opacity="0" fill="#D8D8D8" x="0" y="0" width="27" height="27"></rect>
                        <g id="编组-2" transform="translate(1.000000, 1.000000)">
                            <ellipse id="椭圆形备份-3" fill="#F7D7C3" cx="12" cy="23.2142857" rx="12" ry="2.78571429"></ellipse>
                            <g id="终端划拨" transform="translate(1.846154, 0.000000)">
                                <path d="M14.7097951,0 L2.82867523,0 C1.25225395,0.014856527 -0.0139790012,1.3303679 0.000119913125,2.93850614 L0.000119913125,20.2749079 C-0.00681412068,21.0473223 0.287222893,21.7909575 0.817663621,22.3422051 C1.34810435,22.8934526 2.07149282,23.207152 2.82867523,23.2142857 L9.97366828,23.2142857 C9.14781336,22.0142472 8.70497872,20.5835235 8.70557407,19.1172881 C8.70929565,16.8907126 9.72266886,14.7911665 11.4503717,13.4305095 C13.1780746,12.0698524 15.425697,11.6011927 17.5383448,12.1611092 L17.5383448,2.93850614 C17.5524493,1.3303679 16.2862163,0.014856527 14.7097951,0 L14.7097951,0 Z M4.24673609,19.1573864 C4.24798862,19.2732827 4.20393812,19.384915 4.12432315,19.4676038 C4.04470819,19.5502926 3.93608633,19.5972273 3.82247144,19.5980316 L2.65777304,19.5980316 C2.54363884,19.5980316 2.43424638,19.5514612 2.35398396,19.4686835 C2.27372154,19.3859057 2.22926212,19.2738097 2.2305176,19.1573864 L2.2305176,18.0825783 C2.22926212,17.9661551 2.27372154,17.854059 2.35398396,17.7712813 C2.43424638,17.6885035 2.54363884,17.6419331 2.65777304,17.6419331 L3.82418043,17.6419331 C3.93779533,17.6427374 4.0464172,17.6896721 4.12603217,17.7723609 C4.20564714,17.8550497 4.24969765,17.966682 4.24844512,18.0825783 L4.24844512,19.1573864 L4.24673609,19.1573864 Z M4.24673609,15.1536609 C4.24798862,15.2695572 4.20393812,15.3811894 4.12432315,15.4638783 C4.04470819,15.5465671 3.93608633,15.5935018 3.82247144,15.594306 L2.65777304,15.594306 C2.54356391,15.594306 2.43410554,15.5476773 2.35383057,15.4648047 C2.27355561,15.3819321 2.22914708,15.2697234 2.2305176,15.153225 L2.2305176,14.0792886 C2.22914708,13.9627903 2.27355561,13.8505815 2.35383057,13.7677089 C2.43410554,13.6848364 2.54356391,13.6382076 2.65777304,13.6382076 L3.82418043,13.6382076 C3.93787023,13.6390111 4.04655767,13.6860056 4.12618503,13.7687891 C4.20581238,13.8515726 4.24981216,13.9633173 4.24844512,14.0792886 L4.24844512,15.153225 L4.24673609,15.1536609 Z M7.936087,19.1573864 C7.93699676,19.2731323 7.892736,19.3844937 7.81306576,19.4669114 C7.73339552,19.5493291 7.62486,19.5960332 7.51139506,19.596724 L6.31849782,19.596724 C6.20488292,19.5959197 6.09626105,19.5489851 6.01664608,19.4662963 C5.93703111,19.3836074 5.8929806,19.2719751 5.89423314,19.1560788 L5.89423314,18.0825783 C5.8929806,17.966682 5.93703111,17.8550497 6.01664608,17.7723609 C6.09626105,17.6896721 6.20488292,17.6427374 6.31849782,17.6419331 L7.51139506,17.6419331 C7.62508424,17.642622 7.73381601,17.6895058 7.81352333,17.7722073 C7.89323065,17.8549088 7.93733961,17.966607 7.936087,18.0825783 L7.936087,19.1573864 L7.936087,19.1573864 Z M7.936087,15.1536609 C7.93733961,15.2696322 7.89323065,15.3813304 7.81352333,15.4640319 C7.73381601,15.5467334 7.62508424,15.5936172 7.51139506,15.594306 L6.31849782,15.594306 C6.20488292,15.5935018 6.09626105,15.5465671 6.01664608,15.4638783 C5.93703111,15.3811894 5.8929806,15.2695572 5.89423314,15.1536609 L5.89423314,14.0792886 C5.89286609,13.9633173 5.93686587,13.8515726 6.01649323,13.7687891 C6.09612058,13.6860056 6.20480802,13.6390111 6.31849782,13.6382076 L7.51139506,13.6382076 C7.62515915,13.6388956 7.73395653,13.6858393 7.81367626,13.7686354 C7.89339599,13.8514316 7.9374542,13.9632422 7.936087,14.0792886 L7.936087,15.153225 L7.936087,15.1536609 Z M15.3088714,9.06133829 C15.3163933,9.90753341 14.6501823,10.5998299 13.8206764,10.6077369 L3.71950285,10.6077369 C3.32100706,10.6041696 2.94023012,10.4392237 2.66097561,10.1492015 C2.38172109,9.85917931 2.22687531,9.46784953 2.23045477,9.06133829 L2.23045477,4.4291159 C2.22316893,3.58309035 2.8893108,2.89106073 3.71864834,2.8831531 L13.8206764,2.8831531 C14.2189845,2.88683534 14.5995432,3.05178587 14.8786254,3.34171382 C15.1577076,3.63164177 15.3124498,4.02279509 15.3088714,4.4291159 L15.3088714,9.06133829 Z" id="形状" fill="#CA6042" fill-rule="nonzero"></path>
                                <path d="M11.0769231,19.5 C11.0769231,22.577015 13.5565768,25.0714286 16.6153846,25.0714286 C19.6741925,25.0714286 22.1538462,22.577015 22.1538462,19.5 C22.1538462,16.422985 19.6741925,13.9285714 16.6153846,13.9285714 C13.5565768,13.9285714 11.0769231,16.422985 11.0769231,19.5 Z" id="形状结合" fill="#F8DAA4" fill-rule="nonzero"></path>
                                <g id="编组-10" transform="translate(16.448513, 19.856224) rotate(35.000000) translate(-16.448513, -19.856224) translate(13.699179, 17.856224)" stroke="#CA6042" stroke-linecap="round" stroke-width="0.8">
                                    <path d="M0.5,2.08157519 L5.49866874,2" id="路径" transform="translate(2.999334, 2.040788) scale(1, -1) translate(-2.999334, -2.040788) "></path>
                                    <polyline id="路径-2" points="1.5 0 -4.54747351e-13 2 1.5 4"></polyline>
                                </g>
                            </g>
                        </g>
                    </g>
                </g>
            </g>
        </g>
    </g>
</svg>