<svg t="1710576915679" class="icon" viewBox="0 0 1024 1024" version="1.1" xmlns="http://www.w3.org/2000/svg" p-id="2323" width="128" height="128"><path d="M0 0h1024v1024H0z" fill="#D8D8D8" fill-opacity="0" p-id="2324"></path><path d="M805.137067 955.733333H236.885333C181.589333 955.733333 136.533333 912.9984 136.533333 860.5696V194.56C136.465067 142.1312 181.521067 99.396267 236.885333 99.396267h344.2688c18.568533 0 33.450667 14.199467 33.450667 31.744s-14.882133 31.675733-33.450667 31.675733H236.885333a32.768 32.768 0 0 0-33.450666 31.744v666.0096c0 17.476267 15.018667 31.744 33.450666 31.744h568.251734c18.432 0 33.450667-14.336 33.450666-31.744V392.8064c0-17.544533 15.018667-31.744 33.450667-31.744 18.568533 0 33.518933 14.199467 33.518933 31.744v467.7632c0 52.4288-44.987733 95.163733-100.420266 95.163733z" fill="#576B95" p-id="2325"></path><path d="M319.965867 701.576533a35.2256 35.2256 0 0 1-13.243734-2.525866 31.1296 31.1296 0 0 1-17.476266-41.7792l71.4752-156.740267a34.269867 34.269867 0 0 1 44.032-16.5888 31.1296 31.1296 0 0 1 17.476266 41.710933L350.754133 682.461867a33.655467 33.655467 0 0 1-30.72 19.114666z" fill="#576B95" p-id="2326"></path><path d="M319.965867 701.576533a33.723733 33.723733 0 0 1-30.856534-19.319466 31.1296 31.1296 0 0 1 17.749334-41.642667l166.0928-67.037867a34.133333 34.133333 0 0 1 43.963733 16.725334 31.1296 31.1296 0 0 1-17.681067 41.642666l-166.161066 67.106134a33.860267 33.860267 0 0 1-13.1072 2.525866z" fill="#576B95" p-id="2327"></path><path d="M509.815467 625.322667l-141.994667-134.621867 426.939733-404.411733A66.423467 66.423467 0 0 1 840.567467 68.266667c17.271467 0 33.5872 6.3488 45.8752 18.0224l50.312533 47.7184c25.258667 23.893333 25.258667 62.941867 0 86.903466L509.815467 625.322667z m-47.3088-134.621867l47.377066 44.919467L887.944533 177.493333l-47.377066-44.919466-378.0608 358.126933z" fill="#576B95" p-id="2328"></path><path d="M840.772267 298.8032a33.9968 33.9968 0 0 1-23.620267-9.284267l-94.685867-89.7024a30.583467 30.583467 0 0 1 0-44.919466 34.816 34.816 0 0 1 47.377067 0l94.685867 89.7024a30.583467 30.583467 0 0 1 0 44.919466 34.816 34.816 0 0 1-23.7568 9.284267z" fill="#576B95" p-id="2329"></path></svg>