<svg t="1711176435070" class="icon" viewBox="0 0 1575 1024" version="1.1" xmlns="http://www.w3.org/2000/svg" p-id="3810" width="128" height="128"><path d="M1018.88 367.064615c0 51.2-39.699692 92.16-89.560615 92.16-49.782154 0-90.269538-40.96-90.269539-92.16 0-50.412308 40.487385-91.372308 90.269539-91.372307 6.301538 0 11.657846 2.363077 17.959384 3.150769A274.510769 274.510769 0 0 0 787.692308 226.855385c-154.151385 0-278.685538 127.606154-278.685539 285.144615 0 156.750769 124.534154 284.356923 278.685539 284.356923 154.072615 0 278.606769-127.606154 278.606769-284.356923 0-60.652308-19.456-117.366154-51.357539-163.052308 1.575385 6.301538 3.938462 11.815385 3.938462 18.116923z m541.696 117.366154C1430.606769 243.396923 1123.879385 0 787.692308 0 451.426462 0 144.777846 243.396923 15.517538 484.430769L0 512l15.517538 27.569231C144.699077 779.815385 451.426462 1024 787.692308 1024c336.187077 0 642.914462-244.184615 772.883692-484.430769L1575.384615 512l-14.808615-27.569231zM787.692308 910.572308c-277.110154 0-539.411692-200.861538-659.298462-398.572308C248.280615 313.501538 510.582154 113.427692 787.692308 113.427692c277.031385 0 539.411692 200.073846 659.298461 398.572308-119.886769 197.710769-382.267077 398.572308-659.298461 398.572308z" fill="#000" p-id="3811"></path></svg>