<svg t="1711176448628" class="icon" viewBox="0 0 1575 1024" version="1.1" xmlns="http://www.w3.org/2000/svg" p-id="3967" width="128" height="128"><path d="M0.187471 0.064587h1575.285251v1023.935413H0.187471z" fill="#D8D8D8" fill-opacity="0" p-id="3968"></path><path d="M787.830096 605.84053c-283.393817 0-566.315048-88.452267-767.95156-265.041743A60.648482 60.648482 0 0 1 14.522567 256.678554a57.261619 57.261619 0 0 1 82.151125-5.513498c355.541881 314.584465 1028.188683 314.584465 1382.15528 0a57.261619 57.261619 0 0 1 82.151126 5.513498 60.648482 60.648482 0 0 1-5.35597 84.120233C1354.145144 517.388263 1071.145149 605.84053 787.830096 605.84053z" fill="#5F410A" p-id="3969"></path><path d="M577.371987 866.156418a46.234622 46.234622 0 0 1-10.396883 0 57.025326 57.025326 0 0 1-39.303367-24.731979 59.703311 59.703311 0 0 1-8.664069-46.470915l38.358196-231.960753a58.600611 58.600611 0 0 1 67.579737-48.755078 59.782075 59.782075 0 0 1 47.652379 69.233786l-38.43696 231.960754a58.049262 58.049262 0 0 1-56.789033 50.724185zM1440.470776 748.325081a56.158919 56.158919 0 0 1-40.721124-17.721959l-189.270523-196.595599a59.86084 59.86084 0 0 1-18.11578-58.75814 58.285554 58.285554 0 0 1 42.847759-43.320345 56.789033 56.789033 0 0 1 57.025326 19.454773l189.270523 196.5956a60.018368 60.018368 0 0 1 0 83.411354 59.151961 59.151961 0 0 1-41.036181 16.934316z m-1305.360123 0a59.230725 59.230725 0 0 1-38.436961-16.934316 60.018368 60.018368 0 0 1 0-83.411354L285.944215 451.383811a56.946562 56.946562 0 0 1 59.151962-24.0231 58.285554 58.285554 0 0 1 44.659336 46.392151 59.624547 59.624547 0 0 1-24.338157 60.254661L176.146833 730.524358a56.158919 56.158919 0 0 1-41.03618 17.721959z m865.776774 117.910101a57.970497 57.970497 0 0 1-56.473977-48.755078l-38.358196-231.960754a59.939604 59.939604 0 0 1 14.96521-61.436124c16.225438-15.752853 39.854717-20.478708 60.648483-12.208461 20.793765 8.427776 35.050097 28.355135 36.467853 51.19677l38.358196 232.039518a59.782075 59.782075 0 0 1-9.215419 44.107987 57.10409 57.10409 0 0 1-37.255496 24.259393 46.155858 46.155858 0 0 1-9.136654 2.756749z" fill="#000" p-id="3970"></path></svg>