<svg t="1711177297966" class="icon" viewBox="0 0 1024 1024" version="1.1" xmlns="http://www.w3.org/2000/svg" p-id="8701" width="128" height="128"><path d="M0.028058 0h1024v1024H0.028058z" fill="#D8D8D8" fill-opacity="0" p-id="8702"></path><path d="M551.615898 117.8624l400.0768 367.28832a33.64864 33.64864 0 0 1-22.65088 58.40896l-39.58784-0.06144v294.0928a84.09088 84.09088 0 0 1-24.576 59.392A83.82464 83.82464 0 0 1 805.547418 921.6H218.344858a83.82464 83.82464 0 0 1-59.33056-24.61696 84.09088 84.09088 0 0 1-24.576-59.392v-294.0928h-39.5264a33.64864 33.64864 0 0 1-22.65088-58.368L472.255898 117.88288a58.65472 58.65472 0 0 1 79.33952 0zM342.883738 588.10368a42.06592 42.06592 0 0 0-29.67552 71.72096c107.49952 107.66336 281.76384 107.66336 389.24288 0a42.06592 42.06592 0 0 0-0.512-58.88 41.90208 41.90208 0 0 0-58.7776-0.512 191.13984 191.13984 0 0 1-270.60224 0 41.90208 41.90208 0 0 0-29.67552-12.32896z" fill="#323233" p-id="8703"></path></svg>