<?xml version="1.0" standalone="no"?><!DOCTYPE svg PUBLIC "-//W3C//DTD SVG 1.1//EN" "http://www.w3.org/Graphics/SVG/1.1/DTD/svg11.dtd"><svg t="1718334115392" class="icon" viewBox="0 0 1024 1024" version="1.1" xmlns="http://www.w3.org/2000/svg" p-id="2966" xmlns:xlink="http://www.w3.org/1999/xlink" width="200" height="200"><path d="M437.408134 127.659962c109.230056-18.286762 207.006642 1.734072 293.448016 60.039515C817.274538 245.886663 872.488273 329.161856 896.451381 437.288542c18.286762 109.230056-1.722578 207.065771-60.039515 293.448017C778.106423 817.177933 694.949487 872.368681 586.822801 896.331789c-109.230056 18.286762-207.065771-1.722578-293.448017-60.039515C206.897268 778.116582 151.683533 694.841389 127.720425 586.714703c-18.286762-109.230056 1.722578-207.065771 60.039515-293.448017C246.006255 206.836805 329.163191 151.646057 437.349005 127.671455z m103.33181 224.751503c14.841279-2.884852 26.337149-9.721626 34.310225-20.47584 7.973075-10.754214 10.522934-23.522396 7.626588-38.422804-2.884852-14.841279-10.043578-25.783666-21.464685-32.768033a53.007059 53.007059 0 0 0-39.068371-6.212485 53.007059 53.007059 0 0 0-33.837195 20.383892c-8.032204 10.765707-10.582062 23.533889-7.685717 38.434297s10.055072 25.842795 21.523814 32.75654c11.421106 6.984367 24.28622 9.085844 38.65447 6.292939l-0.059129 0.011494z m70.318593 306.828831c-0.666619-3.429459-1.255971-8.039828-1.838677-13.878744-0.512084-5.79128-1.56948-11.231112-3.172188-16.319494l-35.298204 61.167265a61.379765 61.379765 0 0 1-11.846204 14.820659c-4.29686 3.780635-8.263461 5.472104-11.922788 4.956152-5.580939-1.246958-8.609379-4.830952-9.192086-10.669868l29.315106-252.31497c-0.205926-16.527901-5.485555-29.799154-15.68615-39.65936-10.271216-9.907842-24.435362-14.272684-42.622186-13.130669-19.929662 4.487561-40.163683 17.195522-60.713558 38.064756a252.024471 252.024471 0 0 0-50.100701 74.353513l2.494075 12.830906c0.523577 5.850409 1.592467 11.349369 3.172189 16.319495l35.239075-61.155772c3.612102-6.040676 7.560837-10.980896 11.857697-14.761531 4.285367-3.839763 8.026947-5.42613 11.083495-4.854372 6.287159 1.72331 9.134891 5.956057 8.697595 12.545505L441.888307 718.939157a43.369412 43.369412 0 0 0 13.455877 37.024746c10.143127 9.564563 25.639259 14.468209 46.394787 14.545044 28.562438-6.165602 50.90044-19.098448 67.309651-38.856005a281.298824 281.298824 0 0 0 42.032902-72.294389z" fill="#000" p-id="2967"></path></svg>