<?xml version="1.0" encoding="UTF-8"?>
<svg width="26px" height="26px" viewBox="0 0 26 26" version="1.1" xmlns="http://www.w3.org/2000/svg" xmlns:xlink="http://www.w3.org/1999/xlink">
    <title>编组</title>
    <g id="界面设计-资金展示相关-提现" stroke="none" stroke-width="1" fill="none" fill-rule="evenodd">
        <g id="代理：我的账户" transform="translate(-30.000000, -574.000000)">
            <g id="编组" transform="translate(30.000000, 574.000000)">
                <g id="达标奖励" fill="#F5F5F5">
                    <rect id="矩形" x="0" y="0" width="26" height="26" rx="13"></rect>
                </g>
                <circle id="椭圆形" fill="#E48643" cx="13" cy="13" r="7"></circle>
                <polygon id="三角形" fill="#E48643" points="17.5 16 20 20 13 20"></polygon>
                <g id="补" transform="translate(8.000000, 8.000000)" fill="#F5F5F5" fill-rule="nonzero">
                    <path d="M5.36357392,8.12746114 C5.20885465,8.29464594 5.05589356,8.36493955 4.90469064,8.33834197 C4.75348773,8.31174439 4.58646125,8.19965458 4.40361121,8.00207254 C4.26295733,7.85768566 4.10823806,7.70759931 3.93945341,7.55181347 C3.77066876,7.39602763 3.59485141,7.23834197 3.41200137,7.07875648 L3.41200137,10.3388601 C3.41200137,10.582038 3.36980521,10.7530225 3.28541288,10.8518135 C3.20102056,10.9506045 3.03223591,11 2.77905893,11 C2.59620889,11 2.44852232,10.9544041 2.33599921,10.8632124 C2.22347611,10.7720207 2.16721456,10.5972366 2.16721456,10.3388601 L2.16721456,6.8507772 C1.99842991,7.017962 1.82612891,7.17944732 1.65031156,7.33523316 C1.47449422,7.491019 1.29516053,7.64490501 1.11231049,7.79689119 C0.866166201,7.98687392 0.67276712,8.06856649 0.532113243,8.04196891 C0.391459366,8.01537133 0.26135453,7.91848014 0.141798734,7.75129534 C0.0222429387,7.57651123 -0.0217113979,7.40362694 0.00993572445,7.23264249 C0.0415828468,7.06165803 0.173445856,6.88117444 0.405524753,6.69119171 C0.721995977,6.4328152 1.02088547,6.16493955 1.30219322,5.88756477 C1.58350097,5.61018998 1.8401943,5.33661485 2.0722732,5.06683938 C2.30435209,4.7970639 2.51181656,4.53678756 2.6946666,4.28601036 C2.87751664,4.03523316 3.02871956,3.80345423 3.14827535,3.59067358 C3.20453691,3.48428325 3.22387681,3.41778929 3.20629508,3.39119171 C3.18871334,3.36459413 3.12366093,3.35129534 3.01113782,3.35129534 L0.869682547,3.35129534 C0.630570957,3.35129534 0.465302651,3.29430052 0.373877631,3.18031088 C0.282452611,3.06632124 0.236740101,2.89153713 0.236740101,2.65595855 C0.236740101,2.41278066 0.285968958,2.23799655 0.384426672,2.13160622 C0.482884386,2.02521589 0.644636344,1.97202073 0.869682547,1.97202073 L2.28325401,1.97202073 C2.1847963,1.85043178 2.08458041,1.73454231 1.98260635,1.62435233 C1.88063229,1.51416235 1.79448179,1.42867012 1.72415485,1.36787565 C1.49207595,1.1626943 1.37427833,0.978411054 1.37076198,0.815025907 C1.36724564,0.65164076 1.4358144,0.482556131 1.57646828,0.307772021 C1.71712216,0.148186528 1.86480873,0.0645941278 2.01952799,0.0569948187 C2.17424726,0.0493955095 2.3500646,0.136787565 2.54698003,0.319170984 C2.70873199,0.471157168 2.86872577,0.636442142 3.02696139,0.815025907 C3.185197,0.993609672 3.33464174,1.17029361 3.47529562,1.34507772 C3.65111296,1.53506045 3.71089086,1.74404145 3.65462931,1.97202073 L3.7812178,1.97202073 C3.98516592,1.97202073 4.1592251,2.0119171 4.30339532,2.09170984 C4.44756554,2.17150259 4.5565723,2.28169257 4.63041558,2.42227979 C4.70425887,2.56286701 4.73942234,2.72625216 4.73590599,2.91243523 C4.73238964,3.09861831 4.68491896,3.29430052 4.59349394,3.49948187 C4.26999002,4.16062176 3.87615917,4.79896373 3.41200137,5.41450777 L3.41200137,5.47150259 C3.44716484,5.50189983 3.47881197,5.52849741 3.50694274,5.55129534 C3.53507352,5.57409326 3.56672064,5.60069085 3.60188411,5.63108808 C3.67221105,5.55509499 3.74605433,5.46960276 3.82341396,5.3746114 C3.9007736,5.27962003 3.97637506,5.18272884 4.05021834,5.08393782 C4.12406163,4.9851468 4.19438856,4.89015544 4.26119916,4.79896373 C4.32800975,4.70777202 4.38602947,4.62797927 4.43525833,4.55958549 C4.57591221,4.35440415 4.71480791,4.22711572 4.85194544,4.17772021 C4.98908297,4.1283247 5.1525931,4.18721934 5.34247584,4.35440415 C5.50422779,4.50639033 5.58686195,4.65267703 5.59037829,4.79326425 C5.59389464,4.93385147 5.52884222,5.10673575 5.39522104,5.3119171 C5.27566524,5.48670121 5.14028589,5.66908463 4.98908297,5.85906736 C4.83788005,6.04905009 4.68140261,6.2238342 4.51965066,6.38341969 C4.67436992,6.51260794 4.8150238,6.63419689 4.94161229,6.74818653 C5.06820078,6.86217617 5.18072388,6.96476684 5.27918159,7.05595855 C5.48312971,7.25354059 5.58862012,7.43592401 5.59565281,7.60310881 C5.60268551,7.77029361 5.52532588,7.94507772 5.36357392,8.12746114 Z M7.10416564,3.3626943 C7.39250609,3.67426598 7.65799029,3.96493955 7.90061822,4.23471503 C8.14324616,4.5044905 8.37005054,4.76096718 8.58103135,5.00414508 C8.79201217,5.24732297 8.99068577,5.48100173 9.17705216,5.70518135 C9.36341854,5.92936097 9.54451041,6.14784111 9.72032776,6.36062176 C9.9031778,6.58860104 9.99636099,6.78428325 9.99987734,6.94766839 C10.0033937,7.11105354 9.93130857,7.27253886 9.783622,7.43212435 C9.60077196,7.62970639 9.42495461,7.71139896 9.25616996,7.67720207 C9.08738531,7.64300518 8.92563335,7.52711572 8.77091409,7.32953368 C8.51773711,6.98756477 8.25576926,6.64939551 7.98501055,6.31502591 C7.71425184,5.9806563 7.42063687,5.62728843 7.10416564,5.25492228 L7.10416564,10.2476684 C7.10416564,10.5136442 7.05845313,10.7036269 6.96702811,10.8176166 C6.87560309,10.9316062 6.71033479,10.988601 6.4712232,10.988601 C6.2391443,10.988601 6.073876,10.9316062 5.97541828,10.8176166 C5.87696057,10.7036269 5.82773171,10.5136442 5.82773171,10.2476684 L5.82773171,0.729533679 C5.82773171,0.455958549 5.88223509,0.26597582 5.99124184,0.159585492 C6.1002486,0.0531951641 6.25672604,0 6.46067416,0 C6.66462228,0 6.82285789,0.0531951641 6.93538099,0.159585492 C7.04790409,0.26597582 7.10416564,0.455958549 7.10416564,0.729533679 L7.10416564,3.3626943 Z" id="形状"></path>
                </g>
            </g>
        </g>
    </g>
</svg>