<svg t="1710832679856" class="icon" viewBox="0 0 1024 1024" version="1.1" xmlns="http://www.w3.org/2000/svg" p-id="2218" width="128" height="128"><path d="M496.223373 1017.638162a22.595494 22.595494 0 0 0 31.516692 0c4.168101-4.094976 316.629414-309.390081 317.433784-310.633199a420.978184 420.978184 0 0 0-31.224194-589.091584C644.593137-39.011961 378.785304-38.938837 209.575035 118.059628a420.978184 420.978184 0 0 0-31.00482 589.091584c1.023744 1.243118 317.653158 310.48695 317.653158 310.48695M511.872032 233.011461C616.001428 233.084586 700.533438 315.422859 700.533438 417.066019S616.001428 601.120577 511.872032 601.120577c-104.129396 0-188.515157-82.411397-188.515157-184.054558S407.742636 233.084586 511.872032 233.084586" fill="#323233" p-id="2219"></path></svg>