<svg t="1711177387756" class="icon" viewBox="0 0 1024 1024" version="1.1" xmlns="http://www.w3.org/2000/svg" p-id="9178" width="128" height="128"><path d="M0 0h1024v1024H0z" fill="#D8D8D8" fill-opacity="0" p-id="9179"></path><path d="M34.153412 924.220235a443.723294 99.779765 0 1 0 887.446588 0 443.723294 99.779765 0 1 0-887.446588 0Z" fill="#CED4EA" p-id="9180"></path><path d="M60.235294 90.352941h843.294118v843.294118H60.235294z" fill="#D8D8D8" fill-opacity="0" p-id="9181"></path><path d="M214.738824 344.064h542.117647a90.352941 90.352941 0 0 1 90.352941 91.075765l-3.222588 406.588235a90.352941 90.352941 0 0 1-90.352942 89.630118h-542.117647a90.352941 90.352941 0 0 1-90.352941-91.045647l3.222588-406.588236a90.352941 90.352941 0 0 1 90.352942-89.660235z" fill="#627FD2" p-id="9182"></path><path d="M132.517647 121.584941L60.235294 319.156706c0 59.030588 46.802824 116.555294 104.719059 116.555294 57.765647 0 84.931765-77.824 107.188706-84.600471 27.888941-7.800471 45.447529 79.149176 96.105412 79.811765 50.778353 0.692706 77.763765-25.509647 107.52-77.94447 18.462118-19.576471 27.166118 15.600941 34.996705 30.448941 7.830588 14.938353 32.376471 54.633412 80.173177 52.705882 57.434353-2.409412 64.271059-33.942588 97.671529-86.437647 35.990588-21.142588 24.786824 93.033412 109.327059 90.142118 57.856 0 105.592471-60.385882 105.592471-120.71153l-74.782118-197.270588-696.259765-0.120471v-0.150588zM794.985412 120.470588l6.987294 7.378824L795.015529 120.470588z" fill="#F8DAA4" p-id="9183"></path><path d="M481.882353 481.882353a180.736 180.736 0 1 1-0.060235 361.351529A180.736 180.736 0 0 1 481.882353 481.882353z m3.312941 58.789647c-32.948706 0-59.723294 25.479529-59.723294 56.832 0 17.468235 8.342588 33.761882 22.889412 44.664471l3.764706 2.770823-4.427294 1.686588c-38.791529 14.757647-63.849412 49.874824-63.849412 89.509647v14.095059a7.529412 7.529412 0 0 0 7.68 7.288471h187.271529a7.529412 7.529412 0 0 0 7.710118-7.288471v-14.095059c0-39.634824-25.088-74.752-63.849412-89.509647l-4.427294-1.686588 3.734588-2.770823c14.546824-10.902588 22.889412-27.166118 22.889412-44.664471 0-31.322353-26.744471-56.832-59.693177-56.832z m17.769412 114.145882l-11.896471 11.414589 11.926589 57.072941-17.889883 17.106823-17.859765-17.106823 11.926589-57.072941-11.926589-11.444706H502.964706z" fill="#FFFFFF" p-id="9184"></path></svg>