<svg t="1711177113164" class="icon" viewBox="0 0 1024 1024" version="1.1" xmlns="http://www.w3.org/2000/svg" p-id="7905" width="128" height="128"><path d="M0.06144 0h1024v1024H0.06144z" fill="#D8D8D8" fill-opacity="0" p-id="7906"></path><path d="M836.32128 942.08H187.71968c-35.65568 0-64.83968-29.0816-64.83968-64.59392v-161.46432c0-9.70752 3.23584-19.39456 12.96384-25.84576l214.016-164.70016c-51.87584-45.21984-81.05984-109.81376-81.05984-180.85888C268.8 212.21376 379.06432 102.4 512.02048 102.4c132.97664 0 243.22048 109.81376 243.22048 242.21696 0 71.0656-29.184 135.63904-81.05984 180.8384l214.016 164.72064c6.49216 6.4512 12.98432 16.13824 12.98432 25.84576v161.46432C901.18144 913.01888 871.99744 942.08 836.32128 942.08z" fill="#C13C1E" p-id="7907"></path><path d="M512.06144 716.8a40.96 40.96 0 0 1 40.96 40.96v184.32h-81.92v-184.32a40.96 40.96 0 0 1 40.96-40.96z" fill="#F8DAA4" p-id="7908"></path></svg>