<?xml version="1.0" encoding="UTF-8"?>
<svg width="30px" height="30px" viewBox="0 0 30 30" version="1.1" xmlns="http://www.w3.org/2000/svg" xmlns:xlink="http://www.w3.org/1999/xlink">
    <title>编组 15</title>
    <defs>
        <polygon id="path-1" points="0 0 19 0 19 19 0 19"></polygon>
    </defs>
    <g id="界面设计-资金展示相关-提现" stroke="none" stroke-width="1" fill="none" fill-rule="evenodd">
        <g id="机构：我的账户" transform="translate(-21.000000, -292.000000)">
            <g id="编组-15" transform="translate(21.000000, 292.000000)">
                <g id="编组-12">
                    <rect id="矩形" fill-opacity="0" fill="#D8D8D8" x="0" y="0" width="30" height="30"></rect>
                    <g id="编组" transform="translate(6.000000, 4.000000)">
                        <mask id="mask-2" fill="white">
                            <use xlink:href="#path-1"></use>
                        </mask>
                        <g id="Clip-2"></g>
                        <path d="M16.5631311,4.26605623 L8.12830157,4.26605623 L10.795248,1.63280072 C11.6547938,0.789066425 13.0396461,0.789066425 13.8962947,1.63280072 L16.5631311,4.26605623 Z" id="路径" fill="#C13C1E" mask="url(#mask-2)"></path>
                        <path d="M18.9979325,9.34127177 L18.9979325,5.5902354 C18.9979325,4.66918424 18.2896129,3.92297119 17.4138813,3.92297119 L1.58246084,3.92297119 C0.70662329,3.925268 -0.00159035963,4.67148106 -0.00159035963,5.5902354 L-0.00159035963,17.255707 C-0.00159035963,18.1767581 0.70662329,18.9229712 1.58246084,18.9229712 L17.4160548,18.9229712 C18.2896129,18.9229712 19,18.1767581 19,17.255707 L19,13.5068554 L18.9979325,9.34127177 Z" id="路径" fill="#F8DAA4" mask="url(#mask-2)"></path>
                    </g>
                </g>
                <rect id="矩形" fill="#FFFFFF" x="16" y="13" width="5" height="5" rx="2.5"></rect>
            </g>
        </g>
    </g>
</svg>