<svg t="1711204730720" class="icon" viewBox="0 0 1024 1024" version="1.1" xmlns="http://www.w3.org/2000/svg" p-id="4579" width="128" height="128"><path d="M0 0h1024v1024H0z" fill="#ffffff" fill-opacity="0" p-id="4580"></path><path d="M512.9216 184.558933c74.1376 0 148.309333 36.488533 195.822933 96.017067 30.4128 36.488533 49.425067 84.514133 57.0368 138.274133 3.822933 28.808533 1.911467 57.617067 0 84.514134-1.877333 38.4-3.7888 74.888533 9.5232 105.608533 5.700267 13.448533 17.1008 24.9856 32.324267 32.6656 15.189333 7.68 45.636267 24.951467 45.636267 67.242667 1.877333 38.4-30.446933 71.031467-70.3488 71.031466h-145.885867A124.347733 124.347733 0 0 1 512.9216 887.466667c-63.726933 0-114.961067-47.274667-124.074667-107.554134H242.926933c-38.024533 0-70.3488-32.631467-72.260266-71.0656 0-30.72 17.1008-57.617067 43.7248-71.0656 17.134933-7.68 24.712533-11.502933 32.324266-23.04 19.012267-32.631467 17.1008-74.888533 13.312-119.057066-1.911467-38.434133-5.700267-78.7456 7.611734-119.0912 22.801067-78.7456 81.749333-144.042667 154.0096-174.762667a229.1712 229.1712 0 0 1 87.4496-17.271467h3.822933z m65.809067 595.3536h-131.618134a68.232533 68.232533 0 0 0 65.809067 49.937067 68.266667 68.266667 0 0 0 65.809067-49.937067zM512.9216 242.176h-1.911467c-22.8352 0-45.636267 5.7344-66.56 13.4144-57.002667 23.074133-102.673067 74.922667-121.685333 136.362667-9.489067 28.808533-7.611733 63.3856-3.7888 97.962666 3.7888 49.937067 5.700267 103.697067-20.923733 151.722667-17.1008 28.808533-39.936 38.4-57.0368 48.0256-9.489067 3.822933-13.312 9.557333-13.312 17.271467 0 7.68 7.611733 15.36 15.223466 15.36h541.866667c7.611733 0 13.312-7.68 13.312-15.36 0-5.768533 0-7.68-15.189333-15.36-24.746667-13.448533-45.636267-32.6656-57.0368-57.617067-19.0464-42.257067-17.134933-88.337067-15.223467-132.539733 1.877333-26.862933 3.7888-49.902933 0-72.977067-5.700267-42.222933-22.8352-80.657067-45.636267-109.4656-38.024533-49.937067-95.061333-76.8-152.098133-76.8z" fill="#ffffff" p-id="4581"></path><path d="M512.9216 238.318933a29.354667 29.354667 0 0 1-28.535467-28.808533V165.341867c0-17.271467 13.312-28.808533 28.535467-28.808534 15.189333 0 28.501333 13.448533 28.501333 28.808534v44.168533c0 15.36-13.312 28.808533-28.501333 28.808533z" fill="#fff" p-id="4582"></path></svg>