<svg t="1711352885420" class="icon" viewBox="0 0 1024 1024" version="1.1" xmlns="http://www.w3.org/2000/svg" p-id="3199" width="128" height="128"><path d="M512 0c282.781538 0 512 229.218462 512 512s-229.218462 512-512 512S0 794.781538 0 512 229.218462 0 512 0z m91.884308 685.292308h-144.384c0.078769 34.894769 32.374154 63.015385 72.192 63.015384 40.093538 0 72.113231-28.16 72.192-63.015384zM531.692308 275.692308c-26.505846 0-48.128 18.825846-48.128 42.023384 0 2.363077 0.236308 4.726154 0.630154 6.971077-66.441846 20.204308-120.989538 82.313846-120.989539 155.805539v60.416c-0.275692 14.020923-2.481231 80.777846-23.433846 81.447384-13.981538 0-24.694154 9.373538-24.694154 20.992 0 11.657846 10.791385 20.992 24.024615 20.992h385.181539c13.312 0 24.024615-9.412923 24.024615-20.992 0-11.697231-10.791385-20.992-24.024615-20.992-21.582769 0-23.827692-66.796308-24.064-80.856615v-61.046154c0-73.531077-51.042462-135.68-121.028923-155.844923a37.927385 37.927385 0 0 0 0.630154-6.892308C579.820308 294.596923 558.276923 275.692308 531.692308 275.692308z" fill="#3E8EFF" p-id="3200"></path></svg>