<svg t="1711177327972" class="icon" viewBox="0 0 1024 1024" version="1.1" xmlns="http://www.w3.org/2000/svg" p-id="9017" width="128" height="128"><path d="M0 0h1024v1024H0z" fill="#D8D8D8" fill-opacity="0" p-id="9018"></path><path d="M68.164267 101.1712H955.733333V989.866667H68.164267z" fill="#D8D8D8" fill-opacity="0" p-id="9019"></path><path d="M34.133333 894.634667a412.091733 95.232 0 1 0 824.183467 0 412.091733 95.232 0 1 0-824.183467 0Z" fill="#CED4EA" p-id="9020"></path><path d="M782.2336 214.596267c0-60.6208-49.698133-109.909333-110.7968-109.909334H242.3808C181.282133 104.721067 131.584 154.0096 131.584 214.6304v570.1632c0 60.6208 49.698133 109.909333 110.7968 109.909333h428.987733c61.098667 0 110.865067-49.288533 110.865067-109.909333V214.596267zM313.412267 291.601067h132.061866c14.848 0 26.9312 14.2336 26.9312 31.744 0 17.5104-12.0832 31.744-26.9312 31.744H313.412267c-14.848 0-26.897067-14.2336-26.897067-31.744 0-17.5104 11.9808-31.744 26.897067-31.744z m222.549333 380.893866H284.910933c-16.213333 0-29.3888-14.2336-29.3888-31.744 0-17.544533 13.175467-31.744 29.3888-31.744h251.050667c16.213333 0 29.3888 14.199467 29.3888 31.744 0 17.5104-13.175467 31.744-29.3888 31.744z m0-190.464H284.910933c-16.213333 0-29.3888-14.199467-29.3888-31.744 0-17.5104 13.175467-31.744 29.3888-31.744h251.050667c16.213333 0 29.3888 14.2336 29.3888 31.744 0 17.544533-13.175467 31.744-29.3888 31.744z" fill="#627FD2" p-id="9021"></path><path d="M328.8064 68.266667m32.904533 0l230.058667 0q32.904533 0 32.904533 32.904533l0 32.938667q0 32.904533-32.904533 32.904533l-230.058667 0q-32.904533 0-32.904533-32.904533l0-32.938667q0-32.904533 32.904533-32.904533Z" fill="#F8DAA4" p-id="9022"></path></svg>