<svg t="1710560586768" class="icon" viewBox="0 0 1024 1024" version="1.1" xmlns="http://www.w3.org/2000/svg" p-id="3659" width="128" height="128"><path d="M0 0h1024v1024H0z" fill="#D8D8D8" fill-opacity="0" p-id="3660"></path><path d="M884.363636 441.018182v370.827636c0 40.168727-33.186909 72.517818-74.472727 72.517818H260.654545c-41.146182 0-74.472727-32.395636-74.472727-72.424727V212.061091C186.181818 172.125091 219.648 139.636364 260.375273 139.636364h315.252363v253.952c0 26.158545 21.876364 47.476364 48.593455 47.476363H884.363636z m-13.544727-47.336727l-246.690909-240.826182v240.733091l0.093091 0.093091h246.597818zM309.015273 441.018182h161.559272a23.970909 23.970909 0 0 0 24.250182-23.691637 23.924364 23.924364 0 0 0-24.203636-23.64509H308.922182a23.924364 23.924364 0 0 0-24.203637 23.64509c0 13.032727 10.845091 23.738182 24.203637 23.738182z m0 157.789091h452.514909a23.970909 23.970909 0 0 0 24.203636-23.645091 23.970909 23.970909 0 0 0-24.203636-23.738182H308.968727a23.924364 23.924364 0 0 0-24.203636 23.738182c0 13.032727 10.845091 23.598545 24.203636 23.598545z" fill="#000" p-id="3661"></path></svg>