<?xml version="1.0" encoding="UTF-8"?>
<svg width="20px" height="21px" viewBox="0 0 20 21" version="1.1" xmlns="http://www.w3.org/2000/svg" xmlns:xlink="http://www.w3.org/1999/xlink">
    <title>流量费分成</title>
    <defs>
        <polygon id="path-1" points="0 0 12 0 12 16 0 16"></polygon>
    </defs>
    <g id="界面设计-我的政策" stroke="none" stroke-width="1" fill="none" fill-rule="evenodd">
        <g id="制定政策列表" transform="translate(-29.000000, -122.000000)">
            <g id="流量费分成" transform="translate(29.000000, 122.000000)">
                <rect id="矩形" fill="#405B85" x="0" y="0" width="20" height="21" rx="3"></rect>
                <g id="liuliang" transform="translate(4.000000, 2.500000)">
                    <mask id="mask-2" fill="white">
                        <use xlink:href="#path-1"></use>
                    </mask>
                    <g id="Clip-2"></g>
                    <path d="M5.99937453,0 C5.99937453,0 12,6.68650386 12,9.99998046 C12,13.3135352 9.31318574,16 5.99937453,16 C2.68556332,16 -0.00117276068,13.3135352 -0.00117276068,9.99998046 C-0.00117276068,6.68650386 5.99937453,0 5.99937453,0 Z M5.99945271,4.04188287 C5.54211514,4.04188287 5.17150322,4.40274398 5.17150322,4.84899299 L5.17150322,9.74094378 L4.13112767,8.61303783 C3.97941153,8.45004055 3.75990983,8.34659396 3.51566287,8.34659396 C3.05830575,8.34659396 2.68777202,8.70747462 2.68777202,9.15370408 C2.68777202,9.36059727 2.76826249,9.5507803 2.9002567,9.69315861 L5.38390972,12.3835126 C5.53562586,12.5477998 5.75512757,12.6512464 5.99937453,12.6512464 C6.24369967,12.6512464 6.46314274,12.547878 6.61491752,12.3835126 L9.09864872,9.69315861 C9.2305843,9.55085847 9.31105522,9.36059727 9.31105522,9.15370408 C9.31105522,8.70747462 8.9404433,8.34659396 8.48316437,8.34659396 C8.23891741,8.34659396 8.0194157,8.45004055 7.86769956,8.61303783 L6.82732402,9.74094378 L6.82732402,4.84899299 C6.82732402,4.40274398 6.45673165,4.04188287 5.99945271,4.04188287 Z" id="形状结合" fill="#FFFFFF" mask="url(#mask-2)"></path>
                </g>
            </g>
        </g>
    </g>
</svg>