<?xml version="1.0" encoding="UTF-8"?>
<svg width="20px" height="21px" viewBox="0 0 20 21" version="1.1" xmlns="http://www.w3.org/2000/svg" xmlns:xlink="http://www.w3.org/1999/xlink">
    <title>配置政策</title>
    <defs>
        <polygon id="path-1" points="0 0 20 0 20 21 0 21"></polygon>
    </defs>
    <g id="界面设计-我的政策" stroke="none" stroke-width="1" fill="none" fill-rule="evenodd">
        <g id="制定政策列表" transform="translate(-29.000000, -126.000000)">
            <g id="配置政策" transform="translate(29.000000, 126.000000)">
                <g id="编组">
                    <mask id="mask-2" fill="white">
                        <use xlink:href="#path-1"></use>
                    </mask>
                    <g id="Clip-2"></g>
                    <path d="M15.7789518,4.63264666 L19.6066184,4.63264666 C19.0548005,4.10764173 17.9510502,3.09805587 16.8825875,2.11725978 C16.1487988,1.44810878 15.450183,0.801972707 15.0568014,0.438494754 L15.0568014,3.923128 C15.0568014,4.32114242 15.3796363,4.63264666 15.7789518,4.63264666 Z" id="Fill-1" fill="#405B85" mask="url(#mask-2)"></path>
                    <path d="M15.7789518,6.01726018 C14.6047694,6.01726018 13.647817,5.0768881 13.647817,3.923128 L13.647817,0 L2.16455925,0 C0.972804697,0 -0.00171995173,0.95194997 -0.00171995173,2.12880949 L-0.00171995173,18.8711623 C-0.00171995173,20.0423315 0.966985527,21 2.16455925,21 L17.8337208,21 C19.0254754,21 20,20.04805 20,18.8711623 L20,6.01726018 L15.7789518,6.01726018 Z M13.5773849,17.2558081 L6.55012083,17.2558081 C6.16255837,17.2558081 5.8455426,16.944163 5.8455426,16.5634168 C5.8455426,16.1826988 6.16255837,15.8711664 6.55012083,15.8711664 L13.5773849,15.8711664 C13.9648327,15.8711664 14.2818198,16.1826988 14.2818198,16.5634168 C14.2818198,16.944163 13.9707666,17.2558081 13.5773849,17.2558081 Z M14.5166506,8.29618779 L12.7143991,10.0268702 L13.137106,12.4614936 C13.1840033,12.7211931 13.0724931,12.9864985 12.8552632,13.1364758 C12.6380333,13.2922842 12.3503427,13.3095806 12.1155406,13.1884213 L9.8905824,12.0403797 L7.66550952,13.1884213 C7.55978982,13.2403669 7.44827962,13.2691848 7.33674075,13.2691848 C7.18994287,13.2691848 7.04325965,13.2230705 6.91996778,13.1364758 C6.70273788,12.98078 6.59701818,12.7211931 6.63812502,12.4614936 L7.06083183,10.0268702 L5.25846575,8.30190631 C5.06474185,8.11725173 5.000129,7.84039663 5.08231402,7.59227497 C5.16452772,7.34423782 5.38769145,7.15958727 5.65184737,7.11921559 L8.14107617,6.76156883 L9.25646487,4.54616465 C9.37390891,4.30956453 9.62049265,4.15958727 9.8905824,4.15958727 C10.1605575,4.15958727 10.4012934,4.30956453 10.5245853,4.54616465 L11.639974,6.76156883 L14.1292028,7.11921559 C14.3933587,7.15958727 14.6165224,7.33840662 14.6987075,7.59227497 C14.7749586,7.84039663 14.7104605,8.11153321 14.5166506,8.29618779 Z" id="Fill-3" fill="#405B85" mask="url(#mask-2)"></path>
                </g>
                <path d="M10.5363383,7.70185641 L9.8905824,6.41538728 L9.24471187,7.70185641 C9.144926,7.90377921 8.94526827,8.04803796 8.71640003,8.08271527 L7.2721279,8.29035659 L8.31719923,9.28842091 C8.48159795,9.44994789 8.55784914,9.67497012 8.52267613,9.90002052 L8.27612105,11.313452 L9.5676328,10.6441883 C9.7731097,10.5403254 10.0196934,10.5403254 10.2251703,10.6441883 L11.5166821,11.313452 L11.270127,9.90002052 C11.2290202,9.67497012 11.305386,9.44422937 11.4756039,9.28842091 L12.5206753,8.29035659 L11.0764031,8.08271527 C10.8357532,8.04803796 10.6361241,7.90377921 10.5363383,7.70185641 Z" id="Fill-4" fill="#405B85"></path>
            </g>
        </g>
    </g>
</svg>