<?xml version="1.0" encoding="UTF-8"?>
<svg width="9px" height="10px" viewBox="0 0 9 10" version="1.1" xmlns="http://www.w3.org/2000/svg" xmlns:xlink="http://www.w3.org/1999/xlink">
    <title>购买攻略</title>
    <g id="特殊需求-购优惠券" stroke="none" stroke-width="1" fill="none" fill-rule="evenodd" opacity="0.881060646">
        <g id="物料申请" transform="translate(-26.000000, -139.000000)" fill="#ED6A0C">
            <g id="购买攻略" transform="translate(26.000000, 139.000000)">
                <path d="M4.8,0 L7.2,0 L7.2,2.49861035 L6.15384277,2.10406795 C6.0547811,2.06614063 5.9452189,2.06614063 5.84615723,2.10406795 L4.8,2.5 L4.8,0 Z" id="路径"></path>
                <path d="M0,9.6056251 L0,0.394374899 C0,0.177419408 0.230497177,0 0.512358271,0 L1.8,0 L1.8,10 L0.512358271,10 C0.230497177,10 0,9.8225313 0,9.6056251 Z" id="路径"></path>
                <path d="M9,9.6056251 C9,9.8225313 8.80467338,10 8.56598102,10 L2.4,10 L2.4,0 L3.74111864,0 L3.74111864,3.05768719 C3.74111864,3.20230775 3.81926014,3.33767693 3.94952009,3.42182668 C4.03337617,3.47439357 4.13036133,3.50199981 4.22868471,3.50199981 C4.28512526,3.50199981 4.34299446,3.49281416 4.39654155,3.47439357 L6.03131019,2.92751061 L7.66615118,3.47311185 C7.81514628,3.52304957 7.98298503,3.50334726 8.11317264,3.42047923 C8.24336025,3.33767693 8.32150175,3.20230775 8.32150175,3.05640547 L8.32150175,0 L8.56457046,0 C8.80326281,0 8.99858944,0.177419408 8.99858944,0.394374899 L8.99858944,9.6056251 L9,9.6056251 Z" id="路径"></path>
            </g>
        </g>
    </g>
</svg>