<svg t="1710560288935" class="icon" viewBox="0 0 1024 1024" version="1.1" xmlns="http://www.w3.org/2000/svg" p-id="2163" width="128" height="128"><path d="M843.044571 239.177143H178.541714a39.204571 39.204571 0 0 0-39.131428 39.131428v606.061715c0 43.227429 34.962286 78.116571 78.043428 78.116571h586.605715c43.300571 0 78.189714-34.962286 78.189714-78.116571V278.308571a39.131429 39.131429 0 0 0-39.204572-39.131428zM334.848 659.382857a29.257143 29.257143 0 1 1-58.587429 0V405.430857a29.257143 29.257143 0 1 1 58.587429 0v253.952z m215.04 117.394286a29.257143 29.257143 0 1 1-58.660571 0V366.299429a29.257143 29.257143 0 1 1 58.660571 0v410.477714z m215.04-117.394286a29.257143 29.257143 0 1 1-58.660571 0V405.430857a29.257143 29.257143 0 1 1 58.660571 0v253.952z m-625.517714-488.594286c0-16.164571 13.165714-29.257143 29.257143-29.257142h684.178285a29.257143 29.257143 0 1 1 0 58.514285H168.740571a29.257143 29.257143 0 0 1-29.330285-29.257143zM413.037714 102.4c0-21.650286 17.408-39.131429 39.131429-39.131429h117.321143c21.577143 0 39.058286 17.334857 39.058285 39.131429v39.058286H413.037714V102.4z" fill="#000" p-id="2164"></path></svg>