<svg t="1711178065154" class="icon" viewBox="0 0 1024 1024" version="1.1" xmlns="http://www.w3.org/2000/svg" p-id="11101" width="128" height="128"><path d="M512 80.234338c234.9056 0 425.353846 190.920862 425.353846 426.409354 0 235.52-190.448246 426.425108-425.353846 426.425108S86.646154 742.163692 86.646154 506.643692c0-235.488492 190.448246-426.409354 425.353846-426.409354z m-102.951385 271.36h-60.148184a7.750892 7.750892 0 0 0-5.482339 13.233231l135.687877 136.034462-147.2512 147.613538a7.766646 7.766646 0 0 0 5.482339 13.233231h60.13243a7.719385 7.719385 0 0 0 5.450831-2.268554l117.208616-117.476431 117.208615 117.460677a7.719385 7.719385 0 0 0 5.466585 2.284308h60.148184a7.735138 7.735138 0 0 0 5.466585-13.233231L561.152 500.814769l135.672123-136.002954a7.766646 7.766646 0 0 0-5.482338-13.23323h-60.179693a7.719385 7.719385 0 0 0-5.45083 2.268553l-105.566524 105.865847-105.629538-105.865847a7.719385 7.719385 0 0 0-5.466585-2.268553z" fill="#000" p-id="11102"></path></svg>