<svg t="1710576945261" class="icon" viewBox="0 0 1040 1024" version="1.1" xmlns="http://www.w3.org/2000/svg" p-id="2626" width="128" height="128"><path d="M520 80c238.576 0 432 193.424 432 432s-193.424 432-432 432-432-193.424-432-432 193.424-432 432-432z m232.096 294.56H691.04a7.856 7.856 0 0 0-5.568 2.288L468.8 593.488l-98.832-98.832a7.84 7.84 0 0 0-5.552-2.288h-61.072a7.84 7.84 0 0 0-5.568 13.408l-2.304-2.288 13.28 13.264 6.08 6.08 42.928 43.2 11.488 11.6 3.44 3.488 6.848 6.912c31.76 32.08 60.144 60.8 64.912 65.632l0.672 0.672a29.44 29.44 0 0 0 41.648 0l268.64-268.624a7.84 7.84 0 0 0-3.296-11.168z" fill="#1677FF" p-id="2627"></path></svg>