<svg t="1710577018347" class="icon" viewBox="0 0 1024 1024" version="1.1" xmlns="http://www.w3.org/2000/svg" p-id="2924" width="128" height="128"><path d="M512 80.234338c234.9056 0 425.353846 190.920862 425.353846 426.409354 0 235.52-190.448246 426.425108-425.353846 426.425108S86.646154 742.163692 86.646154 506.643692c0-235.488492 190.448246-426.409354 425.353846-426.409354z m21.267692 562.097231h-42.535384a7.735138 7.735138 0 0 0-7.609108 6.364554l-0.126031 1.386339v42.645661c0 4.253538 3.4816 7.750892 7.735139 7.750892h42.535384c4.269292 0 7.719385-3.465846 7.719385-7.750892v-42.645661a7.750892 7.750892 0 0 0-7.719385-7.750893z m0-329.507446h-42.535384a7.735138 7.735138 0 0 0-7.609108 6.364554l-0.126031 1.386338v255.842462c0 4.269292 3.4816 7.766646 7.735139 7.766646h42.535384c4.269292 0 7.719385-3.465846 7.719385-7.750892V320.590769a7.750892 7.750892 0 0 0-7.719385-7.766646z" fill="#FAAB0C" p-id="2925"></path></svg>