<?xml version="1.0" encoding="UTF-8"?>
<svg width="32px" height="32px" viewBox="0 0 32 32" version="1.1" xmlns="http://www.w3.org/2000/svg" xmlns:xlink="http://www.w3.org/1999/xlink">
    <title>结果_失败</title>
    <g id="界面设计-机具管理" stroke="none" stroke-width="1" fill="none" fill-rule="evenodd">
        <g id="发票已驳回" transform="translate(-16.000000, -108.000000)">
            <g id="结果_失败" transform="translate(16.000000, 108.000000)">
                <rect id="矩形" fill-opacity="0" fill="#FFFFFF" x="0" y="0" width="32" height="32"></rect>
                <g id="CloseCircleFill" transform="translate(2.500000, 2.500000)" fill="#EE0A24">
                    <path d="M13.5,0 C20.9556871,0 27,6.04431289 27,13.5 C27,20.9556871 20.9556871,27 13.5,27 C6.04431289,27 0,20.9556871 0,13.5 C0,6.04431289 6.04431289,0 13.5,0 Z M10.2323861,8.5909247 L8.32335997,8.5909247 C8.18779907,8.59081808 8.07781876,8.70062549 8.07771205,8.83618611 C8.07766072,8.90139892 8.10356249,8.96395191 8.14970056,9.01003852 L12.456194,13.316532 L7.78272656,17.9899995 C7.68681714,18.0858022 7.68673056,18.2412153 7.78253331,18.3371261 C7.82862022,18.3832642 7.89117291,18.4091242 7.95638572,18.4091242 L9.86479713,18.4091242 C9.92970274,18.4090034 9.99192206,18.383189 10.0378427,18.3373191 L13.7577186,14.6180761 L17.4775944,18.3367151 C17.5235649,18.3829602 17.5860474,18.4090128 17.6512536,18.4091242 L19.5602776,18.4091242 C19.6958386,18.4092308 19.8059256,18.2994234 19.8059256,18.1638628 C19.8059256,18.09865 19.7800751,18.036097 19.7339371,17.9900104 L15.0598656,13.3159389 L19.365755,9.01004948 C19.4616644,8.91424678 19.461751,8.75883367 19.3659483,8.66292281 C19.3198614,8.61678471 19.2573087,8.5909247 19.1920958,8.5909247 L17.2824591,8.5909247 C17.2173409,8.5909247 17.1548711,8.61670983 17.1088,8.6627298 L13.7583431,12.0144236 L10.4060452,8.66272981 C10.3599741,8.61670992 10.2975043,8.5909247 10.2323861,8.5909247 Z" id="形状"></path>
                </g>
            </g>
        </g>
    </g>
</svg>