<svg t="1711178775997" class="icon" viewBox="0 0 1024 1024" version="1.1" xmlns="http://www.w3.org/2000/svg" p-id="11258" width="128" height="128"><path d="M512 80.234338c234.9056 0 425.353846 190.920862 425.353846 426.409354 0 235.52-190.448246 426.425108-425.353846 426.425108S86.646154 742.163692 86.646154 506.643692c0-235.488492 190.448246-426.409354 425.353846-426.409354z m11.594831 232.589785h-42.535385c-4.253538 0-7.719385 3.465846-7.719384 7.750892v170.031262l0.12603 4.127508a67.914831 67.914831 0 0 0 19.692308 43.8272l157.191877 157.61723a7.719385 7.719385 0 0 0 10.948923 0l30.089846-30.168615a7.766646 7.766646 0 0 0 0-10.964677l-157.223384-157.585723-0.976739-1.165785a9.704369 9.704369 0 0 1-1.858954-5.687138V320.575015a7.750892 7.750892 0 0 0-7.719384-7.750892z" fill="#07C160" p-id="11259"></path></svg>