<?xml version="1.0" standalone="no"?><!DOCTYPE svg PUBLIC "-//W3C//DTD SVG 1.1//EN" "http://www.w3.org/Graphics/SVG/1.1/DTD/svg11.dtd"><svg t="1720606191889" class="icon" viewBox="0 0 1024 1024" version="1.1" xmlns="http://www.w3.org/2000/svg" p-id="3317" xmlns:xlink="http://www.w3.org/1999/xlink" width="200" height="200"><path d="M512 0a512 512 0 1 1 0 1024 512 512 0 0 1 0-1024z m0 69.789538a442.210462 442.210462 0 1 0 0 884.420924A442.210462 442.210462 0 0 0 512 69.789538z m11.657846 661.58277a41.275077 41.275077 0 0 1 40.723692 41.668923c0 22.843077-18.195692 41.511385-40.723692 41.511384a41.196308 41.196308 0 0 1-40.723692-41.511384c0-23.000615 18.116923-41.747692 40.723692-41.747693z m0-498.609231c96.413538 0 174.552615 80.502154 174.552616 179.908923 0 53.563077-32.295385 99.879385-91.529847 139.342769a104.999385 104.999385 0 0 0-46.237538 87.433846V645.907692a37.572923 37.572923 0 0 1-36.706462 37.96677 37.336615 37.336615 0 0 1-36.627692-37.96677V639.606154c0-61.124923 30.089846-118.075077 79.872-151.236923 40.329846-26.781538 57.816615-52.066462 57.816615-75.618462 0-57.501538-45.213538-104.211692-101.060923-104.211692s-101.060923 46.631385-101.060923 104.211692c0 21.031385-16.541538 37.966769-36.78523 37.966769a37.336615 37.336615 0 0 1-36.785231-37.966769c0-99.406769 78.139077-179.908923 174.552615-179.908923z" fill="#000" p-id="3318"></path></svg>