<svg t="1710560303914" class="icon" viewBox="0 0 1024 1024" version="1.1" xmlns="http://www.w3.org/2000/svg" p-id="2312" width="128" height="128"><path d="M204.743111 552.96h614.4V471.04H204.8v81.92zM819.143111 0h-102.4v81.92h102.4c67.811556 0 122.936889 55.125333 122.936889 122.88v133.12H1024V204.8A204.8 204.8 0 0 0 819.2 0zM81.92 204.8c0-67.754667 55.125333-122.88 122.88-122.88h102.4V0H204.8a204.8 204.8 0 0 0-204.8 204.8v133.12h81.92V204.8z m0 614.4v-71.68h-81.92v71.68a204.8 204.8 0 0 0 204.8 204.8h102.4v-81.92H204.8a123.050667 123.050667 0 0 1-122.88-122.88z m860.216889 0c0 67.754667-55.182222 122.88-122.88 122.88h-102.4V1024h102.4a204.8 204.8 0 0 0 204.8-204.8v-71.68h-81.92v71.68z" fill="#000" opacity=".8" p-id="2313"></path></svg>