<svg t="1710577257029" class="icon" viewBox="0 0 1024 1024" version="1.1" xmlns="http://www.w3.org/2000/svg" p-id="3819" width="128" height="128"><path d="M469.341091 768c-166.4 0-298.682182-132.258909-298.682182-298.658909S302.941091 170.658909 469.341091 170.658909C635.741091 170.658909 768 302.941091 768 469.341091 768 635.741091 635.741091 768 469.341091 768z m0-85.341091c119.458909 0 213.317818-93.858909 213.317818-213.317818 0-119.482182-93.858909-213.341091-213.317818-213.341091C349.858909 256 256 349.858909 256 469.341091c0 119.458909 93.858909 213.317818 213.341091 213.317818z m251.717818 0l119.482182 119.482182-59.741091 59.717818-119.458909-119.458909 59.717818-59.741091z" fill="#000" p-id="3820"></path></svg>