<svg t="1711176030839" class="icon" viewBox="0 0 1024 1024" version="1.1" xmlns="http://www.w3.org/2000/svg" p-id="3179" width="128" height="128"><path d="M0 0m128 0l768 0q128 0 128 128l0 768q0 128-128 128l-768 0q-128 0-128-128l0-768q0-128 128-128Z" fill="#3D8DFF" p-id="3180"></path><path d="M381.056 579.328v173.184h261.184V579.328H381.056z m212.608 128.128H429.632V625.088h164.032v82.368z m-13.376-265.408l-34.496 32.384c60.544 44.352 107.712 86.592 142.208 126.016l38.016-37.312c-39.424-40.128-88-80.256-145.728-121.088zM516.224 185.792l-55.616 9.152c9.152 16.896 17.6 35.2 26.048 55.616H200.128v49.28h146.432c14.08 26.752 26.752 54.912 37.312 85.184H235.328v448.448h48.576V430.08h454.784v323.84c0 23.936-9.856 36.608-29.568 36.608l-68.288-2.112 12.672 46.464h71.808c40.832 0 61.952-23.232 61.952-69.696v-380.16H630.976c14.08-25.344 28.16-53.504 40.832-85.184h152.064v-49.28H540.864a740.288 740.288 0 0 0-24.64-64.768zM436.672 385.024a826.24 826.24 0 0 0-33.792-85.184h213.312c-11.968 28.864-25.344 57.024-40.128 85.184H436.672z m2.112 57.728c-39.424 45.056-88 83.776-145.728 116.16l32.384 42.24c59.136-35.904 109.12-78.144 149.248-126.72l-35.904-31.68z" fill="#FFFFFF" p-id="3181"></path></svg>