<svg t="1711177590335" class="icon" viewBox="0 0 1024 1024" version="1.1" xmlns="http://www.w3.org/2000/svg" p-id="9991" width="128" height="128"><path d="M0 0h1024v1024H0z" fill="#D8D8D8" fill-opacity="0" p-id="9992"></path><path d="M34.133333 72.533333h921.6v921.6H34.133333z" fill="#D8D8D8" fill-opacity="0" p-id="9993"></path><path d="M67.037867 895.3856a427.895467 98.747733 0 1 0 855.790933 0 427.895467 98.747733 0 1 0-855.790933 0Z" fill="#F7D7C3" p-id="9994"></path><path d="M297.7792 763.733333a65.058133 65.058133 0 0 1 46.114133 18.8416 67.208533 67.208533 0 0 1 19.387734 46.626134c0 9.045333-1.7408 17.544533-5.290667 25.6a66.423467 66.423467 0 0 1-34.816 35.191466c-8.021333 3.618133-16.418133 5.393067-25.3952 5.393067-9.352533 0-18.056533-1.774933-26.043733-5.358933a68.4032 68.4032 0 0 1-20.753067-14.2336 67.6864 67.6864 0 0 1-14.062933-20.957867 64.136533 64.136533 0 0 1-5.290667-25.634133c0-9.045333 1.706667-17.544533 5.290667-25.634134 3.549867-8.0896 8.260267-15.086933 14.062933-20.992a63.146667 63.146667 0 0 1 20.753067-13.858133c7.9872-3.345067 16.6912-4.983467 26.043733-4.983467zM692.087467 763.733333c8.942933 0 17.408 1.6384 25.7024 4.983467 8.226133 3.345067 15.2576 7.9872 21.0944 13.858133a67.208533 67.208533 0 0 1 19.3536 46.626134c0 9.045333-1.706667 17.544533-5.290667 25.6a66.013867 66.013867 0 0 1-35.157333 35.191466 63.3856 63.3856 0 0 1-51.063467 0 67.208533 67.208533 0 0 1-40.106667-60.8256c0-9.0112 1.706667-17.5104 5.256534-25.6 3.584-8.0896 8.260267-15.086933 14.097066-20.992a65.058133 65.058133 0 0 1 46.114134-18.875733zM827.835733 239.138133c16.145067 0 28.7744 2.2528 37.7856 6.8608 8.977067 4.608 15.291733 10.24 19.012267 16.861867 3.754667 6.656 5.461333 13.858133 5.256533 21.504-0.341333 7.645867-1.297067 14.165333-3.003733 19.5584-1.706667 5.393067-5.461333 16.725333-11.229867 33.723733-5.802667 16.9984-11.946667 35.771733-18.602666 56.1152-6.621867 20.3776-13.277867 40.618667-20.002134 60.6208a3050.9056 3050.9056 0 0 1-16.042666 47.445334c-7.509333 24.302933-16.896 41.1648-28.2624 50.619733-11.229867 9.454933-25.326933 14.165333-42.018134 14.165333H295.253333l12.1856 82.090667H745.472c27.716267 0 41.642667 12.4928 41.642667 37.341867 0 12.151467-2.798933 22.596267-8.260267 31.505066-5.461333 8.772267-16.384 13.243733-32.529067 13.243734H291.703467c-11.537067 0-21.265067-2.696533-29.0816-8.192a66.730667 66.730667 0 0 1-19.456-21.504 134.0416 134.0416 0 0 1-12.629334-28.672 262.007467 262.007467 0 0 1-7.3728-29.115734 875.758933 875.758933 0 0 0-4.8128-26.4192c-2.594133-13.960533-5.802667-31.505067-9.557333-52.394666-3.754667-20.923733-7.8848-44.4416-12.629333-70.178134a44399.684267 44399.684267 0 0 0-51.234134-283.170133H80.1792a33.757867 33.757867 0 0 1-21.742933-6.8608 58.845867 58.845867 0 0 1-14.336-16.418133 67.6864 67.6864 0 0 1-7.7824-20.48A99.498667 99.498667 0 0 1 34.133333 147.387733c0-12.151467 3.857067-22.186667 11.6736-30.139733 7.7824-7.850667 18.397867-11.810133 31.6416-11.810133h87.620267c11.537067 0 20.855467 1.809067 27.716267 5.495466 6.929067 3.618133 12.3904 8.192 16.452266 13.7216 4.096 5.5296 6.9632 11.264 8.669867 17.339734l4.369067 15.496533c1.194667 4.846933 2.389333 11.707733 3.413333 20.48 1.194667 8.772267 2.389333 17.749333 3.447467 26.862933 1.706667 10.922667 3.413333 22.528 5.256533 34.645334 0.1024-0.341333 593.442133-0.341333 593.442133-0.341334z" fill="#CA6042" p-id="9995"></path><path d="M444.177067 238.933333L582.621867 94.139733c16.042667-16.7936 33.757867-25.463467 53.0432-25.873066 19.2512-0.375467 36.864 7.850667 53.0432 24.644266L828.177067 238.933333h-384z" fill="#F8DAA4" p-id="9996"></path></svg>