<svg t="1711176060596" class="icon" viewBox="0 0 1024 1024" version="1.1" xmlns="http://www.w3.org/2000/svg" p-id="3337" width="128" height="128"><path d="M0 0m128 0l768 0q128 0 128 128l0 768q0 128-128 128l-768 0q-128 0-128-128l0-768q0-128 128-128Z" fill="#FAAB0C" p-id="3338"></path><path d="M251.84 705.344a1798.656 1798.656 0 0 0 150.656-45.76v176h65.472v-53.504l35.2 57.024c70.4-38.016 128.128-84.48 173.888-139.392 42.24 52.8 92.224 101.376 149.952 145.024l45.76-54.208a814.464 814.464 0 0 1-154.88-147.84c47.872-80.256 75.328-175.296 80.96-285.12h55.616V292.096H632c7.04-28.864 14.08-59.84 19.712-92.224l-66.88-11.264c-19.712 123.904-57.728 222.464-113.344 295.68l40.832 50.688c12.672-15.488 25.344-31.68 37.312-49.984 23.232 56.32 52.096 109.824 86.592 159.808-42.24 53.504-98.56 97.856-168.256 131.648V194.24H402.496v401.28c-28.864 11.264-57.728 21.12-87.296 30.272v-373.12H249.728v375.936c0 9.152-6.336 16.192-17.6 20.416l19.712 56.32z m359.744-347.776h123.904c-4.928 86.592-24.64 162.624-59.84 227.392a782.656 782.656 0 0 1-87.296-171.072c8.448-18.304 16.192-36.608 23.232-56.32z" fill="#FFFFFF" p-id="3339"></path></svg>