<svg t="1710576931070" class="icon" viewBox="0 0 1185 1024" version="1.1" xmlns="http://www.w3.org/2000/svg" p-id="2477" width="128" height="128"><path d="M78.955789 835.637895V739.435789H325.524211c39.343158 0 65.482105-3.772632 78.416842-11.317894 18.863158-11.317895 28.294737-28.294737 28.294736-50.930527 0-26.408421-11.048421-45.541053-33.145263-57.397894-12.395789-7.006316-32.336842-10.509474-59.823158-10.509474h-100.24421c-60.901053 0-104.825263-11.048421-131.772632-33.145263a144.815158 144.815158 0 0 1-39.181473-52.547369A163.947789 163.947789 0 0 1 53.894737 455.68c0-37.726316 11.048421-72.218947 33.145263-103.477895 21.557895-30.181053 56.050526-47.966316 103.477895-53.355789 16.168421-1.616842 40.151579-2.425263 71.949473-2.425263h267.587369v96.202105H288.336842c-36.109474 0.538947-60.092632 2.155789-71.949474 4.850526-24.252632 5.928421-36.378947 24.252632-36.378947 54.972632 0 25.869474 10.24 43.115789 30.72 51.738947 13.473684 6.467368 36.109474 9.701053 67.907368 9.701053h86.501053c44.193684 0 77.069474 3.772632 98.627369 11.317895 38.265263 12.934737 64.673684 35.570526 79.225263 67.907368 11.317895 25.869474 16.976842 53.625263 16.976842 83.267368 0 32.875789-7.545263 62.248421-22.63579 88.117895-21.018947 36.648421-52.547368 58.745263-94.585263 66.290526-20.48 3.233684-51.469474 4.850526-92.968421 4.850527H78.955789zM753.178947 440.32v395.317895h-109.945263V296.421053h147.132632l214.231579 401.785263V296.421053h109.136842v539.216842h-140.665263z" fill="#323233" p-id="2478"></path></svg>