<svg t="1710403075294" class="icon" viewBox="0 0 1024 1024" version="1.1" xmlns="http://www.w3.org/2000/svg" p-id="1769" width="128" height="128"><path d="M525.126749 498.269091a28.951273 28.951273 0 0 0-26.670545 9.774545 27.554909 27.554909 0 0 0-4.887273 27.461819l56.692364 150.434909-86.43491 88.622545-86.62109-88.622545L433.804567 535.505455a27.554909 27.554909 0 0 0-4.887272-27.461819 28.951273 28.951273 0 0 0-26.670546-9.774545C223.744931 527.639273 92.998749 679.098182 93.09184 856.436364a27.368727 27.368727 0 0 0 8.285091 19.828363 28.532364 28.532364 0 0 0 20.247273 8.098909h535.04c10.379636 0 19.874909-5.585455 24.762181-14.522181a27.508364 27.508364 0 0 0-0.372363-27.55491l-55.947637-92.346181a45.986909 45.986909 0 0 1 0-47.290182l62.789819-104.261818a27.368727 27.368727 0 0 0-8.005819-36.864 375.528727 375.528727 0 0 0-154.763636-63.301819zM309.947113 297.890909c0 87.412364 72.331636 158.254545 161.605818 158.254546 89.227636 0 161.559273-70.842182 161.559273-158.254546S560.780567 139.636364 471.552931 139.636364C382.278749 139.636364 309.947113 210.478545 309.947113 297.890909zM762.136204 647.912727h140.241454a28.206545 28.206545 0 0 0 28.532364-27.927272c0-15.36-12.753455-27.927273-28.532364-27.927273h-140.241454a28.625455 28.625455 0 0 0-24.669091 13.963636 27.461818 27.461818 0 0 0 0 27.927273c5.073455 8.657455 14.475636 13.963636 24.669091 13.963636z m140.148363 43.938909h-70.283636a28.253091 28.253091 0 0 0-27.461818 27.927273c0 15.034182 12.101818 27.368727 27.461818 27.927273h70.283636a28.253091 28.253091 0 0 0 27.461818-27.927273 28.253091 28.253091 0 0 0-27.461818-27.927273z m0 99.421091h-140.148363a28.625455 28.625455 0 0 0-24.669091 13.963637 27.461818 27.461818 0 0 0 0 27.927272c5.073455 8.657455 14.475636 13.963636 24.669091 13.963637h140.241454a28.625455 28.625455 0 0 0 24.669091-13.963637 27.415273 27.415273 0 0 0 0-27.927272 28.625455 28.625455 0 0 0-24.669091-13.963637h-0.093091z" fill="#000" p-id="1770"></path></svg>