<?xml version="1.0" encoding="UTF-8"?>
<svg width="26px" height="26px" viewBox="0 0 26 26" version="1.1" xmlns="http://www.w3.org/2000/svg" xmlns:xlink="http://www.w3.org/1999/xlink">
    <title>结果_等待</title>
    <g id="界面设计-机具管理" stroke="none" stroke-width="1" fill="none" fill-rule="evenodd">
        <g id="订单-待发货" transform="translate(-144.000000, -120.000000)">
            <g id="结果_等待" transform="translate(144.000000, 120.000000)">
                <rect id="矩形" fill-opacity="0" fill="#FFFFFF" x="0" y="0" width="26" height="26"></rect>
                <path d="M13,2.03125 C19.0577458,2.03125 23.96875,6.94225422 23.96875,13 C23.96875,19.0577458 19.0577458,23.96875 13,23.96875 C6.94225422,23.96875 2.03125,19.0577458 2.03125,13 C2.03125,6.94225422 6.94225422,2.03125 13,2.03125 Z M13.2991343,8.01420879 L12.2022729,8.01420879 C12.0921297,8.01420879 12.002841,8.10349744 12.002841,8.21364068 L12.002841,12.5871836 L12.0063311,12.6933811 C12.0322808,13.1184916 12.2128033,13.5194363 12.5138847,13.8206712 L16.5678301,17.8751308 C16.6456698,17.9530572 16.7719432,17.9531273 16.8498705,17.8752877 L17.6258185,17.0993397 C17.7037449,17.0215 17.703815,16.8952266 17.6259754,16.8172992 L13.571359,12.7636877 L13.5464299,12.733773 C13.5153851,12.6911984 13.4986286,12.6398819 13.4985662,12.5871905 L13.4985662,8.2136476 C13.4985662,8.10350437 13.4092776,8.01420879 13.2991343,8.01420879 Z" id="形状" fill="#000" fill-rule="nonzero"></path>
            </g>
        </g>
    </g>
</svg>