<svg t="1711177973300" class="icon" viewBox="0 0 1024 1024" version="1.1" xmlns="http://www.w3.org/2000/svg" p-id="10944" width="128" height="128"><path d="M512 64a448 448 0 1 1 0 896A448 448 0 0 1 512 64.073143z m0 76.068571a372.077714 372.077714 0 1 0 0.146286 744.082286A372.077714 372.077714 0 0 0 512 139.995429z m23.990857 307.931429c4.388571 0 8.045714 3.657143 8.045714 8.045714v271.945143c0 4.388571-3.657143 8.045714-8.045714 8.045714h-47.981714a8.045714 8.045714 0 0 1-8.045714-8.045714V455.972571c0-4.388571 3.657143-7.972571 8.045714-7.972571zM512 287.963429A47.981714 47.981714 0 1 1 512 384a47.981714 47.981714 0 0 1 0-96.036571z" fill="#969799" p-id="10945"></path></svg>