<svg t="1710832694488" class="icon" viewBox="0 0 1024 1024" version="1.1" xmlns="http://www.w3.org/2000/svg" p-id="2367" width="128" height="128"><path d="M0 0h1024v1024H0z" fill="#D8D8D8" fill-opacity="0" p-id="2368"></path><path d="M519.104 917.312a398.208 398.208 0 1 0 0-796.416 398.208 398.208 0 0 0 0 796.416z m0 56.96A455.104 455.104 0 1 1 519.104 64a455.104 455.104 0 0 1 0 910.208zM521.6 583.04c14.4 0 24-9.088 28.8-22.848l19.2-251.456c0-27.456-24-45.696-48-45.696-28.8 0-48 22.848-48 50.304l19.2 246.848c4.8 13.76 14.4 22.848 28.8 22.848z m0 38.592c-28.8 0-48 19.2-48 48s19.2 48 48 48 48-19.2 48-48-19.2-48-48-48z" fill="#ED6A0C" p-id="2369"></path></svg>