<?xml version="1.0" encoding="UTF-8"?>
<svg width="201px" height="200px" viewBox="0 0 201 200" version="1.1" xmlns="http://www.w3.org/2000/svg" xmlns:xlink="http://www.w3.org/1999/xlink">
    <title>空态_消息</title>
    <g id="图标层" stroke="none" stroke-width="1" fill="none" fill-rule="evenodd">
        <g id="画板" transform="translate(-87.000000, -275.000000)">
            <g id="空态_消息" transform="translate(87.500000, 275.000000)">
                <rect id="路径" x="0" y="0" width="200" height="200"></rect>
                <path d="M0,0 L200,0 L200,200 L0,200 L0,0 Z" id="矩形"></path>
                <g id="56" transform="translate(16.800000, 18.400000)">
                    <rect id="路径" x="0" y="0" width="159.6" height="142.8"></rect>
                    <path d="M84.6,20.4 C51.136,20.4 24,47.744 24,81.6 C24,115.456 51.136,142.8 84.6,142.8 C118.064,142.8 145.2,115.456 145.2,81.6 C145.2,47.744 117.944,20.4 84.6,20.4 Z" id="路径" fill="#F1F4FA"></path>
                    <path d="M148.8,110.4 C146.152,110.4 144,112.552 144,115.2 C144,117.848 146.152,120 148.8,120 C151.448,120 153.6,117.848 153.6,115.2 C153.6,112.552 151.448,110.4 148.8,110.4 Z" id="路径" fill="#EAEEF9"></path>
                    <path d="M156,94.8 C154.016,94.8 152.4,96.408 152.4,98.4 C152.4,100.392 154.016,102 156,102 C157.984,102 159.6,100.392 159.6,98.4 C159.6,96.408 157.984,94.8 156,94.8 Z" id="路径" fill="#EAEEF9"></path>
                    <path d="M27.6,34.8 C25.616,34.8 24,36.424 24,38.4 C24,40.392 25.616,42 27.6,42 C29.584,42 31.2,40.392 31.2,38.4 C31.2,36.424 29.584,34.8 27.6,34.8 Z" id="路径" fill="#EAEEF9"></path>
                    <path d="M6,93.6 C2.688,93.6 0,96.288 0,99.6 C0,102.92 2.688,105.6 6,105.6 C9.312,105.6 12,102.92 12,99.6 C12,96.288 9.312,93.6 6,93.6 Z" id="路径" fill="#EAEEF9"></path>
                    <path d="M73.2,109.56 L73.2,117 C73.2,124.624 78.84,130.8 85.8,130.8 C92.76,130.8 98.4,124.624 98.4,117 L98.4,109.56 C98.4,105.928 95.744,103.2 92.6,103.2 L79,103.2 C75.856,103.2 73.2,106.104 73.2,109.56 Z" id="路径" stroke="#E6E7ED" fill="#FFFFFF" stroke-dasharray="0,0"></path>
                    <path d="M77.32,30.752 L77.32,32.008 C64.096,35.064 54.24,46.888 54.24,61.016 C53.517546,68.2235855 50.5042126,78.0182522 45.2,90.4 C39.8957874,102.781748 34.8291207,111.848414 30,117.6 L138,117.6 C121.952,103.674667 113.928,86.0746667 113.928,64.8 L113.928,61.016 C113.928,46.888 104.072,35.064 90.84,32.008 L90.84,30.752 C90.84,26.968 87.872,24 84.08,24 C80.288,24 77.32,26.968 77.32,30.752 Z" id="路径" stroke="#E6E7ED" fill="#FBFCFF" stroke-dasharray="0,0"></path>
                </g>
            </g>
        </g>
    </g>
</svg>