<?xml version="1.0" encoding="UTF-8"?>
<svg width="201px" height="200px" viewBox="0 0 201 200" version="1.1" xmlns="http://www.w3.org/2000/svg" xmlns:xlink="http://www.w3.org/1999/xlink">
    <title>空态_商户</title>
    <g id="图标层" stroke="none" stroke-width="1" fill="none" fill-rule="evenodd">
        <g id="画板" transform="translate(-87.000000, -274.000000)">
            <g id="空态_商户" transform="translate(87.500000, 274.000000)">
                <rect id="路径" x="0" y="0" width="200" height="200"></rect>
                <path d="M0,0 L200,0 L200,200 L0,200 L0,0 Z" id="矩形"></path>
                <rect id="路径" x="32.8" y="38.4" width="147.6" height="122.4"></rect>
                <path d="M100.6,38.4 C67.136,38.4 40,65.744 40,99.6 C40,133.456 67.136,160.8 100.6,160.8 C134.064,160.8 161.2,133.456 161.2,99.6 C161.2,65.744 134.064,38.4 100.6,38.4 Z" id="路径" fill="#F1F4FA"></path>
                <path d="M36.4,70.8 C34.416,70.8 32.8,72.424 32.8,74.4 C32.8,76.392 34.416,78 36.4,78 C38.384,78 40,76.392 40,74.4 C40,72.424 38.384,70.8 36.4,70.8 Z" id="路径" fill="#EAEEF9"></path>
                <g id="编组" opacity="0.809104556" transform="translate(57.000000, 64.000000)">
                    <g id="分组-19">
                        <path d="M8.6,29.9617037 L79.55,29.9617037 L79.55,87.5790311 C79.55,88.9759867 78.4175438,90.1084429 77.0205882,90.1084429 L11.1294118,90.1084429 C9.73245622,90.1084429 8.6,88.9759867 8.6,87.5790311 L8.6,29.9617037 L8.6,29.9617037 Z" id="矩形" fill="#DCE2F0"></path>
                        <rect id="矩形" fill="#D8DFEE" x="2.52941176" y="87.4402174" width="83.4705882" height="5.55978261" rx="2.52941176"></rect>
                        <path d="M14.1741912,0 L71.8258088,0 C73.7169374,-4.15080306e-15 75.25,1.53306261 75.25,3.42419118 L75.25,3.76943875 C75.25,5.66056732 73.7169374,7.19362993 71.8258088,7.19362993 L14.1741912,7.19362993 C12.2830626,7.19362993 10.75,5.66056732 10.75,3.76943875 L10.75,3.42419118 C10.75,1.53306261 12.2830626,-9.66945278e-17 14.1741912,0 Z" id="矩形备份-9" fill="#D9DFEE"></path>
                        <rect id="矩形备份-5" fill="#F7F8FA" fill-rule="nonzero" x="15.05" y="35.9563953" width="58.05" height="27.5755814" rx="1.20147059"></rect>
                        <rect id="矩形备份-7" fill="#F7F8FA" fill-rule="nonzero" x="15.05" y="69.5266684" width="58.05" height="9.59150657" rx="1.20147059"></rect>
                        <path d="M9.99513635,12.4656209 C10.2895153,11.4646709 11.1096808,10.7904449 12.0329124,10.7904449 L73.9670876,10.7904449 C74.8903192,10.7904449 75.7104847,11.4646709 76.0048636,12.4656209 L86,44.0532978 C86,50.8446347 81.1870611,56.3501011 75.25,56.3501011 C69.3129389,56.3501011 64.5,50.8446347 64.5,44.0532978 C64.5,50.8446347 59.6870611,56.3501011 53.75,56.3501011 C47.9135671,56.3501011 43.1634734,51.0296791 43.0041299,44.3974913 L43,44.0532978 C43,50.8446347 38.1870611,56.3501011 32.25,56.3501011 C26.4135671,56.3501011 21.6634734,51.0296791 21.5041299,44.3974913 L21.5,44.0532978 C21.5,50.8446347 16.6870611,56.3501011 10.75,56.3501011 C4.81293894,56.3501011 0,50.8446347 0,44.0532978 L9.99513635,12.4656209 Z" id="路径" stroke="#E6E7ED" fill="#FFFFFF" stroke-dasharray="0,0"></path>
                    </g>
                    <path d="M36.0678629,16.7976488 L42.9997844,23.7231017 L49.9321371,16.7976488 C50.3278165,16.4035859 50.9679422,16.4035859 51.3636216,16.7976488 L54.0110061,19.442691 C54.4069323,19.8370016 54.4072158,20.4776155 54.012272,20.872909 L47.0787844,27.7981017 L54.0110061,34.724917 C54.3764764,35.088896 54.4048311,35.6627429 54.0963968,36.0597824 L54.012272,36.155135 L51.3636216,38.8001773 C50.9679422,39.1942401 50.3278165,39.1942401 49.9321371,38.8001773 L42.9997844,31.8741017 L36.0678629,38.8001773 C35.6721835,39.1942401 35.0320578,39.1942401 34.6363784,38.8001773 L31.9889939,36.155135 C31.5930677,35.7608245 31.5927842,35.1202106 31.987728,34.724917 L38.9207844,27.7981017 L31.9889939,20.872909 C31.5930677,20.4785985 31.5927842,19.8379846 31.987728,19.442691 L34.6363784,16.7976488 C35.0320578,16.4035859 35.6721835,16.4035859 36.0678629,16.7976488 Z" id="合并形状" fill="#CDD5E5" fill-rule="nonzero" opacity="0.511180333"></path>
                </g>
                <g id="编组" transform="translate(148.781107, 103.106399) scale(1, -1) rotate(96.000000) translate(-148.781107, -103.106399) translate(114.062214, 79.500000)">
                    <g id="Path" stroke-dasharray="8.21091365814209,4.105456829071045" transform="translate(0.000000, 3.078569)" stroke="#C9D4E2" stroke-width="2.05272848">
                        <path d="M16.538973,13.9728051 C16.4363366,14.0275445 16.3337001,14.0822839 16.2310637,14.1370234 C16.2447486,14.9239026 16.347385,15.697097 16.538973,16.4497641 C17.4695432,20.0625662 20.5760057,23.0663923 24.4009231,23.7848472 C26.7820881,24.4006658 29.6901201,23.572732 31.1407149,21.6157975 C32.4818309,19.5562266 32.1739216,16.4497641 30.5180539,14.5817812 C28.8621863,12.5222103 26.173112,11.6942765 23.6893105,11.7969129 C21.1986666,11.8995493 18.7148652,12.8301196 16.538973,13.9728051 Z" id="路径"></path>
                        <path d="M16.2310637,14.1370234 C9.33389602,17.9824681 3.77100183,24.6264659 1.42404893,32.3584099 C0.21293913,36.1764848 -0.211291423,40.1861478 0.0966178492,44.1342289" id="路径"></path>
                        <path d="M62.6090425,1.67696148 C50.8126962,-0.916318833 38.1747312,-0.498930708 26.5768153,2.90859857 C24.1956502,3.63389597 21.6092123,4.56446621 19.7480718,6.21349143 C17.4490159,8.10200163 16.1900091,11.1537246 16.2310637,14.1370234" id="路径"></path>
                    </g>
                    <path d="M65.95499,0.0889943823 C64.709668,0.383218798 64.2991223,1.75170445 65.0107349,3.03123854 C65.7428747,4.39288177 66.2628992,5.37819144 67.3987423,5.07712459 C68.5482703,4.78974261 68.6509067,3.41441452 68.7535431,1.94329244 C68.958816,0.184788378 67.0908331,-0.205230033 65.95499,0.0889943823 Z" id="路径" fill="#DAE2EB"></path>
                    <path d="M64.134904,7.88252019 C63.1632792,8.98415114 63.7517281,10.5715945 64.7233529,11.0574069 C65.8934081,11.6595406 67.1660998,11.0574069 67.4534818,9.57259997 C67.7545486,7.7867262 68.0419306,6.7945741 67.0703058,6.29507683 C65.9960445,5.802422 65.3118017,6.6987801 64.134904,7.88252019 Z" id="路径" fill="#DAE2EB"></path>
                    <g id="Path" transform="translate(63.635332, 4.106394)" fill="#989FB0">
                        <path d="M5.11821091,1.8971434 C5.11821091,1.7471434 5.11821091,1.7471434 5.11821091,1.8971434 L5.11821091,1.8971434 Z" id="路径"></path>
                        <path d="M4.13974366,0.224905433 C3.92078596,0.135953865 3.59919183,0.0401598692 3.27075527,0.0401598692 C1.53277849,-0.144585694 0.116395839,0.320699428 0.006916987,1.17600296 C-0.102561865,2.0313065 1.10170551,2.89345246 2.61388216,3.07819802 C3.05179757,3.07819802 3.3733917,3.07819802 3.70867068,3.07819802 C4.46818022,2.98240403 5.00873205,2.50343405 5.11821091,1.8397185 C5.22084733,1.08020897 4.79661678,0.416493424 4.13974366,0.224905433 Z" id="路径"></path>
                    </g>
                </g>
            </g>
        </g>
    </g>
</svg>