<?xml version="1.0" encoding="UTF-8"?>
<svg width="201px" height="200px" viewBox="0 0 201 200" version="1.1" xmlns="http://www.w3.org/2000/svg" xmlns:xlink="http://www.w3.org/1999/xlink">
    <title>空态_订单</title>
    <g id="图标层" stroke="none" stroke-width="1" fill="none" fill-rule="evenodd">
        <g id="画板" transform="translate(-87.000000, -274.000000)">
            <g id="空态_订单" transform="translate(87.500000, 274.000000)">
                <rect id="路径" x="0" y="0" width="200" height="200"></rect>
                <path d="M0,0 L200,0 L200,200 L0,200 L0,0 Z" id="矩形"></path>
                <rect id="路径" x="18.4" y="40" width="163.2" height="122.4"></rect>
                <path d="M163.6,124 C160.952,124 158.8,126.152 158.8,128.8 C158.8,131.456 160.952,133.6 163.6,133.6 C166.248,133.6 168.4,131.456 168.4,128.8 C168.4,126.152 166.248,124 163.6,124 Z" id="路径" fill="#EAEEF9"></path>
                <path d="M154,140.8 C152.016,140.8 150.4,142.424 150.4,144.4 C150.4,146.392 152.016,148 154,148 C155.992,148 157.6,146.392 157.6,144.4 C157.6,142.424 155.992,140.8 154,140.8 Z" id="路径" fill="#EAEEF9"></path>
                <path d="M44.8,59.2 C42.808,59.2 41.2,60.824 41.2,62.8 C41.2,64.792 42.808,66.4 44.8,66.4 C46.784,66.4 48.4,64.792 48.4,62.8 C48.4,60.824 46.784,59.2 44.8,59.2 Z" id="路径" fill="#EAEEF9"></path>
                <path d="M24.4,118 C21.088,118 18.4,120.688 18.4,124 C18.4,127.312 21.088,130 24.4,130 C27.712,130 30.4,127.312 30.4,124 C30.4,120.688 27.712,118 24.4,118 Z" id="路径" fill="#EAEEF9"></path>
                <path d="M100.6,40 C67.136,40 40,67.344 40,101.2 C40,135.056 67.136,162.4 100.6,162.4 C134.064,162.4 161.2,135.056 161.2,101.2 C161.2,67.344 134.064,40 100.6,40 Z" id="路径" fill="#F3F4FA"></path>
                <path d="M63.744,49.6 C61.792,49.6 60.4,51.12 60.4,52.912 L60.4,150.688 C60.4,152.616 61.928,154 63.744,154 L136.256,154 C138.208,154 139.6,152.48 139.6,150.688 L139.6,52.912 C139.6,50.976 138.072,49.6 136.256,49.6 L63.744,49.6 Z" id="路径" fill="#E5EAEF"></path>
                <path d="M135.696,55.6 L129.976,57.696 L64,148.16 L69.856,154 L136.256,154 C138.208,154 139.6,152.472 139.6,150.664 L139.6,59.36 L135.696,55.6 Z" id="路径" fill="#E5EAEF"></path>
                <path d="M134.744,148 C135.304,148 135.864,147.592 135.864,146.896 L136,56.72 C136,56.168 135.584,55.6 134.88,55.6 L65.12,55.6 C64.56,55.6 64,56.024 64,56.72 L64,146.896 C64,147.448 64.416,148 65.12,148 L134.744,148 Z" id="路径" fill="#D9DFEE"></path>
                <path d="M64.288,55.6 C63.736,55.6 63.176,56.016 63.176,56.712 C64.008,92.376 64.288,132.736 60.4,143.2 L126.888,142.232 C130.912,124.048 133.968,91.416 134.8,56.712 C134.8,56.16 134.384,55.6 133.688,55.6 L64.288,55.6 Z" id="路径" fill="#EFF3FB"></path>
                <path d="M134.192,96.168 C134.192,95.888 134.192,95.744 134.192,95.472 C135.306667,72.4906667 135.909333,59.2 136,55.6 L63.936,55.728 C63.8453333,94.5066667 59.896,121.693333 52.088,137.288 C51.808,137.848 52.232,138.4 52.784,138.4 C69.792,138.256 80.664,138.128 87.776,137.848 C93.488,137.848 96.696,137.576 98.368,137.432 C101.992,137.008 132.096,129.952 134.192,96.168 Z" id="路径" fill="#FFFFFF"></path>
                <line x1="74.8" y1="72.3" x2="104.8" y2="72.3" id="路径" stroke="#939DAE" stroke-width="4.8" opacity="0.325280326" stroke-linecap="round" stroke-linejoin="round" stroke-dasharray="0,0"></line>
                <line x1="74.8" y1="86.7" x2="86.8" y2="86.7" id="路径" stroke="#939DAE" stroke-width="4.8" opacity="0.325280326" stroke-linecap="round" stroke-linejoin="round" stroke-dasharray="0,0"></line>
                <path d="M109.992,109.096 C110.128,118.864 101.976,131.424 86.8,138.4 C92.56,138.4 95.792,138.12 97.48,137.976 C101.136,137.568 131.632,130.448 133.6,96.4 C129.944,109.096 117.296,109.648 109.992,109.096 Z" id="路径" fill="#EAEEF9"></path>
                <g id="Path" transform="translate(83.200000, 44.800000)" fill="#1C3754">
                    <path d="M4.52,14.4 L27.272,14.4 C30.016,14.4 32.344,12.68 32.344,9.832 L32.344,5.992 C32.48,5.704 32.344,5.408 32.208,5.272 L31.52,4.56 C31.248,4.656 31.0666667,4.8 30.976,4.992 L20.28,4.992 C20.28,4.704 20.28,4.56 20.28,4.272 C20.28,1.992 18.368,0 16.176,0 C13.976,0 12.056,1.992 12.056,4.272 C12.056,4.56 12.056,4.704 12.2,4.84 L1.096,4.84 C0.552,4.84 0,5.272 0,6.128 L0,9.832 C0,12.68 1.92,14.4 4.52,14.4 Z" id="路径"></path>
                    <path d="M32.208,5.272 C32.208,5.128 32.208,5.128 32.208,5.272" id="路径"></path>
                </g>
                <path d="M84.296,48.256 C83.608,48.256 83.2,48.944 83.2,49.496 L83.2,53.056 C83.2,53.328 83.2,53.472 83.2,53.744 C83.608,56.072 85.52,58 87.984,58 L110.816,58 C113.28,58 115.192,56.072 115.6,53.744 C115.6,53.472 115.6,53.328 115.6,53.056 L115.6,49.496 C115.6,48.8 115.192,48.4 114.92,48.256 L103.704,48.256 C103.704,48.112 103.704,47.984 103.704,47.712 C103.704,45.512 101.792,43.6 99.608,43.6 C97.416,43.6 95.504,45.512 95.504,47.712 C95.504,47.84 95.504,47.984 95.504,48.256 L84.296,48.256 Z" id="路径" fill="#B5BDCF"></path>
                <path d="M99.4,46 C98.368,46 97.6,46.784 97.6,47.808 C97.6,48.832 98.504,49.6 99.4,49.6 C100.432,49.6 101.2,48.832 101.2,47.808 C101.2,46.784 100.432,46 99.4,46 Z" id="路径" fill="#EAEEF9"></path>
                <path d="M83.2,53.2 C83.608,55.824 85.536,58 88.008,58 L110.792,58 C113.264,58 115.192,55.824 115.6,53.2 L83.2,53.2 Z" id="路径" fill="#9AA1B2"></path>
                <g id="Path" stroke-dasharray="9.600000381469727,4.800000190734863" transform="translate(115.600000, 56.800000)" stroke="#C9D4E2" stroke-width="2.4">
                    <path d="M35.08,37.848 C32.584,39.64 31.616,43.088 32.312,45.968 C33.144,50.648 36.744,54.504 41.184,55.608 C42.104,55.84 43.064,55.952 44.04,55.96 C44.104,55.84 44.168,55.72 44.232,55.608 C45.76,52.992 46.864,49.968 47.008,46.936 C47.144,43.904 46.176,40.736 43.68,38.672 C41.464,36.608 37.72,36.192 35.08,37.848 Z" id="路径"></path>
                    <path d="M59.208,0 C62.264,14.312 61.848,29.456 57.688,43.488 C56.712,46.384 55.744,49.544 53.664,51.752 C51.376,54.456 47.624,55.968 44.04,55.9600316" id="路径"></path>
                    <path d="M44.04,55.96 C39.424,64.328 31.208,70.92 21.768,73.912 C14.696,76.112 7.072,76.112 0,74.184" id="路径"></path>
                </g>
                <path d="M178.808,48.424 C176.704,48.544 174.896,48.68 174.44,49.992 C174.144,51.304 175.496,51.952 177.456,52.752 C179.256,53.656 181.064,53.136 181.52,51.696 C181.816,50.248 181.368,48.16 178.808,48.424 Z" id="路径" fill="#DAE2EB"></path>
                <path d="M174.184,50.384 C173.432,49.232 172.224,49.616 169.664,49.872 C167.552,50.264 166.648,51.784 167.552,53.064 C168.304,54.216 170.416,54.976 171.92,53.832 C173.584,52.56 174.944,51.664 174.184,50.384 Z" id="路径" fill="#DAE2EB"></path>
                <g id="Path" transform="translate(172.000000, 48.401162)" fill="#989FB0">
                    <path d="M1.896,0.0228379155 L1.896,0.0228379155 L1.896,0.0228379155 Z" id="路径"></path>
                    <path d="M0,1.81483792 C0,2.22283792 0,2.50283792 0,3.06283792 C0.16,4.86283792 1.576,6.23883792 2.992,5.96683792 C4.256,5.82283792 5.048,4.16683792 4.728,2.22283792 C4.728,1.95083792 4.576,1.54283792 4.416,1.25483792 C4.096,0.430837915 2.992,-0.121162085 1.896,0.0228379155 C0.792,0.150837915 0.16,0.846837915 0,1.81483792 Z" id="路径"></path>
                </g>
            </g>
        </g>
    </g>
</svg>