<?xml version="1.0" encoding="UTF-8"?>
<svg width="201px" height="200px" viewBox="0 0 201 200" version="1.1" xmlns="http://www.w3.org/2000/svg" xmlns:xlink="http://www.w3.org/1999/xlink">
    <title>空态_金额</title>
    <defs>
        <rect id="path-1" x="0" y="0" width="200" height="200"></rect>
    </defs>
    <g id="图标层" stroke="none" stroke-width="1" fill="none" fill-rule="evenodd">
        <g id="画板" transform="translate(-87.000000, -274.000000)">
            <g id="空态_金额" transform="translate(87.500000, 274.000000)">
                <mask id="mask-2" fill="white">
                    <use xlink:href="#path-1"></use>
                </mask>
                <use id="蒙版" fill-opacity="0" fill="#D8D8D8" xlink:href="#path-1"></use>
                <g id="30" mask="url(#mask-2)">
                    <g transform="translate(34.500000, 26.500000)">
                        <rect id="路径" stroke="none" fill="none" x="0" y="4.28295277e-05" width="130.329538" height="134.499957"></rect>
                        <path d="M4.15335397,22.7394143 C2.59328032,23.2731237 1.67639494,25.004258 2.20326191,26.5985438 C2.72328646,28.1996721 4.41336624,29.1233999 6.11028846,28.5965329 C7.6703621,28.0628235 8.58724749,26.3316891 8.06038051,24.7374033 C7.54035597,23.1362751 5.85027618,22.2125473 4.15335397,22.7394143 Z" id="路径" stroke="none" fill="#EAEEF9" fill-rule="evenodd"></path>
                        <path d="M11.6663402,15.5118277 C10.6331335,15.9018461 9.98994528,17.0582165 10.3799637,18.0914232 C10.6331335,19.1314723 11.7963463,19.7746605 12.9595591,19.3846421 C13.9996082,19.0083086 14.6427965,17.8382533 14.2527781,16.8050467 C13.8696021,15.7649976 12.7063893,15.1218093 11.6663402,15.5118277 Z" id="路径" stroke="none" fill="#EAEEF9" fill-rule="evenodd"></path>
                        <path d="M116.466682,36.1074419 C114.537118,37.818049 114.407111,40.8424023 116.20667,42.6761731 C117.876223,44.5167863 120.845836,44.6536348 122.638553,42.9498702 C124.57496,41.2324207 124.691281,38.2149098 122.898565,36.3742966 C121.22217,34.5405259 118.266241,34.4036773 116.466682,36.1074419 Z" id="路径" stroke="none" fill="#EAEEF9" fill-rule="evenodd"></path>
                        <path d="M126.91507,48.7970103 C126.093979,49.6112592 125.950288,50.8292115 126.778222,51.6297756 C127.455622,52.5808731 128.817265,52.5808731 129.645199,51.7666241 C130.466291,50.9592176 130.596297,49.7481078 129.782048,48.9338588 C128.960956,48.1196099 127.729319,47.9964462 126.91507,48.7970103 Z" id="路径" stroke="none" fill="#EAEEF9" fill-rule="evenodd"></path>
                        <path d="M8.89515676,125.816959 C8.0809078,126.624365 7.94405923,127.862845 8.7583082,128.683936 C9.57939959,129.498185 10.8110367,129.641876 11.6321281,128.813942 C12.446377,128.006536 12.5832256,126.768056 11.7689766,125.946965 C10.9478852,125.132716 9.71624815,124.989025 8.89515676,125.816959 Z" id="路径" stroke="none" fill="#EAEEF9" fill-rule="evenodd"></path>
                        <path d="M60.5460819,14.3691422 C27.0233925,14.3691422 0,41.2565501 0,74.3661205 C0,107.598902 27.0233925,134.5 60.5460819,134.5 C93.9319441,134.5 121.092164,107.598902 121.092164,74.5030217 C120.955337,41.2565501 93.9319441,14.3691422 60.5460819,14.3691422 Z" id="路径" stroke="none" fill="#F3F4FA" fill-rule="evenodd"></path>
                        <path d="M15.3954636,41.2947087 C15.3954636,42.5674003 16.1139186,43.9632557 17.0718585,44.8869835 C18.2761259,46.0501963 19.7130359,46.748124 21.3962732,47.322888 C21.5125945,47.322888 21.6357582,47.4460517 21.7520795,47.4460517 C23.0726681,47.7950155 24.3932568,48.0208157 25.7138454,48.0208157 L95.6639897,48.2534582 L100.221047,48.2534582 L100.583696,48.2534582 L100.583696,43.7306131 C100.583696,40.022017 98.305167,36.9976637 94.8292134,35.6086508 C94.343401,35.3691658 93.8712735,35.2596869 93.3854611,35.1433657 C92.7833274,35.0202019 92.1880361,34.9107231 91.4627387,34.9107231 L25.1117118,34.9107231 C24.6327418,34.9107231 24.1537718,35.0202019 23.6748018,35.0202019 C22.4773769,35.1433657 21.2731095,35.3691658 20.3151695,35.8412933 C17.4345072,36.9976637 15.3954636,38.8519618 15.3954636,41.2947087 Z" id="路径" stroke="none" fill="#C0C8D7" fill-rule="evenodd"></path>
                        <path d="M100.583696,48.2546937 C99.7489193,45.8598438 97.8330394,43.8139577 95.1918621,42.7807511 C94.7060497,42.5549509 94.2339222,42.4386297 93.7481098,42.3291508 C93.1459761,42.2128295 92.5506848,42.0965082 91.8253874,42.0965082 L25.4880453,42.0965082 C25.0090753,42.0965082 24.5232629,42.0965082 24.0442929,42.2128295 C22.846868,42.3291508 21.6494431,42.5549509 20.6846607,43.0065512 C19.3709144,43.4718363 18.2898108,44.1560792 17.4481921,44.9498008 C18.645617,46.0856439 20.0893694,46.7767292 21.7657643,47.3446507 C21.888928,47.3446507 22.0052493,47.460972 22.128413,47.460972 C23.4490017,47.8030934 24.7695903,48.0288936 26.0833366,48.0288936 L96.0266384,48.2546937 L100.583696,48.2546937 Z" id="路径" stroke="none" fill="#020305" fill-rule="evenodd" opacity="0.1"></path>
                        <path d="M100.186835,48.1348704 L95.1781773,48.1348704 L25.5496272,47.7790641 C24.2358809,47.7790641 22.798971,47.5395791 21.6083885,47.1837728 C21.4852248,47.1837728 21.3689035,47.0606091 21.2457398,47.0606091 C17.8997924,46.1095116 15.3954636,43.7283465 15.3954636,41.1008541 C15.3954636,42.6472429 15.5117849,49.3254529 15.5117849,58.2821915 C15.5117849,59.7054166 15.5117849,61.0191628 15.5117849,62.332909 C15.6349486,66.869439 15.6349486,71.6454539 15.6349486,76.4146264 C15.6349486,77.8446939 15.6349486,79.1515977 15.6349486,80.4653439 C15.7512699,89.5315614 15.7512699,98.4883 15.7512699,105.16651 C15.7512699,106.60342 15.7512699,108.026645 15.7512699,109.230912 C15.7512699,110.058846 15.7512699,110.900465 15.7512699,111.728399 C15.7512699,113.404794 16.5928886,115.074346 17.8997924,116.141765 C20.7667698,118.406609 25.3101422,121.157265 31.1604184,121.157265 L101.507423,121.157265 C105.571826,121.157265 108.79461,117.934481 108.79461,113.876921 L108.79461,55.2988928 C108.79461,51.2481752 105.571826,48.0117066 101.391102,48.1348704 L100.186835,48.1348704 Z" id="路径" stroke="#E6E7ED" stroke-width="1" fill="#FBFCFF" fill-rule="evenodd" stroke-dasharray="0,0"></path>
                        <path d="M93.8914823,91.3745229 L108.034782,91.3745229 C108.746394,91.3745229 109.328,91.1418804 109.574328,90.7860741 C109.683807,90.6697528 109.80697,90.4371103 109.80697,90.3139465 L109.80697,72.9341787 C109.80697,72.3388875 109.218522,71.9830812 108.506909,71.8736024 L108.506909,73.9810703 C108.390588,73.9810703 108.274266,73.9810703 108.034782,73.9810703 L93.8914823,73.9810703 C91.4145232,73.9810703 89.3002129,74.9253254 87.767509,76.4580293 C86.3511263,77.8607271 85.2837075,79.9750374 85.1742287,82.205669 C85.1742287,82.3288328 85.1742287,82.5614753 85.1742287,82.6777966 C85.1742287,87.4948661 89.0675703,91.3745229 93.8914823,91.3745229 Z" id="路径" stroke="none" fill="#E3E8EF" fill-rule="evenodd"></path>
                        <path d="M93.3857322,78.0323173 C90.587179,78.0323173 88.253911,80.3655853 88.253911,83.1641385 C88.253911,85.9626916 90.587179,88.2959597 93.3857322,88.2959597 C96.1842854,88.2959597 98.5175534,85.9626916 98.5175534,83.1641385 C98.5175534,80.3655853 96.1842854,78.0323173 93.3857322,78.0323173 Z" id="路径" stroke="none" fill="#F6F8FF" fill-rule="evenodd"></path>
                        <g id="编组" stroke="none" stroke-width="1" fill="none" fill-rule="evenodd" transform="translate(61.562214, 0.000000)">
                            <g id="Path" stroke-dasharray="8.21091365814209,4.105456829071045" transform="translate(0.000000, 3.078569)" stroke="#C9D4E2" stroke-width="2.05272848">
                                <path d="M16.538973,13.9728051 C16.4363366,14.0275445 16.3337001,14.0822839 16.2310637,14.1370234 C16.2447486,14.9239026 16.347385,15.697097 16.538973,16.4497641 C17.4695432,20.0625662 20.5760057,23.0663923 24.4009231,23.7848472 C26.7820881,24.4006658 29.6901201,23.572732 31.1407149,21.6157975 C32.4818309,19.5562266 32.1739216,16.4497641 30.5180539,14.5817812 C28.8621863,12.5222103 26.173112,11.6942765 23.6893105,11.7969129 C21.1986666,11.8995493 18.7148652,12.8301196 16.538973,13.9728051 Z" id="路径"></path>
                                <path d="M16.2310637,14.1370234 C9.33389602,17.9824681 3.77100183,24.6264659 1.42404893,32.3584099 C0.21293913,36.1764848 -0.211291423,40.1861478 0.0966178492,44.1342289" id="路径"></path>
                                <path d="M62.6090425,1.67696148 C50.8126962,-0.916318833 38.1747312,-0.498930708 26.5768153,2.90859857 C24.1956502,3.63389597 21.6092123,4.56446621 19.7480718,6.21349143 C17.4490159,8.10200163 16.1900091,11.1537246 16.2310637,14.1370234" id="路径"></path>
                            </g>
                            <path d="M65.95499,0.0889943823 C64.709668,0.383218798 64.2991223,1.75170445 65.0107349,3.03123854 C65.7428747,4.39288177 66.2628992,5.37819144 67.3987423,5.07712459 C68.5482703,4.78974261 68.6509067,3.41441452 68.7535431,1.94329244 C68.958816,0.184788378 67.0908331,-0.205230033 65.95499,0.0889943823 Z" id="路径" fill="#DAE2EB"></path>
                            <path d="M64.134904,7.88252019 C63.1632792,8.98415114 63.7517281,10.5715945 64.7233529,11.0574069 C65.8934081,11.6595406 67.1660998,11.0574069 67.4534818,9.57259997 C67.7545486,7.7867262 68.0419306,6.7945741 67.0703058,6.29507683 C65.9960445,5.802422 65.3118017,6.6987801 64.134904,7.88252019 Z" id="路径" fill="#DAE2EB"></path>
                            <g id="Path" transform="translate(63.635332, 4.106394)" fill="#989FB0">
                                <path d="M5.11821091,1.8971434 C5.11821091,1.7471434 5.11821091,1.7471434 5.11821091,1.8971434 L5.11821091,1.8971434 Z" id="路径"></path>
                                <path d="M4.13974366,0.224905433 C3.92078596,0.135953865 3.59919183,0.0401598692 3.27075527,0.0401598692 C1.53277849,-0.144585694 0.116395839,0.320699428 0.006916987,1.17600296 C-0.102561865,2.0313065 1.10170551,2.89345246 2.61388216,3.07819802 C3.05179757,3.07819802 3.3733917,3.07819802 3.70867068,3.07819802 C4.46818022,2.98240403 5.00873205,2.50343405 5.11821091,1.8397185 C5.22084733,1.08020897 4.79661678,0.416493424 4.13974366,0.224905433 Z" id="路径"></path>
                            </g>
                        </g>
                        <path d="M20.1441088,23.4011475 C21.5673339,22.9153351 22.0052493,21.3552615 21.0199397,19.8909818 C19.9251511,18.2419566 19.1587992,17.0787438 17.7355741,17.5577138 C16.4218279,18.0503686 16.4218279,19.6993938 16.4218279,21.3552615 C16.4218279,23.5995779 18.9398415,23.8938023 20.1441088,23.4011475 Z" id="路径" stroke="none" fill="#DAE2EB" fill-rule="evenodd"></path>
                        <path d="M21.0404669,14.1091299 C22.1215706,12.7064321 21.3689035,10.9068735 19.9593633,10.4005338 C18.5566655,9.90103653 16.8323735,10.7973946 16.6134158,12.5080017 C16.4013006,14.6017847 16.072864,15.8060521 17.4824042,16.298707 C18.885102,16.8050467 19.6377691,15.7034157 21.0404669,14.1091299 Z" id="路径" stroke="none" fill="#DAE2EB" fill-rule="evenodd"></path>
                        <path d="M16.6544704,19.2341087 C16.9418524,19.35043 17.2360768,19.4599088 17.5234588,19.4599088 C19.1656416,19.685709 20.4246484,18.8988297 20.5204424,17.7493018 C20.6230788,16.6134587 19.268278,15.5939368 17.7150468,15.4776156 C17.3318708,15.3681367 16.9418524,15.3681367 16.6544704,15.4776156 C15.97707,15.5939368 15.3954636,16.2781797 15.3954636,17.1882226 C15.3954636,18.2145869 15.881276,19.1246298 16.6544704,19.2341087 Z" id="路径" stroke="none" fill="#989FB0" fill-rule="evenodd"></path>
                        <path d="M22.5744857,17.4482349 C33.6386922,17.4482349 54.0770254,23.8185356 54.3917771,47.2127979" id="路径" stroke="#C9D4E2" stroke-width="2.05272848" fill="none" stroke-dasharray="8.21091365814209,4.105456829071045"></path>
                    </g>
                </g>
            </g>
        </g>
    </g>
</svg>