<?xml version="1.0" encoding="UTF-8"?>
<svg width="201px" height="200px" viewBox="0 0 201 200" version="1.1" xmlns="http://www.w3.org/2000/svg" xmlns:xlink="http://www.w3.org/1999/xlink">
    <title>空态_卡包</title>
    <g id="图标层" stroke="none" stroke-width="1" fill="none" fill-rule="evenodd">
        <g id="画板" transform="translate(-87.000000, -274.000000)">
            <g id="空态_卡包" transform="translate(87.500000, 274.000000)">
                <rect id="路径" x="0" y="0" width="200" height="200"></rect>
                <path d="M0,0 L200,0 L200,200 L0,200 L0,0 Z" id="矩形"></path>
                <g id="26" transform="translate(32.800000, 38.400000)">
                    <rect id="路径" x="0" y="0" width="147.6" height="122.4"></rect>
                    <path d="M67.8,0 C34.336,0 7.2,27.344 7.2,61.2 C7.2,95.056 34.336,122.4 67.8,122.4 C101.264,122.4 128.4,95.056 128.4,61.2 C128.4,27.344 101.264,0 67.8,0 Z" id="路径" fill="#F3F4FA"></path>
                    <path d="M135.6,26.4 C132.952,26.4 130.8,28.552 130.8,31.2 C130.8,33.856 132.952,36 135.6,36 C138.248,36 140.4,33.856 140.4,31.2 C140.4,28.552 138.248,26.4 135.6,26.4 Z" id="路径" fill="#EAEEF9"></path>
                    <path d="M144,9.6 C142.016,9.6 140.4,11.224 140.4,13.2 C140.4,15.192 142.016,16.8 144,16.8 C145.984,16.8 147.6,15.192 147.6,13.2 C147.6,11.224 145.984,9.6 144,9.6 Z" id="路径" fill="#EAEEF9"></path>
                    <path d="M3.6,32.4 C1.616,32.4 0,34.024 0,36 C0,37.992 1.616,39.6 3.6,39.6 C5.584,39.6 7.2,37.992 7.2,36 C7.2,34.024 5.584,32.4 3.6,32.4 Z" id="路径" fill="#EAEEF9"></path>
                    <path d="M9.6,99.6 C6.288,99.6 3.6,102.288 3.6,105.6 C3.6,108.912 6.288,111.6 9.6,111.6 C12.912,111.6 15.6,108.912 15.6,105.6 C15.6,102.288 12.912,99.6 9.6,99.6 Z" id="路径" fill="#EAEEF9"></path>
                    <path d="M17.504,81.6 L100.096,81.6 C103.088,81.6 105.6,79.072 105.6,76.072 L105.6,25.928 C105.6,22.928 103.088,20.4 100.096,20.4 L17.504,20.4 C14.512,20.4 12,22.928 12,25.928 L12,76.072 C12,79.192 14.512,81.6 17.504,81.6 Z" id="路径" fill="#E7ECF5"></path>
                    <path d="M36.688,42 C33.584,42 31.2,44.488 31.2,47.448 L31.2,80.4 L100.112,80.4 C103.096,80.4 105.6,77.912 105.6,74.952 L105.6,42 L36.688,42 Z" id="路径" fill="#989FB0" opacity="0.3"></path>
                    <path d="M129.6,98.384 L129.6,54.016 C129.6,49.328 125.888,45.6 121.208,45.6 L44.392,45.6 C39.712,45.6 36,49.328 36,54.016 L36,98.384 C36,103.072 39.712,106.8 44.392,106.8 L121.208,106.8 C125.888,106.8 129.6,103.072 129.6,98.384 Z" id="路径" stroke="#E6E7ED" fill="#F8FAFF" stroke-dasharray="0,0"></path>
                    <path d="M61.2,90.6 C61.2,89.584 60.384,88.8 59.336,88.8 L47.464,88.8 C46.416,88.8 45.6,89.584 45.6,90.6 C45.6,91.616 46.416,92.4 47.464,92.4 L59.336,92.4 C60.384,92.4 61.2,91.616 61.2,90.6 Z" id="路径" fill="#D5DDEA"></path>
                    <path d="M80.4,90.6 C80.4,89.584 79.584,88.8 78.536,88.8 L66.664,88.8 C65.616,88.8 64.8,89.584 64.8,90.6 C64.8,91.616 65.616,92.4 66.664,92.4 L78.536,92.4 C79.584,92.4 80.4,91.616 80.4,90.6 Z" id="路径" fill="#D5DDEA"></path>
                    <path d="M100.8,90.6 C100.8,89.584 99.984,88.8 98.936,88.8 L87.064,88.8 C86.016,88.8 85.2,89.584 85.2,90.6 C85.2,91.616 86.016,92.4 87.064,92.4 L98.936,92.4 C99.984,92.4 100.8,91.616 100.8,90.6 Z" id="路径" fill="#D5DDEA"></path>
                    <path d="M120,90.6 C120,89.584 119.184,88.8 118.136,88.8 L106.264,88.8 C105.216,88.8 104.4,89.584 104.4,90.6 C104.4,91.616 105.216,92.4 106.264,92.4 L118.136,92.4 C119.184,92.4 120,91.616 120,90.6 Z" id="路径" fill="#D5DDEA"></path>
                    <path d="M114,55.2 C110.024,55.2 106.8,58.424 106.8,62.4 C106.8,66.384 110.024,69.6 114,69.6 C117.976,69.6 121.2,66.384 121.2,62.4 C121.2,58.424 117.976,55.2 114,55.2 Z" id="路径" fill="#989FB0"></path>
                    <path d="M104.4,55.2 C100.424,55.2 97.2,58.424 97.2,62.4 C97.2,66.384 100.424,69.6 104.4,69.6 C108.376,69.6 111.6,66.384 111.6,62.4 C111.6,58.424 108.376,55.2 104.4,55.2 Z" id="路径" fill="#D5DDEA"></path>
                    <path d="M12,42 L105.6,42 L105.6,30 L12,30 L12,42 Z" id="路径" fill="#989FB0"></path>
                    <path d="M60.6,60 L47.384,60 C46.432,60 45.6,60.824 45.6,61.768 L45.6,70.232 C45.6,71.176 46.432,72 47.384,72 L60.72,72 C61.672,72 62.504,71.176 62.392,70.232 L62.392,61.768 C62.392,60.824 61.552,60 60.6,60 Z" id="路径" fill="#D5DDEA"></path>
                </g>
            </g>
        </g>
    </g>
</svg>