<?xml version="1.0" encoding="UTF-8"?>
<svg width="201px" height="200px" viewBox="0 0 201 200" version="1.1" xmlns="http://www.w3.org/2000/svg" xmlns:xlink="http://www.w3.org/1999/xlink">
    <title>空态_搜索</title>
    <g id="图标层" stroke="none" stroke-width="1" fill="none" fill-rule="evenodd">
        <g id="画板" transform="translate(-87.000000, -274.000000)">
            <g id="空态_搜索" transform="translate(87.500000, 274.000000)">
                <rect id="路径" x="0" y="0" width="200" height="200"></rect>
                <path d="M0,0 L200,0 L200,200 L0,200 L0,0 Z" id="矩形"></path>
                <path d="M99.2,46.4 C67.968,46.4 42.8,71.568 42.8,102.8 C42.8,133.912 67.968,159.2 99.2,159.2 C130.312,159.2 155.6,133.912 155.6,102.8 C155.6,71.688 130.312,46.4 99.2,46.4 Z" id="路径" fill="#F3F4FA"></path>
                <path d="M132.744,140 C135.424,140 137.6,137.696 137.6,135.144 L137.6,92.056 C137.6,89.376 135.296,87.2 132.744,87.2 L64.456,87.2 C61.904,87.2 59.6,89.376 59.6,92.056 L59.6,135.144 C59.6,137.824 61.904,140 64.456,140 L132.744,140 Z" id="路径" fill="#B0BACC"></path>
                <path d="M159.352,82.336 C157.648,83.936 157.536,86.56 159.128,88.28 C160.608,89.88 163.336,90.112 165.048,88.504 C166.752,86.904 166.864,84.28 165.272,82.56 C163.68,80.848 161.064,80.728 159.352,82.336 Z" id="路径" fill="#EAEEF9"></path>
                <path d="M162.184,67.264 C161.488,67.952 161.368,69.096 162.064,69.784 C162.76,70.584 163.92,70.584 164.616,69.896 C165.312,69.208 165.432,68.064 164.736,67.376 C164.04,66.688 162.88,66.576 162.184,67.264 Z" id="路径" fill="#EAEEF9"></path>
                <path d="M117.6,41.888 C117.152,42.344 117.032,43.144 117.488,43.6 C117.944,44.048 118.744,44.168 119.2,43.712 C119.648,43.256 119.768,42.456 119.312,42 C118.856,41.552 118.056,41.432 117.6,41.888 Z" id="路径" fill="#EAEEF9"></path>
                <path d="M140.92,96.488 C141.8,97.128 143.056,96.744 143.68,95.72 L160.4,65.328 L157.008,49.424 L136.272,37.112 C135.392,36.472 134.128,36.856 133.504,37.88 L111.504,76.608 C110.88,77.504 111.256,78.792 112.264,79.432 L140.92,96.488 Z" id="路径" fill="#FBFDFF"></path>
                <path d="M153.504,56.92 C152.872,58.184 153.248,59.456 154.392,60.216 L161.6,64.4 L158.312,48.8 L153.504,56.92 Z" id="路径" fill="#D5DAE6"></path>
                <path d="M144.45582,63.32 C144.31982,63.696 144.18382,64.08 144.04782,64.336 C143.77582,64.848 143.50382,65.232 142.95982,65.48 C142.40782,65.736 142.00782,65.864 141.45582,65.992 C140.91182,66.12 140.36782,66.248 139.82382,66.248 C139.27982,66.376 138.87182,66.376 138.32782,66.504 C137.91982,66.632 137.51182,66.76 137.10382,67.016 C136.83182,67.264 136.42382,67.648 136.28782,68.032 L135.19982,70.328 L137.64782,71.6 L139.14382,69.816 C139.41582,69.56 139.68782,69.432 140.09582,69.304 C140.63982,69.176 141.04782,69.048 141.45582,69.048 L142.95982,68.928 C143.50382,68.928 144.04782,68.8 144.59182,68.544 C145.27182,68.288 145.67982,68.032 146.22382,67.648 C146.76782,67.136 147.17582,66.632 147.58382,65.992 C147.99182,65.352 148.26382,64.592 148.39982,63.824 C148.39982,63.192 148.39982,62.424 148.12782,61.784 C147.85582,61.024 147.44782,60.384 146.90382,59.872 C146.35982,59.24 145.67982,58.728 144.86382,58.344 C144.31982,58.088 143.77582,57.84 143.09582,57.584 C142.55182,57.456 141.87182,57.328 141.31982,57.2 C140.77582,57.2 140.23182,57.2 139.68782,57.2 C139.27982,57.2 138.73582,57.2 138.19182,57.328 L138.05582,59.112 C138.05582,59.368 138.32782,59.752 138.59982,59.872 C138.73582,60 139.00782,60 139.14382,60 C139.41582,60 139.68782,60 140.09582,60 C140.50382,60 140.91182,60 141.31982,60.128 C141.87182,60.256 142.40782,60.512 142.82382,60.768 C143.23182,61.024 143.50382,61.28 143.77582,61.536 C144.04782,61.784 144.18382,62.04 144.31982,62.424 C144.45582,62.68 144.45582,62.936 144.45582,63.32 Z M131.69582,75.816 C131.69582,76.08 131.95182,76.344 132.07982,76.616 C132.33582,76.88 132.59182,77.144 132.84782,77.28 C133.35982,77.544 133.99982,77.68 134.63982,77.544 C135.91982,77.144 136.68782,75.944 136.30382,74.616 C136.17582,74.344 136.04782,74.08 135.91982,73.816 C135.66382,73.544 135.40782,73.28 135.15182,73.144 C134.63982,72.744 133.99982,72.744 133.35982,72.88 C133.10382,72.88 132.84782,73.144 132.59182,73.28 C132.33582,73.544 132.07982,73.816 131.95182,74.08 C131.82382,74.344 131.69582,74.616 131.69582,74.88 C131.56782,75.144 131.56782,75.544 131.69582,75.816 Z" id="Shape" fill="#CED6E2"></path>
                <path d="M52.432,92.744 L72.208,74.296 C72.976,73.664 72.976,72.664 72.336,71.912 L52.944,51.952 L39.808,51.2 L25.392,64.504 C24.624,65.128 24.624,66.136 25.264,66.888 L50.008,92.616 C50.648,93.368 51.672,93.368 52.432,92.744 Z" id="路径" fill="#FBFDFF"></path>
                <path d="M44.584,56.64 C45.352,57.384 46.632,57.384 47.4,56.64 L52.4,52.064 L39.2,51.2 L44.584,56.64 Z" id="路径" fill="#D5DAE6"></path>
                <path d="M51.144,69.24 C51.144,68.872 51.272,68.624 51.272,68.256 C51.392,67.888 51.392,67.52 51.52,67.152 C51.52,66.784 51.52,66.296 51.52,65.928 C51.392,65.44 51.272,64.944 51.144,64.576 C51.016,64.088 50.64,63.592 50.264,63.224 C49.76,62.856 49.264,62.488 48.76,62.248 C48.256,62.12 47.632,62 47.128,62 C46.624,62 45.992,62.12 45.496,62.368 C44.864,62.616 44.36,62.984 43.856,63.472 C43.48,63.84 43.104,64.208 42.856,64.576 C42.608,64.944 42.352,65.312 42.224,65.68 C42.104,66.048 41.976,66.416 41.848,66.784 C41.728,67.152 41.6,67.52 41.6,67.888 L42.984,68.136 C43.232,68.256 43.608,68.256 43.736,68.016 C43.864,67.888 43.984,67.768 43.984,67.648 C43.984,67.52 43.984,67.28 44.112,67.032 C44.24,66.664 44.36,66.416 44.488,66.176 C44.736,65.928 44.992,65.56 45.24,65.312 C45.496,65.064 45.744,64.944 45.992,64.824 C46.248,64.696 46.496,64.576 46.752,64.576 C47,64.576 47.248,64.576 47.504,64.696 C47.752,64.824 48.008,64.944 48.128,65.192 C48.384,65.56 48.632,65.928 48.76,66.296 C48.888,66.664 48.888,67.032 48.888,67.4 C48.888,67.768 48.888,68.136 48.76,68.504 C48.76,68.872 48.632,69.24 48.632,69.608 C48.632,69.976 48.632,70.224 48.76,70.592 C48.888,70.96 49.136,71.2 49.384,71.448 L50.896,72.8 L52.4,71.448 L51.392,69.976 C51.144,69.728 51.144,69.488 51.144,69.24 Z M53.6,75.76 C53.6,75.992 53.6,76.224 53.72,76.456 C53.832,76.696 53.952,76.928 54.064,77.048 C54.184,77.28 54.416,77.392 54.76,77.512 C55.112,77.632 55.576,77.632 56.04,77.512 C56.272,77.512 56.504,77.28 56.616,77.16 C56.856,76.928 56.968,76.808 57.088,76.576 C57.088,76.344 57.2,76.104 57.2,75.872 C57.2,75.64 57.2,75.408 57.088,75.168 C56.856,74.472 56.152,74 55.456,74 C55.224,74 54.992,74 54.76,74.12 C54.528,74.232 54.296,74.352 54.184,74.472 C53.832,74.816 53.6,75.288 53.6,75.76 Z" id="Shape" fill="#CED6E2"></path>
                <path d="M68.064,103.48 L94.28,111.088 C95.176,111.464 96.2,110.832 96.456,109.944 L104,83.2 L98.376,71.288 L79.32,65.712 C78.424,65.336 77.4,65.968 77.144,66.856 L66.912,101.328 C66.528,102.216 67.168,103.232 68.064,103.48 Z" id="路径" fill="#FBFDFF"></path>
                <path d="M95.656,79.248 C95.392,80.28 96.048,81.432 97.096,81.688 L104,83.6 L98.144,71.6 L95.656,79.248 Z" id="路径" fill="#D5DAE6"></path>
                <path d="M87.832,87.84 C87.48,88.096 87.128,88.224 86.776,88.352 C86.544,88.48 86.192,88.6 85.832,88.728 C85.48,88.856 85.248,89.112 85.008,89.368 C84.776,89.624 84.544,89.88 84.544,90.264 L84.192,92.304 L86.072,93.2 L86.776,91.536 C86.776,91.288 87.008,91.032 87.248,90.904 C87.48,90.776 87.832,90.648 88.072,90.52 L89.128,90.136 C89.48,90.008 89.832,89.752 90.184,89.496 C90.536,89.24 90.896,88.856 91.128,88.48 C91.48,87.968 91.712,87.456 91.832,86.944 C91.952,86.432 92.072,85.8 91.952,85.16 C91.832,84.648 91.6,84.136 91.36,83.624 C91.008,83.112 90.656,82.736 90.184,82.352 C89.72,81.968 89.128,81.584 88.536,81.456 C88.072,81.328 87.6,81.2 87.128,81.2 C86.656,81.2 86.304,81.2 85.832,81.2 C85.36,81.2 85.008,81.328 84.656,81.456 C84.304,81.584 83.952,81.712 83.6,81.84 L84.192,83.24 C84.192,83.496 84.424,83.752 84.656,83.752 C84.896,83.88 85.008,83.752 85.128,83.752 C85.248,83.752 85.48,83.624 85.72,83.624 C85.952,83.496 86.304,83.496 86.544,83.496 C87.008,83.496 87.36,83.496 87.72,83.624 C88.072,83.752 88.304,83.88 88.536,84.008 C88.776,84.264 89.008,84.392 89.128,84.648 C89.248,84.904 89.36,85.16 89.36,85.416 C89.36,85.672 89.36,85.92 89.36,86.048 C89.248,86.56 89.008,86.944 88.776,87.2 C88.424,87.456 88.184,87.712 87.832,87.84 Z M83.496,95.68 C83.136,95.56 82.648,95.56 82.168,95.808 C82.048,95.936 81.808,96.064 81.68,96.32 C81.44,96.448 81.44,96.704 81.32,96.952 C81.32,97.208 81.32,97.464 81.2,97.592 C81.32,97.848 81.32,97.976 81.44,98.224 C81.56,98.352 81.68,98.608 81.928,98.736 C82.048,98.992 82.288,98.992 82.528,99.12 C82.888,99.24 83.376,99.24 83.856,98.992 C84.704,98.608 85.064,97.464 84.584,96.576 C84.464,96.448 84.224,96.192 84.096,96.064 C83.976,95.936 83.736,95.808 83.496,95.68 Z" id="Shape" fill="#CED6E2"></path>
                <path d="M140.472,143.424 L165.272,130.056 L170,117.576 L161.048,100.136 C160.672,99.248 159.52,98.992 158.752,99.368 L126.536,116.304 C125.648,116.688 125.392,117.832 125.776,118.6 L138.168,142.664 C138.552,143.552 139.704,143.808 140.472,143.424 Z" id="路径" fill="#F2F6FA"></path>
                <path d="M162.704,120.664 C161.76,121.16 161.352,122.392 161.76,123.264 L165,129.2 L170,117.2 L162.704,120.664 Z" id="路径" fill="#D5DAE6"></path>
                <path d="M149.69592,123.904 C150.05592,124.168 150.52792,124.168 150.88792,124.304 C151.24792,124.432 151.84792,124.432 152.19992,124.304 C152.67992,124.168 153.27992,124.04 153.63992,123.768 C154.11192,123.512 154.59192,123.112 154.95192,122.584 C155.19192,122.056 155.42392,121.528 155.54392,121 C155.54392,120.336 155.66392,119.808 155.54392,119.152 C155.54392,118.624 155.42392,117.832 155.07192,117.296 C154.83192,116.768 154.59192,116.376 154.23192,115.976 C153.99192,115.584 153.75192,115.32 153.39992,114.92 C153.03992,114.528 152.79992,114.264 152.43992,114.128 C152.07992,114 151.84792,113.736 151.48792,113.6 L150.88792,115.184 C150.76792,115.32 150.76792,115.712 150.88792,115.848 C151.00792,116.112 151.12792,116.112 151.24792,116.24 C151.36792,116.376 151.60792,116.504 151.72792,116.64 C151.95992,116.768 152.19992,117.032 152.31992,117.168 C152.55992,117.56 152.79992,117.832 152.91992,118.224 C153.15992,118.624 153.15992,118.888 153.27992,119.152 C153.27992,119.544 153.39992,119.808 153.27992,120.072 C153.27992,120.736 152.79992,121.128 152.43992,121.392 C151.95992,121.656 151.60792,121.792 151.24792,121.792 C150.76792,121.656 150.52792,121.656 150.17592,121.528 C149.69592,121.392 149.45592,121.128 149.09592,121 C148.85592,120.864 148.62392,120.6 148.26392,120.472 C147.90392,120.336 147.66392,120.336 147.30392,120.336 C146.95192,120.336 146.59192,120.336 146.35192,120.6 L144.79992,121.792 L145.63192,123.768 L147.18392,123.112 C147.30392,122.848 147.66392,122.848 147.90392,122.976 C148.14392,123.112 148.50392,123.248 148.74392,123.376 L149.69592,123.904 Z M142.39992,124.416 C142.39992,124.288 142.39992,123.896 142.39992,123.768 C142.39992,123.504 142.39992,123.24 142.27192,122.976 C142.13592,122.584 141.74392,122.192 141.21592,122.056 C141.08792,122.056 140.82392,121.928 140.55992,122.056 C140.16792,121.928 140.03992,122.056 139.77592,122.192 C139.64792,122.456 139.24792,122.456 139.11992,122.584 C139.11992,122.848 138.99192,122.976 138.85592,123.24 C138.85592,123.368 138.72792,123.632 138.85592,123.896 C138.85592,124.16 138.85592,124.416 138.99192,124.68 C139.11992,125.08 139.51192,125.472 140.03992,125.6 C140.16792,125.6 140.55992,125.6 140.69592,125.6 C140.95992,125.6 141.21592,125.6 141.47992,125.472 C141.87192,125.336 142.27192,124.816 142.39992,124.416 Z" id="Shape" fill="#CED6E2"></path>
                <path d="M137.6,115.36 L137.6,136.288 C137.6,138.928 135.328,141.2 132.672,141.2 L63.328,141.2 C60.672,141.2 58.4,138.928 58.4,136.288 L58.4,113.6" id="路径" stroke="#1676EE" stroke-width="3.6" stroke-linecap="round" stroke-linejoin="round" stroke-dasharray="0,0"></path>
                <path d="M105.824,103.88 L99.44,108.944 C97.656,110.344 95.36,111.224 93.064,111.224 L65.776,111.224 C63.096,111.224 60.8,113.384 60.8,116.168 C60.8,116.416 60.8,116.672 60.928,116.928 L65.904,142.896 C66.288,145.304 68.456,147.2 70.872,147.2 L129.16,147.2 C131.712,147.2 133.752,145.424 134.136,143.024 L141.152,107.304 C141.528,104.64 139.744,102.104 136.944,101.728 C136.688,101.6 136.432,101.6 136.176,101.6 L112.2,101.6 C109.904,101.6 107.608,102.36 105.824,103.88 Z" id="路径" fill="#FFFFFF"></path>
                <path d="M58.52,146.8 C59.032,149.712 61.456,152 64.52,152 L134.04,152 C136.976,152 139.52,149.84 140.032,146.928 L148.328,103.656 C148.832,100.48 146.664,97.312 143.352,96.8 C143.096,96.8 142.712,96.8 142.456,96.8 L113.888,96.8 C111.208,96.8 108.4,97.816 106.36,99.464 L98.704,105.68 C96.536,107.464 93.856,108.352 91.176,108.352 L58.4,108.352 C55.208,108.352 52.4,110.888 52.4,114.312 C52.4,114.568 52.4,114.944 52.528,115.2 L58.52,146.8 Z" id="路径" stroke="#E6E7ED" fill="#F8FAFF" stroke-dasharray="0,0"></path>
                <path d="M127.912,121.9 C140.408,121.9 148.136,135.668 140.8,146.156 L150.976,156.132 C152.648,157.644 151.616,160.300069 149.296,160.300069 L149.173425,160.300118 C149.160306,160.300096 149.14734,160.300054 149.134515,160.29998 L149.059133,160.299077 C147.901101,160.276311 147.74288,159.78384 137.448,149.692 C126.888,157.396 112.2,149.94 112.2,137.308 C112.2,128.844 119.288,121.9 127.912,121.9 Z" id="Shape" fill="#989FB0"></path>
                <circle id="椭圆形" fill="#F4F7FA" cx="128.048908" cy="137.549111" r="11.75"></circle>
            </g>
        </g>
    </g>
</svg>