<?xml version="1.0" encoding="UTF-8"?>
<svg width="201px" height="200px" viewBox="0 0 201 200" version="1.1" xmlns="http://www.w3.org/2000/svg" xmlns:xlink="http://www.w3.org/1999/xlink">
    <title>空态_数据</title>
    <defs>
        <rect id="path-1" x="0" y="0" width="200" height="200"></rect>
        <path d="M0.445371861,23.9702704 C0.154195972,24.2923409 0,24.6655421 0,25.0477044 L0,25.0477044 L0,53.5796742 L22.1435895,18.283169 L22.1435895,0 L0.445371861,23.9702704 Z" id="path-3"></path>
        <path d="M0.445371861,23.9697433 C0.154195972,24.2912867 0,24.665015 0,25.0466502 L0,25.0466502 L0,53.5791471 L22.1435895,18.2826419 L22.1435895,0 L0.445371861,23.9697433 Z" id="path-5"></path>
        <path d="M0,18.2826419 L21.3314408,52.9007432 L21.3314408,24.3640293 C21.3314408,23.9855569 21.1787419,23.6144642 20.8913086,23.2934479 L20.8913086,23.2934479 L0,0 L0,18.2826419 Z" id="path-7"></path>
        <path d="M43.3799678,0 C43.3799678,3.75573243 47.6869757,6.79985241 53,6.79985241 C58.3130243,6.79985241 62.6200322,3.75573243 62.6200322,0 L106,0 L106,36.6000738 C106,38.8139792 103.451275,40.608824 100.307474,40.608824 L5.69252606,40.608824 C2.54872468,40.608824 0,38.8139792 0,36.6000738 L0,0 L43.3799678,0 Z" id="path-9"></path>
        <path d="M6.40362399,0 C2.86759597,0 0,2.01939803 0,4.50951452 L0,4.50951452 C0,7.00015814 2.86759597,9.01902904 6.40362399,9.01902904 L6.40362399,9.01902904 L34.9807785,9.01902904 C38.5168065,9.01902904 41.3836539,7.00015814 41.3836539,4.50951452 L41.3836539,4.50951452 C41.3836539,2.01939803 38.5168065,0 34.9807785,0 L34.9807785,0 L6.40362399,0 Z" id="path-11"></path>
    </defs>
    <g id="图标层" stroke="none" stroke-width="1" fill="none" fill-rule="evenodd">
        <g id="画板" transform="translate(-87.000000, -274.000000)">
            <g id="空态_数据" transform="translate(87.500000, 274.000000)">
                <mask id="mask-2" fill="white">
                    <use xlink:href="#path-1"></use>
                </mask>
                <use id="蒙版" fill-opacity="0" fill="#D8D8D8" xlink:href="#path-1"></use>
                <path d="M163.6,124 C160.952,124 158.8,126.152 158.8,128.8 C158.8,131.456 160.952,133.6 163.6,133.6 C166.248,133.6 168.4,131.456 168.4,128.8 C168.4,126.152 166.248,124 163.6,124 Z" id="路径" fill="#EAEEF9" mask="url(#mask-2)"></path>
                <path d="M154,140.8 C152.016,140.8 150.4,142.424 150.4,144.4 C150.4,146.392 152.016,148 154,148 C155.992,148 157.6,146.392 157.6,144.4 C157.6,142.424 155.992,140.8 154,140.8 Z" id="路径" fill="#EAEEF9" mask="url(#mask-2)"></path>
                <path d="M44.8,59.2 C42.808,59.2 41.2,60.824 41.2,62.8 C41.2,64.792 42.808,66.4 44.8,66.4 C46.784,66.4 48.4,64.792 48.4,62.8 C48.4,60.824 46.784,59.2 44.8,59.2 Z" id="路径" fill="#EAEEF9" mask="url(#mask-2)"></path>
                <path d="M24.4,118 C21.088,118 18.4,120.688 18.4,124 C18.4,127.312 21.088,130 24.4,130 C27.712,130 30.4,127.312 30.4,124 C30.4,120.688 27.712,118 24.4,118 Z" id="路径" fill="#EAEEF9" mask="url(#mask-2)"></path>
                <path d="M100.6,40 C67.136,40 40,67.344 40,101.2 C40,135.056 67.136,162.4 100.6,162.4 C134.064,162.4 161.2,135.056 161.2,101.2 C161.2,67.344 134.064,40 100.6,40 Z" id="路径" fill="#F3F4FA" mask="url(#mask-2)"></path>
                <g id="编组-2" mask="url(#mask-2)">
                    <g transform="translate(47.000000, 84.000000)">
                        <path d="M11.9793803,31.1881292 L94.0198712,31.1881292 L94.0198712,12.7821412 L11.9793803,12.7821412 L11.9793803,31.1881292 Z" id="Fill-27" fill="#C2C9D5"></path>
                        <g id="编组" stroke-width="1" fill="none" transform="translate(0.000749, 0.000000)">
                            <mask id="mask-4" fill="white">
                                <use xlink:href="#path-3"></use>
                            </mask>
                            <g id="Clip-30"></g>
                            <path d="M0.445371861,23.9702704 C0.154195972,24.2923409 0,24.6655421 0,25.0477044 L0,25.0477044 L0,53.5796742 L22.1435895,18.283169 L22.1435895,0 L0.445371861,23.9702704 Z" id="Fill-29" fill="#F9FBFF" mask="url(#mask-4)"></path>
                        </g>
                        <g id="编组" stroke-width="1" fill="none" transform="translate(0.000749, 1.503874)">
                            <mask id="mask-6" fill="white">
                                <use xlink:href="#path-5"></use>
                            </mask>
                            <g id="Clip-32"></g>
                            <path d="M0.445371861,23.9697433 C0.154195972,24.2912867 0,24.665015 0,25.0466502 L0,25.0466502 L0,53.5791471 L22.1435895,18.2826419 L22.1435895,0 L0.445371861,23.9697433 Z" id="Fill-31" fill="#D9DFEE" mask="url(#mask-6)"></path>
                        </g>
                        <polygon id="Fill-33" fill="#D9DFEE" points="22.1435895 18.4065152 84.5817304 18.4065152 84.5817304 0.000527120342 22.1435895 0.000527120342"></polygon>
                        <path d="M22.1443381,17.5372938 L84.5824789,17.5372938 L84.5824789,1.00258289 L22.1443381,1.00258289 L22.1443381,17.5372938 Z" id="Fill-35" fill="#F6F9FF"></path>
                        <path d="M105.564958,23.5682884 L84.5823292,0.000210848137 L84.5823292,18.2828528 L105.99985,53.1729482 L105.99985,24.6330715 C105.99985,24.2561805 105.848648,23.8871962 105.564958,23.5682884" id="Fill-37" fill="#F9FBFF"></path>
                        <g id="编组" stroke-width="1" fill="none" transform="translate(84.668559, 1.503874)">
                            <mask id="mask-8" fill="white">
                                <use xlink:href="#path-7"></use>
                            </mask>
                            <g id="Clip-40"></g>
                            <path d="M0,18.2826419 L21.3314408,52.9007432 L21.3314408,24.3640293 C21.3314408,23.9855569 21.1787419,23.6144642 20.8913086,23.2934479 L20.8913086,23.2934479 L0,0 L0,18.2826419 Z" id="Fill-39" fill="#D9DFEE" mask="url(#mask-8)"></path>
                        </g>
                        <g id="编组" stroke-width="1" fill="none" transform="translate(0.000000, 24.541563)">
                            <path d="M105.999626,0 L105.999626,39.4502135 C105.999626,41.6635918 103.450901,43.4584366 100.307848,43.4584366 L5.6921518,43.4584366 C2.54835042,43.4584366 0.000374262068,41.6635918 0.000374262068,39.4502135 L0.000374262068,0 L43.3803421,0 C43.3803421,3.75573243 47.6873499,6.79985241 52.9996257,6.79985241 C58.3126501,6.79985241 62.6196579,3.75573243 62.6196579,0 L105.999626,0 Z" id="Fill-41" fill="#D9DFEE"></path>
                            <g transform="translate(0.000000, 1.002161)">
                                <mask id="mask-10" fill="white">
                                    <use xlink:href="#path-9"></use>
                                </mask>
                                <g id="Clip-44"></g>
                                <path d="M106,0 L106,36.6000738 C106,38.8139792 103.451275,40.608824 100.307474,40.608824 L5.69252606,40.608824 C2.54872468,40.608824 0,38.8139792 0,36.6000738 L0,0 L43.3799678,0 C43.3799678,3.75573243 47.6869757,6.79985241 53,6.79985241 C58.3130243,6.79985241 62.6200322,3.75573243 62.6200322,0 L106,0 Z" id="Fill-43" fill="#FBFCFF" mask="url(#mask-10)"></path>
                            </g>
                            <path d="M39.9314423,13.8044384 L67.5205449,13.8044384 C71.3297842,13.8044384 74.4174463,15.9788098 74.4174463,18.6613252 C74.4174463,21.3438406 71.3297842,23.5187391 67.5205449,23.5187391 L39.9314423,23.5187391 C36.1222029,23.5187391 33.0345409,21.3438406 33.0345409,18.6613252 C33.0345409,15.9788098 36.1222029,13.8044384 39.9314423,13.8044384" id="Fill-45" fill="#F9FBFF"></path>
                        </g>
                        <g id="编组" stroke-width="1" fill="none" transform="translate(33.033867, 38.039112)">
                            <mask id="mask-12" fill="white">
                                <use xlink:href="#path-11"></use>
                            </mask>
                            <g id="Clip-48"></g>
                            <path d="M6.40362399,0 C2.86759597,0 0,2.01939803 0,4.50951452 L0,4.50951452 C0,7.00015814 2.86759597,9.01902904 6.40362399,9.01902904 L6.40362399,9.01902904 L34.9807785,9.01902904 C38.5168065,9.01902904 41.3836539,7.00015814 41.3836539,4.50951452 L41.3836539,4.50951452 C41.3836539,2.01939803 38.5168065,0 34.9807785,0 L34.9807785,0 L6.40362399,0 Z" id="Fill-47" fill="#C7CEDA" mask="url(#mask-12)"></path>
                        </g>
                    </g>
                </g>
                <path d="M99.4,46 C98.368,46 97.6,46.784 97.6,47.808 C97.6,48.832 98.504,49.6 99.4,49.6 C100.432,49.6 101.2,48.832 101.2,47.808 C101.2,46.784 100.432,46 99.4,46 Z" id="路径" fill="#EAEEF9" mask="url(#mask-2)"></path>
                <g id="Path" stroke-dasharray="9.600000381469727,4.800000190734863" mask="url(#mask-2)" stroke="#C9D4E2" stroke-width="2.4">
                    <g transform="translate(73.201389, 72.098841) rotate(-88.000000) translate(-73.201389, -72.098841) translate(42.600000, 34.300000)" id="路径">
                        <path d="M35.08,37.848 C32.584,39.64 31.616,43.088 32.312,45.968 C33.144,50.648 36.744,54.504 41.184,55.608 C42.104,55.84 43.064,55.952 44.04,55.96 C44.104,55.84 44.168,55.72 44.232,55.608 C45.76,52.992 46.864,49.968 47.008,46.936 C47.144,43.904 46.176,40.736 43.68,38.672 C41.464,36.608 37.72,36.192 35.08,37.848 Z"></path>
                        <path d="M59.208,0 C62.264,14.312 61.848,29.456 57.688,43.488 C56.712,46.384 55.744,49.544 53.664,51.752 C51.376,54.456 47.624,55.968 44.04,55.9600316"></path>
                        <path d="M44.04,55.96 C39.424,64.328 31.208,70.92 21.768,73.912 C14.696,76.112 7.072,76.112 5.68434189e-14,74.184"></path>
                    </g>
                </g>
                <g id="编组-3" mask="url(#mask-2)">
                    <g transform="translate(30.901366, 45.901777) rotate(40.000000) translate(-30.901366, -45.901777) translate(23.702988, 42.901162)">
                        <path d="M11.605012,0.022837916 C9.50101198,0.142837916 7.69301198,0.278837916 7.23701198,1.59083792 C6.94101198,2.90283792 8.29301198,3.55083792 10.253012,4.35083792 C12.053012,5.25483792 13.861012,4.73483792 14.317012,3.29483792 C14.613012,1.84683792 14.165012,-0.241162084 11.605012,0.022837916 Z" id="路径" fill="#DAE2EB"></path>
                        <path d="M6.98101199,1.98283792 C6.22901199,0.830837916 5.02101199,1.21483792 2.46101199,1.47083792 C0.349011991,1.86283792 -0.554988009,3.38283792 0.349011991,4.66283792 C1.10101199,5.81483792 3.21301199,6.57483792 4.71701199,5.43083792 C6.38101199,4.15883792 7.74101199,3.26283792 6.98101199,1.98283792 Z" id="路径" fill="#DAE2EB"></path>
                        <g id="Path" stroke-width="1" fill="none" transform="translate(4.797012, 0.000000)">
                            <path d="M1.896,0.0228379155 L1.896,0.0228379155 L1.896,0.0228379155 Z" id="路径" fill="#989FB0"></path>
                            <path d="M0,1.81483792 C0,2.22283792 0,2.50283792 0,3.06283792 C0.16,4.86283792 1.576,6.23883792 2.992,5.96683792 C4.256,5.82283792 5.048,4.16683792 4.728,2.22283792 C4.728,1.95083792 4.576,1.54283792 4.416,1.25483792 C4.096,0.430837915 2.992,-0.121162085 1.896,0.0228379155 C0.792,0.150837915 0.16,0.846837915 0,1.81483792 Z" id="路径" fill="#989FB0"></path>
                        </g>
                    </g>
                </g>
            </g>
        </g>
    </g>
</svg>